<?xml version="1.0" standalone="no"?>
<!DOCTYPE svg PUBLIC "-//W3C//DTD SVG 20010904//EN"
 "http://www.w3.org/TR/2001/REC-SVG-20010904/DTD/svg10.dtd">
<svg version="1.0" xmlns="http://www.w3.org/2000/svg"
 width="2212.000000pt" height="2171.000000pt" viewBox="0 0 2212.000000 2171.000000"
 preserveAspectRatio="xMidYMid meet" fill="white">

<g transform="translate(0.000000,2171.000000) scale(0.100000,-0.100000)"
 stroke="none">
<path d="M9005 18133 c-195 -5 -197 0 40 -122 356 -182 602 -341 930 -600 492
-388 829 -740 1454 -1521 603 -752 900 -1169 1564 -2190 159 -245 526 -798
816 -1230 290 -432 844 -1257 1231 -1835 820 -1224 847 -1262 881 -1287 24
-19 66 -19 1394 -18 753 0 1373 4 1377 8 4 4 -877 1335 -1958 2957 -1983 2977
-2116 3177 -2471 3733 -233 364 -322 492 -463 661 -341 409 -776 746 -1308
1014 -276 140 -507 222 -758 271 -373 72 -958 132 -1516 156 -219 9 -883 11
-1213 3z" fill="white"/>
<path d="M5415 18124 c-410 -21 -741 -68 -1095 -155 -1042 -256 -1824 -786
-2375 -1609 -352 -527 -575 -1092 -700 -1772 -83 -450 -91 -688 -39 -1143 175
-1538 961 -2782 2214 -3502 215 -124 480 -249 641 -303 525 -176 1621 -275
2844 -256 715 11 1679 56 1703 81 7 7 -11 34 -676 1000 -322 468 -648 941
-725 1053 -76 111 -147 207 -158 212 -11 7 -405 22 -996 40 -538 16 -1011 34
-1052 40 -174 25 -454 144 -614 263 -107 78 -355 328 -439 440 -294 396 -427
856 -390 1347 32 420 157 796 359 1080 79 110 246 287 352 372 422 339 943
507 1457 469 627 -47 1035 -279 1360 -773 59 -90 662 -980 1339 -1978 677
-998 1507 -2222 1844 -2720 338 -498 629 -921 647 -940 l34 -35 1395 -3 1395
-2 -27 42 c-16 24 -1047 1562 -2292 3418 -1245 1856 -2323 3463 -2395 3570
-167 249 -297 411 -466 580 -409 410 -942 732 -1563 946 -326 112 -623 186
-872 219 -115 15 -557 27 -710 19z"/>
<path d="M20145 11173 c-529 -27 -934 -506 -875 -1033 14 -125 34 -196 86
-309 297 -637 1169 -729 1597 -168 266 348 261 817 -13 1161 -188 237 -480
365 -795 349z" fill="white"/>
<path d="M15860 8587 c-66 -16 -90 -28 -142 -75 -77 -69 -118 -186 -118 -333
0 -213 91 -357 255 -404 259 -76 497 219 420 520 -56 216 -225 335 -415 292z" fill="white"/>
<path d="M12970 8441 c-74 -32 -210 -90 -302 -131 l-168 -72 0 -2004 0 -2004
308 2 307 3 0 158 c0 86 2 157 5 157 3 0 17 -20 33 -44 50 -79 173 -187 272
-237 112 -57 176 -77 286 -88 257 -25 503 45 716 206 230 173 419 488 503 840
75 316 86 704 30 1076 -98 647 -385 1042 -840 1156 -167 42 -441 38 -625 -9
-144 -37 -272 -112 -342 -201 l-33 -42 0 647 c0 355 -3 646 -7 646 -5 0 -69
-27 -143 -59z m849 -1576 c193 -18 358 -136 455 -324 96 -186 130 -374 130
-716 0 -210 -3 -253 -22 -342 -87 -399 -294 -642 -583 -682 -192 -26 -360 49
-515 232 -62 72 -107 145 -140 224 l-24 58 0 500 0 500 34 97 c67 196 187 346
329 413 75 36 168 55 237 49 19 -2 64 -6 99 -9z" fill="white"/>
<path d="M17303 8206 l-303 -131 0 -322 0 -323 -165 0 -165 0 0 -305 0 -305
165 0 165 0 0 -889 c0 -950 3 -1020 51 -1191 45 -163 140 -319 247 -406 151
-124 348 -171 627 -153 104 7 239 30 252 43 2 2 24 133 48 292 24 159 47 304
50 322 l6 33 -38 -19 c-88 -45 -222 -65 -338 -51 -178 23 -257 113 -285 329
-7 57 -10 346 -8 885 l3 800 288 3 287 2 0 305 0 305 -287 2 -288 3 -5 451 -5
450 -302 -130z" fill="white"/>
<path d="M5600 7760 c-343 -56 -669 -285 -892 -630 -395 -607 -458 -1539 -149
-2186 162 -340 407 -571 706 -667 130 -42 192 -51 340 -52 143 0 227 11 350
48 247 72 474 245 644 491 l52 76 -57 25 c-32 14 -61 22 -64 18 -4 -5 -31 -43
-61 -87 -107 -157 -259 -286 -406 -343 -60 -24 -83 -27 -193 -27 -103 -1 -137
3 -195 21 -346 110 -592 532 -669 1148 -18 143 -18 610 -1 765 64 566 272
1013 549 1179 105 63 179 84 296 85 95 1 111 -2 166 -27 92 -43 134 -93 267
-313 74 -124 117 -168 171 -178 108 -20 194 66 204 204 4 57 1 73 -23 120 -69
136 -252 245 -515 307 -85 20 -139 25 -285 28 -99 2 -205 0 -235 -5z" fill="white"/>
<path d="M8196 7760 c-268 -43 -546 -203 -743 -430 -258 -297 -439 -741 -481
-1180 -14 -146 -7 -507 12 -630 112 -732 513 -1210 1081 -1289 105 -15 189
-14 313 5 270 40 490 156 680 360 70 74 182 221 182 238 0 5 -94 56 -104 56
-2 0 -30 -36 -61 -80 -142 -204 -312 -336 -482 -376 -89 -21 -244 -14 -326 15
-193 68 -360 229 -477 460 -252 504 -279 1417 -59 2034 80 226 208 427 341
537 196 164 454 195 613 75 43 -33 79 -83 179 -248 89 -145 121 -182 174 -197
50 -13 60 -13 109 9 86 39 130 166 98 278 -14 49 -28 69 -89 128 -106 105
-250 171 -476 220 -89 19 -397 28 -484 15z" fill="white"/>
<path d="M2517 7704 c-405 -63 -774 -262 -872 -471 -34 -71 -35 -165 -2 -214
43 -65 152 -94 257 -69 75 18 111 55 155 157 122 286 243 397 443 410 167 10
293 -38 413 -157 158 -158 228 -373 245 -757 l7 -152 -32 -42 c-86 -118 -220
-188 -592 -310 -372 -122 -425 -142 -566 -212 -232 -114 -374 -247 -463 -432
-57 -119 -76 -185 -91 -320 -46 -418 198 -780 608 -901 234 -68 565 -26 789
102 153 87 253 187 331 331 l43 78 0 -40 c3 -196 104 -391 238 -457 62 -30
187 -37 265 -14 151 44 302 209 386 424 l21 53 -52 -54 c-122 -124 -262 -115
-315 22 -16 43 -18 126 -23 1166 l-5 1120 -23 90 c-13 50 -48 140 -77 201
-121 250 -334 398 -645 449 -115 18 -322 18 -443 -1z m662 -2309 l1 -300 -39
-116 c-119 -352 -306 -561 -539 -601 -246 -42 -497 154 -594 462 -32 103 -32
324 -1 446 44 169 97 266 191 356 68 66 92 78 293 158 188 75 351 153 442 213
76 49 190 156 215 202 16 29 17 18 23 -245 4 -151 7 -410 8 -575z" fill="white"/>
<path d="M10070 7661 c-658 -155 -700 -167 -700 -191 0 -15 40 -37 90 -50 25
-7 62 -21 82 -33 73 -40 68 45 68 -1246 0 -1022 2 -1171 16 -1239 70 -340 309
-582 662 -669 48 -12 112 -17 227 -17 144 0 170 3 260 27 231 64 399 188 488
362 l25 50 -5 -155 c-6 -179 3 -217 59 -246 56 -29 126 -21 426 50 155 37 288
69 295 71 7 2 25 6 40 9 26 6 28 9 25 54 -2 31 -7 46 -16 44 -85 -17 -153 -24
-176 -18 -36 9 -72 48 -80 87 -3 18 -6 728 -6 1580 0 999 -3 1549 -10 1549 -5
0 -83 -18 -172 -40 -90 -22 -244 -58 -343 -80 -206 -47 -283 -68 -289 -79 -12
-19 24 -41 93 -60 87 -23 122 -46 138 -92 9 -25 12 -283 13 -1019 0 -611 4
-1019 11 -1075 18 -158 14 -331 -10 -405 -85 -265 -348 -437 -612 -400 -188
27 -351 174 -429 387 -61 170 -60 130 -60 1561 0 1234 -1 1302 -17 1301 -10 0
-52 -9 -93 -18z" fill="white"/>
<path d="M19600 7484 c-307 -28 -583 -131 -755 -282 -192 -169 -287 -428 -256
-698 22 -191 82 -316 206 -433 121 -113 241 -177 670 -358 528 -223 688 -351
688 -552 0 -85 -16 -140 -56 -192 -93 -122 -273 -177 -542 -166 -240 11 -510
76 -681 165 l-72 38 -106 -273 c-58 -151 -106 -280 -106 -288 0 -21 226 -128
365 -174 236 -77 459 -105 716 -90 380 23 649 127 850 329 148 149 225 327
248 573 44 465 -181 800 -704 1047 -66 32 -230 99 -365 150 -273 103 -342 135
-395 181 -55 49 -68 82 -63 158 13 170 143 242 438 244 211 1 351 -29 523
-114 81 -40 155 -87 195 -122 12 -11 22 -18 22 -14 0 3 41 147 91 319 l91 312
-28 23 c-42 34 -217 118 -304 147 -141 46 -272 67 -455 70 -93 2 -190 2 -215
0z" fill="white"/>
<path d="M15630 5830 l0 -1600 310 0 310 0 0 1600 0 1600 -310 0 -310 0 0
-1600z" fill="white"/>
</g>
</svg>
