<svg width="224" height="84" viewBox="0 0 224 84" fill="none" xmlns="http://www.w3.org/2000/svg">
<g clip-path="url(#clip0_586_589)">
<path d="M41.3838 20.4789C38.2328 17.873 33.9192 16.5854 28.4126 16.5854H14.7071V18.5168H28.1678C32.8485 18.5168 37.0702 19.4672 39.6706 21.7358C42.271 24.0044 44.1983 27.3154 44.1983 31.4234C44.1983 35.4088 42.4851 38.3212 39.8236 40.5592C37.162 42.7971 32.3284 43.7781 27.5254 43.7781H12.0762V45.7095H27.6478C33.4297 45.7095 37.9574 44.4526 41.2308 41.9387C44.4736 39.4249 46.1256 35.8687 46.1256 31.3008C46.1256 26.6409 44.5348 23.0541 41.3838 20.4789Z" fill="white"/>
<path d="M40.2215 23.2379C38.2635 21.7357 36.0303 20.54 29.667 20.54H19.082V22.4101C19.082 22.4101 23.8239 22.3488 29.4223 22.4101C34.8372 22.4714 36.8257 23.0846 38.6612 24.4335C40.9863 26.1503 42.4547 28.2962 42.4547 31.27C42.4547 34.1517 40.9863 36.1751 38.6306 37.9225C36.2444 39.7006 32.5733 39.7006 31.0743 39.7619C30.5236 39.7619 23.212 39.7619 23.212 39.7619V41.632C23.212 41.632 26.8219 41.6933 29.0858 41.632C34.2253 41.5094 37.2846 41.2028 40.1297 39.0875C42.7912 37.0948 44.1985 34.4889 44.1985 31.178C44.1985 26.8247 41.9958 24.6481 40.2215 23.2379Z" fill="white"/>
<path d="M39.2737 25.7213C37.8052 24.8016 36.5203 24.1885 30.4324 24.1885H22.8149V25.4148H30.2183C35.6026 25.4148 37.6217 26.3651 38.2641 26.7637C39.4878 27.4994 41.0786 28.7257 41.0786 31.1783C41.0786 32.7418 40.1608 34.7345 38.7842 35.5009C37.5299 36.206 35.2354 36.8498 31.2278 36.8498H6.38672V38.0761H31.289C36.1532 38.0761 37.8052 37.5242 39.5184 36.5739C41.2316 35.6235 42.3941 33.6615 42.3941 31.1783C42.3941 28.3578 40.8339 26.7023 39.2737 25.7213Z" fill="white"/>
<path d="M44.1064 39.3021C40.9554 36.6963 36.6419 35.4087 31.1352 35.4087H21.9575V37.3401H30.8599C35.5405 37.3401 39.7623 38.3211 42.3627 40.5591C44.963 42.797 46.921 46.1386 46.921 50.2466C46.921 54.232 45.2384 57.1445 42.5462 59.3824C39.8541 61.6204 35.0511 62.6014 30.248 62.6014H14.7988V64.5328H30.3704C36.1524 64.5328 40.6801 63.2758 43.9535 60.762C47.2269 58.2481 48.8483 54.6919 48.8483 50.124C48.8177 45.4948 47.2575 41.908 44.1064 39.3021Z" fill="white"/>
<path d="M42.9446 42.0611C40.9867 40.5896 38.7534 39.3633 32.3902 39.3633H18.0117V41.2334C18.0117 41.2334 26.547 41.172 32.1455 41.2334C37.5603 41.2947 39.5488 41.9078 41.3844 43.2567C43.7094 44.9735 45.1779 47.1195 45.1779 50.0932C45.1779 52.975 43.7094 54.9983 41.3538 56.7458C38.9676 58.5239 35.2965 58.5239 33.7975 58.5852C33.2468 58.5852 25.9352 58.5852 25.9352 58.5852V60.4553C25.9352 60.4553 29.5757 60.5166 31.8089 60.4553C36.9485 60.3326 40.0077 60.0261 42.8528 57.9107C45.5144 55.918 46.9216 53.3122 46.9216 50.0012C46.9216 45.6786 44.7496 43.4713 42.9446 42.0611Z" fill="white"/>
<path d="M21.0703 48.4378H34.5616V47.3955H21.0703V48.4378Z" fill="white"/>
<path d="M26.6387 52.0863H34.4704V51.1973H26.6387V52.0863Z" fill="white"/>
<path d="M14.7988 48.4378H18.7759V47.3955H14.7988V48.4378Z" fill="white"/>
<path d="M12.291 52.1473H24.4362V51.105H12.291V52.1473Z" fill="white"/>
<path d="M15.2891 25.3228H20.0309V24.4644H15.2891V25.3228Z" fill="white"/>
<path d="M12.0156 32.3126H22.8148V31.3315H12.0156V32.3126Z" fill="white"/>
<path d="M12.291 60.3327H23.702V59.1064H12.291V60.3327Z" fill="white"/>
<path d="M9.47656 64.4103H12.3217V62.6016H9.47656V64.4103Z" fill="white"/>
<path d="M16.5742 29.2466H34.5014V28.2656H16.5742V29.2466Z" fill="white"/>
<path d="M25.5371 32.3126H34.1642V31.3315H25.5371V32.3126Z" fill="white"/>
<path d="M41.9963 44.7288C40.5279 43.8397 39.243 43.2266 33.1551 43.2266H23.4878V44.4222H32.9715C38.3558 44.4222 40.4055 45.3419 41.0174 45.7098C42.2105 46.4149 43.8319 47.5798 43.8319 49.9711C43.8319 51.5039 42.9141 53.4047 41.5374 54.1404C40.2831 54.8149 37.9887 55.428 33.9811 55.428H9.10938V56.6236H34.0117C38.8759 56.6236 40.5279 56.1025 42.2411 55.1828C43.9542 54.2631 45.0862 52.393 45.0862 49.9711C45.1168 47.3039 43.5565 45.7098 41.9963 44.7288Z" fill="white"/>
<path d="M67.5108 42.0617V53.0062H73.4763C76.0461 53.0062 78.0652 52.5157 79.4725 51.5346C80.8491 50.6456 81.6445 49.1127 81.6139 47.4573C81.6139 43.8704 78.5853 42.0617 72.5585 42.0617H67.5108ZM67.5108 29.0325V38.8427H72.0079C74.4247 38.8427 76.2908 38.3828 77.6675 37.4325C79.0136 36.5741 79.809 35.0412 79.7478 33.4471C79.7478 30.504 77.3616 29.0018 72.5585 29.0018L67.5108 29.0325ZM63.1055 56.2252V25.8135H73.7822C77.0251 25.8135 79.5948 26.4573 81.4916 27.7449C83.3883 29.0325 84.3367 30.7186 84.3367 32.7726C84.3673 34.4281 83.7554 36.0529 82.6235 37.2792C81.461 38.5668 79.9008 39.4558 77.8817 40.0076V40.0996C80.4208 40.3449 82.4399 41.1113 83.939 42.4295C85.438 43.6865 86.264 45.5565 86.2028 47.5186C86.2028 50.1244 85.0403 52.2091 82.7459 53.8339C80.4514 55.4587 77.5451 56.2558 74.027 56.2558H63.1055V56.2252Z" fill="white"/>
<path d="M91.097 56.2251H95.38V34.52H91.097V56.2251ZM93.2691 28.9711C92.5655 29.0017 91.8618 28.7565 91.3112 28.3273C90.7911 27.9594 90.4852 27.3462 90.5158 26.7331C90.5158 26.0893 90.8217 25.4762 91.3112 25.1083C91.8618 24.6791 92.5655 24.4338 93.2691 24.4645C94.0033 24.4338 94.7069 24.6791 95.2576 25.1083C96.1448 25.7521 96.3283 26.9784 95.7165 27.8674C95.5941 28.0513 95.4412 28.2046 95.2576 28.3273C94.7069 28.7871 94.0033 29.0017 93.2691 28.9711Z" fill="white"/>
<path d="M114.316 56.0104C113.307 56.4703 111.961 56.6848 110.309 56.6848C105.628 56.6848 103.272 54.5695 103.272 50.3082V37.463H98.6836V34.4892H103.272V29.1856L107.555 28.0513V34.4892H114.286V37.463H107.555V49.6951C107.555 51.1359 107.861 52.1783 108.473 52.8221C109.085 53.4659 110.095 53.7418 111.502 53.7418C112.481 53.7724 113.46 53.5272 114.286 53.006L114.316 56.0104Z" fill="white"/>
<path d="M153.262 56.2251H149.254V37.4631C149.285 35.6543 149.377 33.8149 149.591 32.0062H149.499C149.254 32.9259 148.887 33.8456 148.459 34.704L136.681 56.1945H134.692L122.945 34.8572C122.486 33.9375 122.15 32.9872 121.905 31.9755H121.813C121.966 33.7843 122.027 35.6237 121.997 37.4631V56.1945H118.111V28.2354H123.465L134.05 47.7332C134.662 48.8062 135.213 49.9405 135.641 51.1054H135.794C136.497 49.5726 137.048 48.4383 137.446 47.6718L148.245 28.2354H153.293V56.2251" fill="white"/>
<path d="M175.043 45.219L168.588 45.9547C166.599 46.1693 165.1 46.5679 164.091 47.1504C163.081 47.7328 162.561 48.7445 162.561 50.1854C162.561 51.2277 163.081 52.2088 163.968 52.7912C164.886 53.4657 166.14 53.8029 167.701 53.8029C169.842 53.8029 171.586 53.1898 172.963 51.9942C174.309 50.8599 175.073 49.1737 175.043 47.3956V45.219ZM179.326 56.2248H175.043V52.8219H174.951C173.085 55.4277 170.332 56.7153 166.722 56.7153C164.06 56.7153 161.98 56.1328 160.45 54.9985C158.982 53.9562 158.156 52.2394 158.186 50.4307C158.186 46.3839 161.123 44.0234 167.028 43.3489L175.043 42.4292C175.043 38.7504 173.207 36.9109 169.536 36.9109C166.416 36.8803 163.387 37.8 160.817 39.5781V36.0219C163.448 34.673 166.477 33.9985 169.903 33.9985C176.205 33.9985 179.326 36.6963 179.326 42.092V56.2248Z" fill="white"/>
<path d="M199.212 38.0144C198.447 37.5545 197.376 37.3092 195.969 37.3092C194.195 37.2786 192.512 38.045 191.38 39.4246C190.157 40.8348 189.545 42.7355 189.545 45.1574V56.2246H185.262V34.5195H189.545V38.9954H189.636C190.187 37.5545 191.166 36.2976 192.451 35.4085C193.675 34.5501 195.143 34.1209 196.673 34.1209C197.529 34.0903 198.416 34.1822 199.242 34.4275L199.212 38.0144Z" fill="white"/>
<path d="M214.141 56.0104C213.131 56.4703 211.785 56.6848 210.133 56.6848C205.452 56.6848 203.097 54.5695 203.097 50.3082V37.463H198.508V34.4892H203.097V29.1856L207.38 28.0513V34.4892H214.11V37.463H207.38V49.6951C207.38 51.1359 207.686 52.1783 208.297 52.8221C208.909 53.4659 209.919 53.7418 211.326 53.7418C212.305 53.7724 213.284 53.5272 214.11 53.006L214.141 56.0104Z" fill="white"/>
</g>
<defs>
<clipPath id="clip0_586_589">
<rect width="223" height="84" fill="white" transform="translate(0.916016)"/>
</clipPath>
</defs>
</svg>
