<svg width="263" height="80" viewBox="0 0 263 80" fill="none" xmlns="http://www.w3.org/2000/svg">
<g clip-path="url(#clip0_983_1464)">
<path d="M90.5454 39.4993C90.4698 37.6383 90.764 35.7809 91.411 34.0341C92.0581 32.2873 93.0451 30.6857 94.3152 29.3218C95.5853 27.9578 97.1133 26.8585 98.811 26.0873C100.509 25.316 102.343 24.8881 104.207 24.8281H104.786C111.991 24.8281 116.244 29.0602 117.501 34.0117L113.023 35.507C112.62 33.6619 111.567 32.0226 110.055 30.8884C108.543 29.7541 106.673 29.2004 104.786 29.3282C100.124 29.3282 95.4477 32.728 95.4477 39.5839C95.4477 46.4398 100.011 49.7126 104.843 49.7126C106.739 49.7644 108.598 49.1795 110.122 48.0516C111.646 46.9238 112.747 45.3181 113.249 43.4915L117.642 44.9022C116.884 47.6886 115.197 50.1336 112.86 51.8339C110.523 53.5342 107.675 54.3882 104.786 54.255C101.075 54.323 97.4891 52.9169 94.816 50.3456C92.143 47.7744 90.6018 44.2486 90.5312 40.5432C90.5171 40.2046 90.5312 39.8519 90.5454 39.4993Z" fill="white"/>
<path d="M126.359 53.6058H121.725V24.7432H126.359V36.0287C127.031 35.2319 127.877 34.5992 128.832 34.1787C129.787 33.7582 130.826 33.561 131.868 33.6023C136.658 33.6023 138.932 37.0302 138.932 41.3046V53.6058H134.468V42.1228C134.602 41.1439 134.345 40.1518 133.753 39.3601C133.161 38.5685 132.281 38.0408 131.303 37.8908C131.026 37.8624 130.747 37.8624 130.47 37.8908C129.398 37.8908 128.37 38.3158 127.613 39.0725C126.855 39.8291 126.429 40.8553 126.429 41.9253C126.422 42.0428 126.422 42.1605 126.429 42.278L126.359 53.6058Z" fill="white"/>
<path d="M149.33 42.4899L154.303 41.714C155.433 41.573 155.716 40.9946 155.716 40.3033C155.716 38.667 154.614 37.355 152.042 37.355C151.071 37.2766 150.108 37.5837 149.363 38.2095C148.617 38.8354 148.148 39.7297 148.058 40.6983V40.9099L143.82 39.9648C144.173 36.6074 147.225 33.6167 152 33.6167C157.99 33.6167 160.265 37.0023 160.265 40.9523V50.5873C160.26 51.6312 160.34 52.6739 160.505 53.7049H156.267C156.114 52.8866 156.052 52.0539 156.083 51.2221C155.44 52.2107 154.548 53.0136 153.497 53.5507C152.446 54.0878 151.272 54.3404 150.093 54.2832C148.482 54.416 146.884 53.9054 145.65 52.8635C144.416 51.8215 143.646 50.3332 143.509 48.7251C143.509 48.6264 143.509 48.5276 143.509 48.443C143.439 44.874 145.996 42.9554 149.33 42.4899ZM155.744 45.6075V44.7188L150.672 45.4806C149.984 45.5024 149.33 45.789 148.848 46.2806C148.366 46.7722 148.094 47.4307 148.087 48.1186C148.092 48.4594 148.165 48.7957 148.302 49.1079C148.439 49.4202 148.637 49.702 148.885 49.9371C149.132 50.1721 149.423 50.3556 149.742 50.477C150.061 50.5983 150.401 50.655 150.743 50.6437H150.955C151.533 50.7041 152.117 50.6497 152.675 50.4836C153.232 50.3175 153.75 50.0429 154.201 49.6758C154.651 49.3086 155.024 48.8561 155.299 48.3444C155.574 47.8326 155.744 47.2716 155.8 46.6938C155.821 46.3302 155.797 45.9655 155.73 45.6075H155.744Z" fill="white"/>
<path d="M168.149 24.3485C168.547 24.3429 168.943 24.416 169.312 24.5634C169.682 24.7108 170.019 24.9298 170.304 25.2077C170.589 25.4856 170.816 25.817 170.972 26.1827C171.129 26.5485 171.211 26.9415 171.215 27.3392C171.215 27.9344 171.038 28.5164 170.708 29.0119C170.378 29.5074 169.908 29.8943 169.358 30.124C168.808 30.3537 168.202 30.4159 167.617 30.3028C167.032 30.1897 166.493 29.9063 166.068 29.4884C165.644 29.0704 165.353 28.5364 165.231 27.9536C165.11 27.3709 165.164 26.7652 165.386 26.2129C165.608 25.6606 165.989 25.1863 166.481 24.8495C166.973 24.5128 167.553 24.3287 168.149 24.3203V24.3485ZM165.888 53.6908V34.1951H170.522V53.6062L165.888 53.6908Z" fill="white"/>
<path d="M181.075 53.606H176.455V34.1949H180.962V36.7765C181.549 35.7852 182.393 34.97 183.405 34.4165C184.417 33.863 185.559 33.5916 186.712 33.6306C191.459 33.6306 193.776 37.0586 193.776 41.333V53.606H189.156V42.123C189.156 39.7389 188.068 37.8063 185.158 37.8063C184.62 37.81 184.088 37.9194 183.592 38.1285C183.096 38.3375 182.647 38.6419 182.269 39.0244C181.891 39.4069 181.592 39.86 181.39 40.3578C181.188 40.8555 181.085 41.3882 181.089 41.9255C181.089 42.0807 181.089 42.2358 181.089 42.391L181.075 53.606Z" fill="white"/>
<path d="M199.371 53.6063V24.7437H204.005V53.6063H199.371Z" fill="white"/>
<path d="M212.269 24.3482C212.865 24.3454 213.449 24.5196 213.946 24.8487C214.443 25.1778 214.831 25.6469 215.06 26.1965C215.29 26.7462 215.35 27.3515 215.235 27.9357C215.119 28.5198 214.832 29.0565 214.411 29.4776C213.989 29.8987 213.451 30.1851 212.866 30.3006C212.281 30.4161 211.675 30.3554 211.125 30.1262C210.574 29.8971 210.104 29.5098 209.775 29.0135C209.445 28.5172 209.271 27.9343 209.273 27.3388C209.281 26.5479 209.599 25.7915 210.159 25.2323C210.719 24.673 211.477 24.3555 212.269 24.3482ZM209.994 53.6904V34.1948H214.586V53.6058L209.994 53.6904Z" fill="white"/>
<path d="M225.21 53.6057H220.576V34.1947H225.083V36.7762C225.672 35.7859 226.516 34.9716 227.527 34.4183C228.539 33.8649 229.68 33.5928 230.833 33.6304C235.58 33.6304 237.897 37.0583 237.897 41.3327V53.6057H233.263V42.1227C233.397 41.1438 233.14 40.1516 232.548 39.36C231.956 38.5684 231.076 38.0407 230.098 37.8907C229.816 37.8624 229.532 37.8624 229.251 37.8907C228.171 37.9018 227.14 38.3377 226.381 39.1037C225.622 39.8697 225.196 40.9039 225.196 41.9816C225.182 42.1459 225.182 42.3111 225.196 42.4754L225.21 53.6057Z" fill="white"/>
<path d="M253.706 42.3908L261.858 53.6763H256.206L250.555 45.6777L248.168 48.1888V53.6058H243.576V24.7432H248.168V42.0382L255.627 34.1948H261.773L253.706 42.3908Z" fill="white"/>
<path d="M35.6861 16.9282L55.7193 28.4112V51.49L35.7426 63.0436L15.7236 51.5888V28.5241L35.6861 16.9282ZM35.6861 0L28.3397 4.23206L8.33473 15.8279L0.988281 20.06V60.0811L8.33473 64.3132L28.3679 75.7962L35.7144 80.0282L43.0608 75.7962L63.0234 64.2285L70.3698 59.9965V19.9189L63.0234 15.6868L43.0043 4.23206L35.6579 0H35.6861Z" fill="white"/>
</g>
<defs>
<clipPath id="clip0_983_1464">
<rect width="261.463" height="80" fill="white" transform="translate(0.988281)"/>
</clipPath>
</defs>
</svg>
