<svg width="268" height="100" viewBox="0 0 268 100" fill="none" xmlns="http://www.w3.org/2000/svg">
<path opacity="1" fill-rule="evenodd" clip-rule="evenodd" d="M42.4342 8.25531C39.0863 8.84877 34.01 10.3678 29.9215 11.9997C26.6361 13.3109 20.0811 16.5484 16.6377 18.5604C13.2288 20.5522 11.2012 21.8341 11.0342 22.1026C10.9703 22.2056 10.9986 23.0105 11.0974 23.8916C11.196 24.7724 11.5696 28.5586 11.9273 32.3052C13.095 44.5331 16.0488 73.8054 16.1474 74.127C16.2002 74.2993 17.2304 75.1577 18.4368 76.0343C22.161 78.7402 24.2421 80.2581 27.7401 82.8197C32.224 86.1031 36.5341 89.2546 40.9612 92.4871C43.199 94.1211 44.6777 95.0873 44.7971 94.9938C44.904 94.9102 46.2245 93.9462 47.7315 92.8519C49.2385 91.7574 52.0744 89.6887 54.0335 88.2548C58.273 85.1517 61.2159 83.0026 67.8248 78.1838C70.5374 76.206 72.8348 74.5157 72.9301 74.4276C73.0255 74.3397 73.2483 72.8576 73.4254 71.134C74.348 62.1483 75.8117 47.5578 76.127 44.2036C76.3243 42.1055 76.904 36.3016 77.4155 31.3061L78.3455 22.2234L77.804 21.7693C76.2762 20.4877 68.7562 16.2957 64.1293 14.1462C57.8046 11.2081 52.8343 9.52053 46.9758 8.32179C44.9563 7.90853 44.4331 7.9009 42.4342 8.25531ZM47.7258 13.425C52.1966 14.4243 55.0422 15.3989 60.5181 17.8063C65.1224 19.8307 73.2635 24.3025 73.5107 24.943C73.6011 25.1773 72.8768 32.8851 71.1029 50.5615C69.2315 69.2123 69.0098 71.3373 68.9102 71.5764C68.8554 71.7077 67.4054 72.8369 65.688 74.0857C63.9705 75.3346 61.1136 77.4191 59.3394 78.7179C57.565 80.0167 54.7651 82.0603 53.1171 83.2593C51.469 84.4582 48.8843 86.3517 47.3735 87.4673L44.6264 89.4953L43.8044 88.9033C43.3521 88.5776 40.1052 86.2015 36.5889 83.6231C33.0725 81.0449 29.4968 78.4234 28.6429 77.798C27.7889 77.1726 25.5699 75.5462 23.7116 74.1838C21.8535 72.8214 20.2815 71.5676 20.2183 71.3976C20.1551 71.2276 20.0455 70.3936 19.9748 69.5444C19.848 68.0228 18.3869 53.4046 16.5915 35.6942C16.0866 30.7141 15.6736 26.2841 15.6736 25.8494C15.6736 25.2863 15.7916 24.9283 16.0846 24.6031C16.3107 24.3522 17.8108 23.4031 19.4182 22.4939C25.2641 19.1876 31.6828 16.2928 36.5037 14.7883C38.8904 14.0435 43.7854 12.8977 44.6563 12.88C44.9743 12.8735 46.3557 13.1187 47.7258 13.425ZM39.2375 18.2507C39.2375 18.4029 39.6896 22.1115 40.2422 26.4923C40.7947 30.8731 41.2468 34.5861 41.2468 34.7436C41.2468 34.943 41.0742 35.0301 40.6793 35.0301C40.2968 35.0301 40.1424 35.1042 40.2058 35.2571C40.2575 35.3821 40.6442 36.2488 41.0651 37.1832C41.486 38.1178 41.7605 38.9438 41.6756 39.019C41.5904 39.094 41.0687 39.2966 40.5162 39.4688C38.0084 40.2508 35.5477 42.1097 34.0498 44.3535C31.657 47.9384 30.6522 51.8029 30.6522 57.4204V60.2362L31.4989 60.9261C33.1741 62.2913 33.5367 64.0682 33.1231 68.8844C32.9675 70.6961 32.7907 72.6372 32.7302 73.198L32.6201 74.2176L36.5224 77.3408C38.6687 79.0587 41.0207 80.9524 41.7492 81.5494C42.4775 82.1465 43.0735 82.5563 43.0735 82.4604C43.0735 82.3644 42.4981 77.7139 41.7948 72.126C41.0916 66.5382 40.5162 61.9098 40.5162 61.8406C40.5162 61.7716 39.2415 61.0956 37.6836 60.3387L34.8511 58.9621L34.3839 57.3959C34.1269 56.5343 33.8843 55.7299 33.845 55.6082C33.8057 55.4865 33.8341 55.3497 33.908 55.3043C34.062 55.2097 42.5452 56.0609 42.6684 56.1833C42.7127 56.2277 42.6132 57.6522 42.447 59.3492C42.0973 62.9173 42.0721 62.7961 43.6537 65.1454L44.6382 66.6079L45.8882 64.6967L47.1382 62.7854L46.8249 59.5203C46.6529 57.7245 46.5478 56.2195 46.5918 56.1757C46.7053 56.0629 55.1956 55.2166 55.3405 55.3036C55.4462 55.3672 54.8129 57.8969 54.4991 58.6645C54.4335 58.8249 53.1514 59.5567 51.6501 60.2904C50.1487 61.0241 48.885 61.751 48.8419 61.9058C48.656 62.5732 48.4932 63.7689 47.3603 72.7925C46.7033 78.0258 46.2042 82.3459 46.2512 82.3926C46.3363 82.4772 56.3207 74.5549 56.5073 74.2547C56.5614 74.1678 56.4642 72.3982 56.2914 70.322C55.7421 63.7162 55.8618 62.8891 57.626 61.1063L58.6451 60.0767L58.5464 56.3181C58.4719 53.475 58.3592 52.1837 58.0838 51.0156C57.0632 46.6884 55.0992 43.3115 52.4869 41.3923C51.3479 40.5556 49.6656 39.6949 48.5535 39.3798C48.1014 39.2517 47.6665 39.0918 47.587 39.0246C47.5076 38.9576 47.8157 38.1027 48.272 37.1253C48.7283 36.1478 49.1015 35.2818 49.1015 35.201C49.1015 35.1203 48.8754 35.0282 48.5992 34.9966C47.9942 34.9274 47.935 35.9383 49.1028 26.4064C49.6044 22.3126 50.0148 18.7442 50.0148 18.4763V17.9891L47.3307 18.9179L44.6468 19.8467L41.9421 18.9102C39.8098 18.172 39.2375 18.0325 39.2375 18.2507ZM201.033 22.1201C196.445 23.1112 193.293 26.1848 192.413 30.5265C192.016 32.486 192.007 42.1645 192.4 44.233C192.786 46.2643 193.873 48.3608 195.249 49.7295C198.258 52.7221 203.993 53.8918 209.475 52.6313C214.099 51.5682 217.102 48.58 217.983 44.1649C218.232 42.9177 218.269 41.6962 218.21 36.7171C218.141 30.8151 218.135 30.7477 217.645 29.2794C216.712 26.4881 214.984 24.5228 212.314 23.2151C210.082 22.1219 209.077 21.9148 205.647 21.8401C203.187 21.7866 202.338 21.8381 201.033 22.1201ZM94.1205 22.7602L93.6721 23.206V37.461V51.7159L94.1534 52.0923C94.5993 52.4411 94.8735 52.4689 97.8778 52.4689C100.798 52.4689 101.164 52.4343 101.552 52.1219L101.983 51.7748L102.037 46.3998L102.09 41.0246H102.969C104.608 41.0246 104.793 41.2557 107.555 46.7388C109.304 50.2133 110.17 51.7433 110.536 52.0067C111.006 52.3457 111.369 52.3831 114.702 52.4373C118.776 52.5032 119.248 52.3977 119.243 51.4202C119.242 51.1457 118.421 49.3862 117.401 47.4734C116.39 45.5751 114.891 42.7604 114.072 41.2183C113.161 39.5064 112.242 38.0464 111.712 37.4689C111.234 36.9487 110.843 36.4626 110.843 36.3883C110.843 36.3142 111.451 35.3038 112.194 34.143C116.254 27.8031 118.414 24.3384 118.638 23.8087C118.912 23.1588 118.755 22.6265 118.231 22.4265C118.069 22.3648 116.402 22.3144 114.527 22.3146C111.646 22.3148 111.018 22.3642 110.477 22.6325C109.788 22.9751 109.076 23.9936 105.18 30.2115C103.303 33.2072 103.027 33.565 102.585 33.5706L102.091 33.5768L102.037 28.2925L101.983 23.0084L101.552 22.6612C101.164 22.3486 100.798 22.3143 97.8449 22.3143C94.6101 22.3143 94.5631 22.3199 94.1205 22.7602ZM130.438 22.7548C130.011 23.1117 129.69 23.7631 129.021 25.6264C127.368 30.2353 122.868 42.5932 121.408 46.5335C119.512 51.6518 119.502 51.6856 119.9 52.1221C120.188 52.4387 120.499 52.4689 123.481 52.4689C126.792 52.4689 127.748 52.3135 128.123 51.7154C128.207 51.5802 128.566 50.6115 128.921 49.5624L129.566 47.655H134.213H138.86L139.51 49.6351C140.435 52.4507 140.271 52.3639 144.808 52.4338C147.955 52.4823 148.464 52.4512 148.722 52.1938C149.247 51.6725 149.621 52.8507 144.303 38.2998C142.897 34.4533 141.198 29.7939 140.528 27.9455C139.857 26.0972 139.183 24.2416 139.028 23.8218C138.516 22.4271 138.47 22.4122 134.506 22.3491L130.989 22.2932L130.438 22.7548ZM151.843 22.7602L151.395 23.206V37.3916V51.5771L151.843 52.0229C152.287 52.4643 152.326 52.4689 155.679 52.4689C158.823 52.4689 159.093 52.4427 159.432 52.1056C159.791 51.7484 159.797 51.5001 159.797 37.4742V23.206L159.349 22.7602C158.906 22.3195 158.861 22.3143 155.596 22.3143C152.331 22.3143 152.286 22.3195 151.843 22.7602ZM164.825 22.7479L164.364 23.206V37.3916V51.5771L164.812 52.0229C165.255 52.4636 165.3 52.4689 168.565 52.4689C171.83 52.4689 171.875 52.4636 172.318 52.0229L172.767 51.5771V47.0274V42.4779H173.686C174.877 42.4779 175.709 42.8348 176.294 43.5972C176.552 43.9342 177.478 45.7208 178.351 47.5675C179.224 49.414 180.113 51.1195 180.325 51.3575C181.179 52.3108 181.887 52.4605 185.571 52.4649C188.632 52.4685 188.997 52.4362 189.27 52.1366C189.436 51.9539 189.572 51.6144 189.572 51.3822C189.572 50.9677 186.106 44.1033 184.968 42.2641L184.388 41.3267L184.834 41.0504C185.752 40.4806 187.333 38.7066 187.803 37.7176C188.071 37.1543 188.414 36.2201 188.566 35.6419C188.929 34.2533 188.928 30.9036 188.563 29.4823C187.689 26.0752 185.419 23.751 181.991 22.7533C181.042 22.4768 179.853 22.4245 173.09 22.362L165.285 22.2899L164.825 22.7479ZM222.829 22.544C222.571 22.6739 222.319 23.0154 222.231 23.3557C222.146 23.6787 222.1 30.205 222.128 37.8588L222.178 51.7744L222.609 52.1217C222.995 52.4327 223.36 52.4689 226.105 52.4689C230.342 52.4689 230.016 52.8429 230.093 47.8984C230.187 41.8722 229.767 37.3196 228.751 33.3498C228.675 33.0531 228.697 32.8502 228.806 32.8502C228.906 32.8502 229.344 33.8925 229.779 35.1663C230.214 36.4401 230.947 38.2181 231.407 39.1173C232.379 41.0147 239.274 51.6799 239.833 52.151C240.162 52.4276 240.631 52.4689 243.454 52.4689C246.458 52.4689 246.733 52.4411 247.178 52.0923L247.66 51.7159V37.3916V23.0672L247.178 22.6908C246.736 22.3446 246.456 22.3143 243.7 22.3143C240.76 22.3143 240.693 22.323 240.254 22.7602L239.805 23.206L239.806 28.1644C239.806 30.8914 239.896 33.8584 240.005 34.7576C240.166 36.0844 240.876 39.1805 241.556 41.5242C241.621 41.7498 241.594 41.9329 241.496 41.9329C241.398 41.9329 240.964 41.0134 240.533 39.8893C239.372 36.8649 238.653 35.532 235.646 30.8384C231.278 24.0214 230.526 22.905 230.089 22.6013C229.751 22.3658 229.101 22.3148 226.475 22.317C224.302 22.3188 223.131 22.3916 222.829 22.544ZM207.377 29.4464C208.315 29.7254 209.34 30.7508 209.624 31.6949C209.778 32.2077 209.847 34.0379 209.844 37.5943C209.839 43.3329 209.772 43.7142 208.587 44.7062C206.911 46.1084 203.35 46.0574 201.689 44.6074C200.559 43.6205 200.532 43.4506 200.532 37.3901C200.532 32.3267 200.558 31.8765 200.889 31.2309C201.505 30.0309 202.331 29.5101 204.185 29.1534C204.817 29.0318 206.505 29.1868 207.377 29.4464ZM179.08 30.1327C180.247 30.8498 180.606 33.1174 179.74 34.3034C179.069 35.2213 178.396 35.3928 175.461 35.393L172.767 35.3934V32.5777V29.7621H175.622C178.177 29.7621 178.541 29.801 179.08 30.1327ZM134.407 30.42C134.407 31.7603 135.077 35.0406 135.88 37.6283C136.375 39.2274 136.781 40.6457 136.781 40.7801C136.781 40.9734 136.245 41.0246 134.224 41.0246C132.23 41.0246 131.667 40.972 131.667 40.7852C131.667 40.6535 132.031 39.3967 132.477 37.9921C133.327 35.316 133.859 32.9178 133.859 31.763C133.859 30.8433 134.051 29.9437 134.247 29.9437C134.335 29.9437 134.407 30.1581 134.407 30.42ZM240.18 58.4794C238.589 58.6842 236.829 59.5603 236.158 60.4818C235.205 61.7908 235.043 63.538 235.724 65.1821C236.398 66.8083 237.75 67.4886 241.5 68.0875C242.993 68.3258 243.599 68.5798 243.741 69.027C244.062 70.0323 243.171 70.5288 241.242 70.4205C239.951 70.3478 239.922 70.3347 239.229 69.5369L238.527 68.7269L236.928 69.2777C235.436 69.792 235.326 69.8643 235.277 70.3676C235.201 71.1422 236.121 72.4926 237.122 73.0763C238.967 74.1513 242.298 74.3451 244.73 73.5191C246.25 73.0027 247.477 71.8416 247.831 70.584C248.281 68.9876 247.797 66.7651 246.807 65.8744C246.131 65.2666 244.433 64.662 242.545 64.357C240.149 63.9701 239.622 63.7263 239.622 63.0043C239.622 62.1719 240.263 61.8553 241.754 61.9498C242.92 62.0235 243 62.0593 243.631 62.7883C243.994 63.2072 244.394 63.5498 244.521 63.5498C244.648 63.5498 245.406 63.2522 246.206 62.8887C247.767 62.1788 247.895 61.9806 247.401 61.0429C246.675 59.6635 245.059 58.7421 242.894 58.4722C242.054 58.3675 241.365 58.2922 241.363 58.3049C241.36 58.3176 240.828 58.3961 240.18 58.4794ZM93.9918 58.8413C93.6958 59.0128 93.6721 59.5628 93.6721 66.2642C93.6721 72.6964 93.7042 73.5142 93.9611 73.6122C94.12 73.6728 96.3229 73.7224 98.8565 73.7224C102.196 73.7224 103.523 73.6625 103.682 73.5044C103.975 73.2132 103.975 70.5985 103.682 70.3073C103.531 70.1567 102.598 70.0893 100.668 70.0893H97.8734V64.6526C97.8734 59.9525 97.8345 59.1774 97.5864 58.9305C97.2513 58.5973 94.5297 58.5298 93.9918 58.8413ZM142.785 58.8297C142.62 58.9252 142.136 59.9648 141.709 61.1403C141.282 62.3156 140.114 65.5069 139.113 68.2319C138.112 70.9569 137.34 73.307 137.397 73.4545C137.479 73.6657 137.884 73.7224 139.311 73.7224C141.358 73.7224 141.433 73.6814 141.912 72.2919L142.201 71.4517L144.588 71.4012L146.974 71.3506L147.215 72.2861C147.554 73.6007 147.851 73.7475 150.047 73.6839C151.536 73.6407 151.857 73.5807 151.904 73.3366C151.935 73.1744 151.39 71.4986 150.692 69.6127C149.995 67.7267 148.865 64.6348 148.181 62.7414C147.497 60.8482 146.79 59.1519 146.609 58.9721C146.341 58.706 145.982 58.6462 144.682 58.6506C143.803 58.6536 142.949 58.7343 142.785 58.8297ZM187.682 58.9158C187.412 59.1846 187.38 59.9508 187.38 66.2512C187.38 71.4808 187.436 73.3424 187.599 73.5044C187.756 73.6605 188.934 73.7224 191.743 73.7224C196.289 73.7224 197.303 73.538 198.539 72.4854C199.498 71.6692 199.802 70.9482 199.797 69.5048C199.792 68.0899 199.344 67.0455 198.451 66.3683L197.792 65.8682L198.321 65.2695C199.052 64.4412 199.318 63.5251 199.201 62.2397C199.066 60.761 198.478 59.9183 197.116 59.2533C196.063 58.7392 196.032 58.7356 192.02 58.6758C188.458 58.6226 187.948 58.6509 187.682 58.9158ZM194.687 62.4599C194.888 62.6597 195.052 63.0275 195.052 63.2773C195.052 64.1356 194.478 64.458 192.951 64.458H191.581V63.2773V62.0965H192.951C194.078 62.0965 194.386 62.1612 194.687 62.4599ZM144.819 63.5401C144.819 64.1125 145.155 65.5004 145.843 67.7732C145.928 68.055 145.793 68.0911 144.648 68.0911C143.923 68.0911 143.357 68.0128 143.357 67.9122C143.357 67.8137 143.552 67.0577 143.791 66.2319C144.029 65.4061 144.282 64.2593 144.352 63.6835C144.493 62.534 144.819 62.4337 144.819 63.5401ZM195.13 68.1949C195.458 68.5207 195.508 69.4001 195.228 69.9197C195.062 70.229 194.833 70.271 193.31 70.271H191.581V69.0902V67.9095H193.212C194.451 67.9095 194.912 67.9781 195.13 68.1949Z" fill="white"/>
</svg>
