<svg width="100" height="100" viewBox="0 0 100 100" fill="none" xmlns="http://www.w3.org/2000/svg">
<g opacity="1">
<path fill-rule="evenodd" clip-rule="evenodd" d="M11.9727 18.9667C11.9727 15.1191 15.1048 12 18.9684 12H80.9765C84.8406 12 87.9727 15.1191 87.9727 18.9667V59.1833H67.3031V64.25H87.9727V68.3665H72.7091V73.4335H87.9727V77.8665H67.3031V82.9335H87.7091C86.8786 85.8575 84.1789 88 80.9765 88H62.851V58.8666H57.1273L49.8136 70.2665L42.3408 58.8666H36.7759V79.6085H42.6588L42.9768 71.2165L49.8136 79.6085L57.1273 71.2165V88H18.9684C15.1048 88 11.9727 84.881 11.9727 81.0335V18.9667Z" fill="white"/>
</g>
</svg>
