<svg width="297" height="80" viewBox="0 0 297 80" fill="none" xmlns="http://www.w3.org/2000/svg">
<g clip-path="url(#clip0_983_1477)">
<path d="M82.7559 9.63867H96.3248C99.7726 9.63867 102.294 10.5655 103.925 12.1595C105.519 13.5312 106.223 15.3847 106.223 17.2012C106.223 17.9056 106.223 18.7953 106.001 19.4997C105.556 20.6489 104.852 21.7981 103.925 22.7249C103.48 23.1697 102.998 23.4292 102.553 23.6516C104.147 24.0965 105.556 25.0233 106.705 26.1725C107.632 27.3217 108.077 28.6934 108.077 30.7694C108.077 31.9186 107.855 33.2902 107.373 34.217C106.928 35.1438 106.001 36.0706 105.074 36.7378C103.925 37.4422 102.776 37.8871 101.626 38.3319C100.255 38.7768 98.6233 38.7768 97.0291 38.7768H83.0154V9.63867H82.7559ZM95.1755 21.6127C96.3247 21.6127 97.474 21.3903 98.6233 20.9084C99.5501 20.4635 99.995 19.5367 99.995 18.6099C99.995 17.6832 99.5501 16.7564 98.8457 16.3115C97.9189 15.6072 96.7696 15.3847 95.6204 15.6072H89.1696V21.7981H95.1384V21.6127H95.1755ZM96.7696 33.3273C97.9189 33.3273 99.0682 33.1048 100.217 32.6229C101.144 32.1781 101.589 31.2513 101.367 30.1021C101.367 29.1753 100.922 28.2485 100.217 27.8036C99.5131 27.3588 98.1414 26.8769 96.5472 26.8769H88.9471V33.3273H96.7696Z" fill="white"/>
<path d="M116.084 9.63867H122.535V39.0733H116.084V9.63867Z" fill="white"/>
<path d="M132.395 9.63867H138.4L152.192 27.8036V9.63867H158.605V39.0733H153.082L138.623 20.4635V39.0733H132.395V9.63867Z" fill="white"/>
<path d="M178.144 9.41602H184.113L196.755 39.0731H190.082L187.338 32.4003H174.919L172.175 39.0731H165.502L178.144 9.41602ZM185.04 26.9137L181.147 17.2751L177.254 26.9137H185.04Z" fill="white"/>
<path d="M203.689 9.63867H209.658L223.45 27.8036V9.63867H229.9V39.0733H224.376L210.103 20.4635V39.0733H203.689V9.63867Z" fill="white"/>
<path d="M253.329 39.5553C251.253 39.5553 249.177 39.1105 247.36 38.4061C243.69 36.8121 240.909 34.0317 239.315 30.3616C238.611 28.5081 238.166 26.4691 238.166 24.3931C238.166 20.5007 239.76 16.5711 242.541 13.6054C243.912 12.2337 245.544 11.0845 247.36 10.3802C249.436 9.45339 251.512 9.23096 253.552 9.23096C254.701 9.23096 256.072 9.23096 257.222 9.45339C258.371 9.67581 259.298 9.89824 260.225 10.3802C261.152 10.825 262.078 11.307 262.746 11.7518C263.45 12.1967 264.34 12.901 265.044 13.6054L261.152 18.4247C260.002 17.4979 258.853 16.5711 257.704 15.9038C256.554 15.1994 255.183 14.977 253.811 14.977C252.662 14.977 251.512 15.1994 250.363 15.6814C249.214 16.1262 248.287 16.8306 247.62 17.7574C246.915 18.6842 246.248 19.6109 245.766 20.7602C245.321 21.9094 245.062 23.0586 245.062 24.2078C245.062 25.357 245.284 26.7286 245.766 27.8779C246.211 29.0271 246.693 29.9538 247.62 30.8806C249.214 32.7342 251.512 33.6239 253.811 33.6239C255.183 33.6239 256.814 33.4015 258.186 32.6971C259.335 31.9928 260.707 31.1031 261.634 30.1763L265.786 34.3283C265.081 35.0326 264.192 35.9223 263.487 36.6267C262.56 37.3311 261.634 37.7759 260.744 38.2208C259.817 38.6656 258.668 39.1475 257.518 39.37C255.85 39.5553 254.478 39.5553 253.329 39.5553Z" fill="white"/>
<path d="M273.09 9.63867H295.186V15.3847H279.318V21.3903H293.332V27.1364H279.318V33.3273H295.408V39.0733H273.09V9.63867Z" fill="white"/>
<path d="M91.0228 68.0261C89.4286 68.0261 87.7974 67.8037 86.4257 67.0994C85.0539 66.6545 83.6822 65.7277 82.2734 64.5785L84.572 62.0577C85.4988 62.9844 86.4257 63.4293 87.5749 64.1337C88.7242 64.5785 89.8735 64.838 91.0228 64.838C91.9496 64.838 92.8765 64.6156 93.7662 64.1337C94.4706 63.6888 94.6931 62.9844 94.6931 62.2801C94.6931 62.0577 94.6931 61.5757 94.4706 61.3533C94.2482 61.1309 94.0257 60.6489 93.7662 60.4265C93.3213 60.2041 92.8394 59.9817 92.3945 59.7222C91.6901 59.4997 90.8003 59.2773 90.0959 59.0178C89.1691 58.7954 88.0198 58.5729 87.093 58.091C86.3886 57.8686 85.4988 57.3867 85.0169 56.9418C84.572 56.497 84.09 56.015 83.6452 55.3477C83.2003 54.421 83.2003 53.4942 83.2003 52.8269C83.2003 51.9001 83.4227 51.2328 83.6452 50.306C83.8676 49.6017 84.572 48.9344 85.0169 48.4525C85.7213 48.0076 86.3886 47.5257 87.3154 47.3033C88.2423 47.0808 89.1691 46.8584 90.0589 46.8584C91.4306 46.8584 92.8023 47.0808 94.2111 47.5628C95.3604 48.0076 96.5097 48.712 97.6589 49.4163L95.8053 52.1596C94.8784 51.4552 93.9516 51.0104 93.0618 50.5655C92.135 50.1207 91.2081 50.1207 90.3184 50.1207C89.3915 50.1207 88.4647 50.3431 87.7974 50.825C87.3525 51.2699 86.8706 51.9742 86.8706 52.6786C86.8706 53.1235 86.8705 53.383 87.093 53.8278C87.3154 54.0502 87.5379 54.5322 87.7974 54.7546C88.2423 54.977 88.7242 55.1995 89.3915 55.459C90.0959 55.6814 90.7633 55.9038 91.9125 56.1633C92.8394 56.3857 93.7662 56.6082 94.9155 57.0901C95.6199 57.3125 96.2872 57.7945 96.9916 58.2393C97.4365 58.6842 97.9184 59.3885 98.1409 59.8334C98.3633 60.5377 98.5858 61.205 98.5858 62.1318C98.5858 63.0586 98.3633 63.9854 98.1409 64.6526C97.696 65.357 97.2141 66.0243 96.5467 66.7286C95.8423 67.1735 95.175 67.6554 94.2482 67.8779C93.0989 67.8037 91.9496 68.0261 91.0228 68.0261Z" fill="white"/>
<path d="M102.516 47.1177H106.445L112.637 56.7933L119.087 47.1177H122.98V67.8035H119.31V52.8637L112.859 62.5394H112.637L106.186 52.8637V67.8035H102.516V47.1177Z" fill="white"/>
<path d="M135.398 46.8955H138.845L147.817 67.5813H143.924L141.848 62.5396H132.209L130.133 67.5813H126.463L135.398 46.8955ZM140.699 59.5368L137.029 51.2699L133.581 59.5368H140.699Z" fill="white"/>
<path d="M151.49 47.1177H160.684C161.834 47.1177 162.983 47.3401 164.132 47.5625C165.059 47.785 165.986 48.4893 166.653 49.1566C167.098 49.6015 167.58 50.3058 168.025 51.2326C168.247 51.937 168.47 52.8267 168.47 53.7535C168.47 54.4578 168.247 55.3475 168.025 56.0519C167.802 56.7562 167.32 57.2011 167.098 57.9054C166.653 58.3503 166.171 58.8322 165.504 59.2771C164.799 59.7219 164.132 59.9814 163.428 60.2039L168.952 68.0259H164.577L159.535 60.9082H154.938V68.0259H151.268L151.49 47.1177ZM160.462 57.2382C161.611 57.2382 162.76 57.0157 163.465 56.3114C164.169 55.607 164.614 54.7173 164.614 53.7905C164.614 52.8637 164.169 51.937 163.465 51.2697C162.538 50.5653 161.389 50.3429 160.239 50.3429H154.938V57.2382H160.462Z" fill="white"/>
<path d="M177.923 50.3429H171.25V47.1177H188.044V50.3429H181.371V67.8035H177.701L177.923 50.3429Z" fill="white"/>
<path d="M210.323 68.0259C208.952 68.0259 207.58 67.8035 206.171 67.0991C203.65 65.9499 201.574 64.0963 200.647 61.5755C200.202 60.2038 199.72 58.8322 199.943 57.4235C199.943 56.0518 200.165 54.6802 200.647 53.2715C201.574 50.7506 203.65 48.6746 206.171 47.5254C207.543 47.0806 208.915 46.5986 210.546 46.5986C211.473 46.5986 212.399 46.5986 213.067 46.8211C213.771 47.0435 214.438 47.2659 215.143 47.5254C215.847 47.7478 216.292 48.2298 216.997 48.4522C217.441 48.8971 218.146 49.379 218.591 49.8238L216.292 52.5671C215.588 51.8628 214.698 51.1955 213.771 50.7136C212.844 50.2687 211.695 50.0092 210.546 50.0092C209.619 50.0092 208.692 50.2316 207.802 50.4541C206.876 50.8989 206.208 51.3808 205.504 52.0481C204.799 52.7525 204.355 53.4198 204.132 54.3466C203.91 55.2733 203.687 56.2001 203.687 57.0898C203.687 58.0166 203.91 58.9434 204.132 59.8331C204.355 60.7599 204.836 61.4272 205.504 62.1315C206.208 62.8359 206.876 63.2807 207.802 63.7256C208.729 64.1705 209.656 64.43 210.546 64.1705C211.695 64.1705 212.844 63.948 213.771 63.4661C214.698 63.0212 215.625 62.3169 216.515 61.3901L218.813 63.6885C218.368 64.1334 217.664 64.8377 217.219 65.2826C216.515 65.7275 216.07 66.2094 215.365 66.4318C214.661 66.6542 213.994 67.1362 213.067 67.1362C212.177 68.0259 211.25 68.0259 210.323 68.0259Z" fill="white"/>
<path d="M222.52 47.1177H225.967V55.6441H235.866V47.1177H239.536V67.8035H235.866V59.0917H225.967V67.8035H222.52V47.1177Z" fill="white"/>
<path d="M252.179 46.8955H255.627L264.598 67.5813H260.706L258.63 62.5396H248.991L246.914 67.5813H243.244L252.179 46.8955ZM257.221 59.5368L253.773 51.2699L250.325 59.5368H257.221Z" fill="white"/>
<path d="M268.27 47.1177H271.94V67.8035H268.27V47.1177Z" fill="white"/>
<path d="M277.463 47.1177H280.688L291.736 61.3901V47.1177H295.406V67.8035H292.403L281.133 53.0862V67.8035H277.463V47.1177Z" fill="white"/>
<path d="M42.3071 66.4319V75.4031L34.4846 80L26.8846 75.4031V66.4319L34.4846 71.0287L42.3071 66.4319ZM0.451172 35.4032L8.05123 40V55.3846L21.1382 63.2067V72.1779L0.451172 59.9815V35.4032ZM68.481 35.4032V60.0185L47.5716 72.215V63.2437L60.6585 55.4217V40.0371L68.481 35.4032ZM47.5716 23.2067L55.3941 27.8035V36.7748L42.3071 44.5969V60.241L34.7071 64.8378L27.107 60.241V44.5969L13.5381 36.7748V27.8035L21.3606 23.2067L34.4475 31.0287L47.5716 23.2067ZM13.5381 43.2252L21.1382 47.8221V56.7933L13.5381 52.1965V43.2252ZM55.3941 43.2252V52.1965L47.794 56.7933V47.8221L55.3941 43.2252ZM8.05123 15.3846L15.8737 19.9815L8.05123 24.6154V33.5867L0.451172 28.9527V19.9815L8.05123 15.3846ZM60.918 15.3846L68.7405 19.9815V28.9527L60.918 33.5496V24.6154L53.3179 20.0185L60.918 15.3846ZM34.4846 15.3846L42.3071 19.9815L34.4846 24.6154L26.8846 19.9815L34.4846 15.3846ZM34.4846 0L55.3941 12.1965L47.794 16.7933L34.7071 8.97127L21.3606 16.7933L13.7976 12.1965L34.4846 0Z" fill="white"/>
</g>
<defs>
<clipPath id="clip0_983_1477">
<rect width="295.61" height="80" fill="white" transform="translate(0.451172)"/>
</clipPath>
</defs>
</svg>
