<svg width="90" height="96" viewBox="0 0 90 96" fill="none" xmlns="http://www.w3.org/2000/svg">
<path opacity="1" fill-rule="evenodd" clip-rule="evenodd" d="M6.03086 0.186181C4.2781 0.6 2.21118 2.18179 1.35575 3.76406C0.475153 5.39258 0.468902 5.48369 0.468902 16.5314C0.468902 27.5895 0.474372 27.6686 1.36153 29.3094C2.32653 31.0942 4.41237 32.5298 6.57369 32.8969C9.86632 33.4559 13.1414 31.5598 14.4054 28.3625C14.721 27.5643 14.7657 27.1369 14.816 24.4323L14.8726 21.3978L13.2585 21.4428L11.6444 21.4878L11.5662 24.2545C11.4887 26.9988 11.4843 27.0274 11.0151 27.7906C10.4798 28.6613 9.40821 29.4129 8.45055 29.5892C6.87191 29.8798 5.11916 29.1195 4.30233 27.7899L3.82937 27.0197L3.78701 16.8879C3.75887 10.1804 3.79998 6.54892 3.90846 6.14328C4.14556 5.25695 4.96973 4.25545 5.82798 3.81079C7.83128 2.7731 10.1289 3.50727 11.1364 5.50713C11.5531 6.3343 11.5662 6.43862 11.5662 8.92829V11.4963H13.2218H14.8773L14.8239 8.45878L14.7704 5.42106L14.1707 4.20022C12.635 1.07377 9.27972 -0.580877 6.03086 0.186181ZM21.8821 16.5314V33.0527H23.5232H25.1644V25.3401V17.6275L29.111 17.6695L33.0576 17.7115L33.0982 25.3821L33.1387 33.0527H34.7003H36.2617V16.5314V0.0101114H34.7003H33.1389L33.0982 7.12999L33.0576 14.2499L29.111 14.2919L25.1644 14.3339V7.172V0.0101114H23.5232H21.8821V16.5314ZM46.2891 7.83805C45.6682 12.1435 44.6001 19.5515 43.9152 24.3005C43.2304 29.0496 42.6701 32.9616 42.6701 32.9938C42.6701 33.0262 43.3326 33.0527 44.1426 33.0527H45.6149L45.7009 32.62C45.7481 32.382 46.0405 30.3836 46.3508 28.179C46.6611 25.9746 46.9486 24.1159 46.9899 24.0487C47.1049 23.8615 51.4229 23.8972 51.4229 24.0855C51.4229 24.1729 51.7042 26.1634 52.0481 28.509C52.392 30.8545 52.6733 32.8365 52.6733 32.9132C52.6733 32.9899 53.3415 33.0527 54.1582 33.0527C55.2416 33.0527 55.643 32.9995 55.6433 32.856C55.6436 32.6064 51.1286 0.84121 51.025 0.364139C50.9507 0.0225417 50.8865 0.0101114 49.1828 0.0101114H47.4175L46.2891 7.83805ZM62.6765 16.5314V33.0527H64.3177H65.9589V16.5314V0.0101114H64.3177H62.6765V16.5314ZM84.0518 10.0327L84.0116 20.0553L78.5639 10.19C75.5676 4.76415 73.0884 0.324802 73.0543 0.324802C73.0202 0.324802 72.9924 7.68857 72.9924 16.6887V33.0527H74.6335H76.2747V23.0297C76.2747 17.0749 76.3319 13.0676 76.4155 13.1563C76.5373 13.2855 79.3885 18.4091 85.6488 29.7484C86.5329 31.3494 87.2822 32.6889 87.3141 32.7249C87.3459 32.7609 87.372 25.4148 87.372 16.4003V0.0101114H85.732H84.0921L84.0518 10.0327ZM50.0865 14.876L50.8929 20.6224H49.2042C48.2753 20.6224 47.5127 20.5693 47.5096 20.5044C47.4924 20.156 49.149 8.99753 49.2089 9.05779C49.2481 9.09712 49.643 11.7154 50.0865 14.876ZM82.7612 37.3617C81.6516 37.6333 80.3999 38.3623 79.736 39.1237C79.2144 39.7216 71.7362 52.5909 71.0591 54.0556C70.6873 54.8599 70.5513 56.7272 70.7928 57.7103C70.9719 58.4383 71.8592 60.1161 72.0654 60.1161C72.1208 60.1161 72.4941 59.5573 72.8945 58.8745C73.5288 57.7932 73.6023 57.5787 73.464 57.2121C73.2437 56.629 73.2653 55.7958 73.5165 55.1907C73.752 54.6233 81.1397 41.7126 81.6072 41.0515C82.1144 40.3343 83.166 39.9301 84.3303 40.0046C85.4419 40.0759 85.8659 40.3115 86.6596 41.2988C87.0996 41.8461 87.1376 41.9888 87.1376 43.0981V44.3029L84.3422 49.1806C82.8045 51.8633 81.1164 54.8245 80.5909 55.7612C78.9512 58.6826 78.4387 59.2156 77.0371 59.4565C76.396 59.5666 76.33 59.6305 75.7037 60.7489C75.3299 61.4165 75.1034 61.9855 75.1801 62.0643C75.2547 62.1405 75.8653 62.2012 76.5376 62.1992C79.098 62.1911 80.6549 61.0505 82.5006 57.8306C83.045 56.8809 84.8544 53.7272 86.5211 50.8226C89.8635 44.9983 90.1433 44.3255 89.9559 42.564C89.6745 39.9194 87.7031 37.8117 85.0338 37.3022C84.025 37.1096 83.7631 37.1164 82.7612 37.3617ZM1.0941 57.4357V73.9625H7.11715H13.1402L13.0956 72.3497L13.0511 70.7369L8.71454 70.695L4.37798 70.6532L4.33812 55.8259L4.29827 40.9986L2.69619 40.9538L1.0941 40.9089V57.4357ZM24.147 41.1166C24.1087 41.2249 23.0543 48.4292 21.8039 57.1265C20.5535 65.8238 19.4891 73.1698 19.4385 73.4511L19.3464 73.9625H20.8382C22.1254 73.9625 22.3404 73.9247 22.4066 73.6871C22.4487 73.5357 22.7466 71.5176 23.0684 69.2028L23.6536 64.9938H25.8939C27.126 64.9938 28.1341 65.0221 28.1341 65.0566C28.1341 65.0912 28.4155 67.072 28.7593 69.4588C29.1032 71.8454 29.3845 73.835 29.3845 73.8803C29.3845 73.9255 30.0527 73.9625 30.8694 73.9625C31.8592 73.9625 32.3542 73.9038 32.3542 73.7866C32.3542 73.6899 31.4024 66.9456 30.239 58.7994C29.0757 50.6533 28.0542 43.4571 27.9691 42.8081C27.6955 40.7206 27.91 40.9199 25.9381 40.9199C24.7024 40.9199 24.1971 40.9755 24.147 41.1166ZM39.492 41.0249C39.4346 41.0825 39.3878 48.517 39.3878 57.5461V73.9625L43.4906 73.9587C45.7473 73.9565 47.9022 73.8832 48.2794 73.7955C51.059 73.1506 53.347 70.6192 53.7618 67.73C53.9612 66.3411 53.9623 63.0325 53.7637 61.6108C53.5713 60.2339 52.7679 58.5414 51.8787 57.6395L51.221 56.9723L51.9573 56.1798C53.4792 54.5418 54.038 52.4195 53.8829 48.8659C53.7938 46.8216 53.4593 45.5105 52.731 44.349C51.7014 42.7071 49.6841 41.4053 47.6717 41.0844C46.557 40.9066 39.6592 40.8564 39.492 41.0249ZM48.3938 44.7348C49.2675 45.1912 49.8829 45.8356 50.2908 46.7214C50.5018 47.1798 50.5546 47.7893 50.5586 49.8099C50.5632 52.312 50.5604 52.3327 50.0984 53.1724C49.8427 53.6372 49.4168 54.1837 49.1522 54.387C48.1795 55.1337 47.6815 55.2384 45.0977 55.2384H42.6701V49.8362C42.6701 46.8649 42.7227 44.3801 42.7873 44.314C42.8518 44.2481 43.9595 44.2218 45.249 44.2555C47.4186 44.3121 47.6532 44.348 48.3938 44.7348ZM26.7985 55.7165C27.1893 58.5324 27.5089 61.0284 27.5089 61.263V61.6895H25.8678C24.5758 61.6895 24.2266 61.6433 24.2266 61.4722C24.2266 61.3526 24.5783 58.8022 25.0081 55.8046C25.4379 52.8071 25.7943 50.2673 25.8002 50.1608C25.8421 49.3944 26.1897 51.3293 26.7985 55.7165ZM77.2574 54.9237C75.7148 55.4758 74.682 56.4007 73.7434 58.0706C73.5246 58.46 71.672 61.6817 69.6266 65.2298C67.4855 68.9441 65.7805 72.0814 65.6077 72.625C64.9562 74.6732 65.5842 77.0619 67.2025 78.6912C69.0258 80.5264 71.7887 80.9876 74.1695 79.8538C75.7489 79.1017 76.2005 78.4616 80.7061 70.5909C83.0144 66.5584 85.0013 62.9302 85.1216 62.528C85.4053 61.5786 85.4005 59.9059 85.1112 58.9253C84.8648 58.0906 84.0327 56.6545 83.7954 56.6545C83.7157 56.6545 83.3257 57.2121 82.9289 57.8937C82.2995 58.9745 82.2276 59.1871 82.367 59.5561C82.648 60.3003 82.5567 61.5056 82.1593 62.2961C81.9572 62.6981 80.0911 66.0008 78.0125 69.6355C75.3211 74.3415 74.0535 76.4095 73.6093 76.8192C72.2937 78.0321 70.4147 77.9419 69.1482 76.6049C68.3273 75.7384 68.0908 75.1191 68.1779 74.0625C68.2398 73.3112 68.577 72.6433 71.2959 67.8875C72.9727 64.9546 74.6473 61.9885 75.0173 61.2962C76.4706 58.5769 77.5825 57.4412 78.7921 57.4412C79.1108 57.4412 79.3088 57.2174 79.9168 56.1703C80.3226 55.4712 80.6145 54.834 80.5655 54.7542C80.4068 54.4958 78.1261 54.6126 77.2574 54.9237ZM48.4044 59.0587C49.2156 59.4823 49.7233 60.0264 50.2713 61.0601C50.5262 61.5408 50.5633 61.9808 50.5633 64.5217C50.5633 67.9942 50.4238 68.5293 49.2394 69.6013C48.2253 70.5191 47.6618 70.6582 44.9574 70.6582H42.6701V64.7054C42.6701 61.4312 42.7227 58.6985 42.7873 58.6325C42.8518 58.5665 43.9595 58.5403 45.249 58.5739C47.4266 58.6309 47.6512 58.6653 48.4044 59.0587ZM48.7658 85.0643C29.2946 85.1711 10.3568 85.2658 6.68185 85.2748C1.75948 85.2869 0 85.339 0 85.4723C0 85.6082 4.65573 85.6279 18.717 85.5511C29.0114 85.4949 48.6173 85.4082 62.2858 85.3582C75.9543 85.3083 87.2411 85.2336 87.3677 85.1922C87.9419 85.0047 87.0516 84.8254 85.6527 84.8472C84.8361 84.8599 68.2369 84.9576 48.7658 85.0643ZM5.78312 92.0457C5.78312 95.7399 5.79094 95.8335 6.09854 95.8335C6.40723 95.8335 6.41302 95.7537 6.37206 92.0986C6.33377 88.6861 6.30657 88.3591 6.05665 88.3108C5.80219 88.2615 5.78312 88.5229 5.78312 92.0457ZM15.7343 88.3858C15.677 88.4434 15.6301 90.1428 15.6301 92.1621C15.6301 95.7285 15.639 95.8335 15.9427 95.8335C16.2279 95.8335 16.2553 95.7285 16.2553 94.6342C16.2553 93.2228 16.3298 93.2354 17.3548 94.8192C17.8575 95.5959 18.0982 95.8335 18.382 95.8335C18.7275 95.8335 18.6895 95.7447 17.8289 94.5377L16.905 93.2418L17.4425 92.5316C17.7382 92.1409 18.1243 91.6265 18.3006 91.3885L18.621 90.9558L18.2587 90.9581C17.9913 90.9599 17.7121 91.2261 17.1931 91.9741C16.8062 92.5317 16.437 92.9909 16.3725 92.9945C16.3079 92.9983 16.2553 91.9392 16.2553 90.6411C16.2553 88.7792 16.2113 88.2809 16.0469 88.2809C15.9322 88.2809 15.7915 88.3281 15.7343 88.3858ZM23.0837 88.3825C23.0245 88.442 22.9762 90.1428 22.9762 92.1621C22.9762 95.675 22.9892 95.8335 23.2757 95.8335C23.5515 95.8335 23.5794 95.6826 23.6273 93.9313C23.6784 92.0707 23.6891 92.021 24.1181 91.6498C24.6299 91.2071 24.6922 91.1971 25.0955 91.4934C25.3638 91.6907 25.4048 91.9535 25.4503 93.7749C25.4981 95.6823 25.5239 95.8335 25.802 95.8335C26.0811 95.8335 26.1022 95.7029 26.1022 93.9688C26.1022 92.9432 26.0245 91.8797 25.9295 91.6053C25.6077 90.676 24.6503 90.5117 24.0114 91.2761L23.612 91.7538L23.5676 90.0694C23.5267 88.5127 23.3984 88.0657 23.0837 88.3825ZM1.0941 92.2704V95.8335H2.28199C3.42455 95.8335 3.49019 95.813 4.0013 95.2985C4.46942 94.8272 4.53272 94.666 4.53272 93.9453C4.53272 93.2266 4.46895 93.0629 4.0077 92.5986L3.48285 92.0703L3.84906 91.7239C4.56398 91.0478 4.46504 89.6542 3.66462 89.1263C3.47144 88.9989 2.81404 88.8524 2.20368 88.8009L1.0941 88.7073V92.2704ZM39.3878 88.9024C39.3878 88.9846 39.7394 89.8872 40.1693 90.9082C40.9276 92.7095 40.9508 92.8101 40.9508 94.299C40.9508 95.7285 40.9722 95.8335 41.2634 95.8335C41.5516 95.8335 41.576 95.7285 41.576 94.4866C41.576 93.2046 41.6174 93.0422 42.4356 91.1131C42.9084 89.9985 43.2953 89.0063 43.2953 88.9082C43.2953 88.8101 43.173 88.7536 43.0236 88.7825C42.8436 88.8174 42.526 89.3888 42.0819 90.4763C41.7134 91.379 41.387 92.1426 41.3565 92.1731C41.326 92.2038 41.0367 91.5353 40.7137 90.6877C40.3904 89.8399 40.0569 89.0579 39.9722 88.9496C39.7916 88.7188 39.3878 88.6862 39.3878 88.9024ZM57.3623 92.2704V95.8335H58.4642C60.2206 95.8335 60.8009 95.3393 60.8009 93.8435C60.8009 93.2434 60.7175 93.0431 60.2872 92.6099L59.7734 92.0928L60.1232 91.779C60.571 91.3775 60.7265 90.7454 60.5498 90.0446C60.3458 89.2355 59.8123 88.9141 58.4888 88.8023L57.3623 88.7073V92.2704ZM31.5935 89.1211C31.3555 89.4099 31.5401 89.8838 31.8659 89.8205C32.0162 89.7914 32.1198 89.6171 32.1198 89.3933C32.1198 88.9473 31.8513 88.8083 31.5935 89.1211ZM70.1768 89.149C70.0052 89.3571 70.0139 89.4408 70.2304 89.6588C70.5347 89.9653 70.8665 89.7448 70.7798 89.2941C70.7066 88.9145 70.4258 88.8469 70.1768 89.149ZM3.4272 89.7969C3.60539 90.0249 3.75121 90.4047 3.75121 90.6411C3.75121 90.8774 3.60539 91.2572 3.4272 91.4852C3.15555 91.833 2.97909 91.8998 2.3331 91.8998H1.56301V90.6411V89.3823H2.3331C2.97909 89.3823 3.15555 89.4492 3.4272 89.7969ZM59.6773 89.7031C60.1381 90.1352 60.1392 91.0431 59.6796 91.5357C59.426 91.8075 59.1682 91.8998 58.6637 91.8998H57.9875V90.6411V89.3823H58.6613C59.1235 89.3823 59.4428 89.4832 59.6773 89.7031ZM8.57637 91.0357C7.39427 91.6824 7.3591 94.9756 8.5262 95.7455C8.73079 95.8804 9.09591 95.9908 9.33771 95.9908C10.3448 95.9908 10.941 95.0252 10.941 93.3946C10.941 91.3273 9.91493 90.3036 8.57637 91.0357ZM12.7424 91.3137C12.3493 91.7095 12.2044 92.0193 12.1186 92.6482C11.8549 94.578 12.5538 95.9908 13.7721 95.9908C14.2202 95.9908 14.6923 95.7056 14.6923 95.4346C14.6923 95.1728 14.4805 95.1402 14.0958 95.3429C13.0799 95.8783 12.2371 93.6959 12.8706 92.1702C13.1899 91.4011 13.5189 91.1836 14.0174 91.4122C14.5689 91.6652 14.9209 91.3611 14.467 91.0239C13.9487 90.6389 13.3054 90.747 12.7424 91.3137ZM20.208 91.0772C19.089 91.9576 19.149 95.203 20.2955 95.8207C21.0135 96.2076 22.1626 95.8705 21.9577 95.333C21.8719 95.1078 21.81 95.1031 21.4452 95.2936C20.6346 95.7169 20.0126 94.9092 20.0088 93.4289C20.0048 91.8448 20.6082 90.9942 21.4241 91.4336C21.9102 91.6956 22.2441 91.3441 21.8132 91.0239C21.4035 90.7194 20.6301 90.7452 20.208 91.0772ZM28.0328 90.9547C27.6325 91.1174 27.4544 91.369 27.5867 91.5845C27.6474 91.6835 27.85 91.6544 28.1352 91.5058C28.384 91.3764 28.6613 91.2705 28.7515 91.2705C29.075 91.2705 29.5408 91.9083 29.5408 92.3511C29.5408 92.7616 29.482 92.8104 28.8901 92.8903C28.5322 92.9386 28.0611 93.112 27.8434 93.2757C27.1189 93.8202 27.0492 95.0647 27.7087 95.6831C28.1854 96.1302 28.7191 96.0673 29.2437 95.5021L29.6971 95.0134V95.4234C29.6971 95.6831 29.7831 95.8335 29.9316 95.8335C30.1255 95.8335 30.1659 95.541 30.1651 94.142C30.1646 93.2116 30.0916 92.1872 30.0028 91.8651C29.7473 90.9392 28.9631 90.5769 28.0328 90.9547ZM34.8463 91.3055L34.3861 91.8127V91.3842C34.3861 91.0812 34.3061 90.9558 34.1126 90.9556C33.8619 90.9553 33.843 91.1584 33.8858 93.3945C33.9243 95.3994 33.9729 95.8335 34.1593 95.8335C34.3403 95.8335 34.3886 95.5396 34.3982 94.378C34.413 92.5816 34.6406 91.7529 35.2073 91.4327C35.6009 91.2104 35.6533 91.2174 35.9695 91.5356C36.2721 91.8402 36.3171 92.092 36.3846 93.8553C36.4431 95.3846 36.5087 95.8335 36.6736 95.8335C36.8432 95.8335 36.8869 95.4025 36.8869 93.7306C36.8869 91.8413 36.854 91.5855 36.5629 91.213C36.0987 90.6187 35.4369 90.6545 34.8463 91.3055ZM44.2496 91.2019C43.7318 91.6405 43.4533 92.4074 43.4533 93.3946C43.4533 94.8523 44.2026 95.9908 45.1618 95.9908C46.1453 95.9908 46.7562 94.9961 46.7562 93.3946C46.7562 92.2776 46.5026 91.515 45.9982 91.1156C45.4552 90.6856 44.8223 90.7169 44.2496 91.2019ZM54.0511 90.9951C53.9165 91.1034 53.7327 91.3325 53.6428 91.5043C53.4889 91.7985 53.4729 91.7916 53.372 91.3863C53.3129 91.1495 53.1668 90.9558 53.0472 90.9558C52.8707 90.9558 52.8296 91.4162 52.8296 93.3946C52.8296 95.7285 52.8431 95.8335 53.1422 95.8335C53.4354 95.8335 53.4548 95.7284 53.4554 94.142C53.4559 92.7335 53.5078 92.365 53.7657 91.9392C53.9361 91.6578 54.1819 91.4278 54.3121 91.4278C54.4447 91.4278 54.5489 91.2893 54.5489 91.1131C54.5489 90.7509 54.3993 90.7155 54.0511 90.9951ZM66.8846 91.2583C66.0545 92.094 66.2885 92.8121 67.6771 93.69C68.256 94.0559 68.3898 94.3639 68.2366 94.9781C68.1114 95.4807 67.4881 95.6358 66.9692 95.2936C66.5864 95.0411 66.2715 95.074 66.2715 95.3666C66.2715 95.5953 67.1491 95.9908 67.6564 95.9908C67.9814 95.9908 68.2399 95.8465 68.5239 95.5067C69.2374 94.6532 68.9351 93.5797 67.8418 93.0832C67.1728 92.7796 66.9404 92.3472 67.1274 91.7541C67.2555 91.3482 67.8506 91.1839 68.3056 91.4291C68.8107 91.7011 69.0577 91.3793 68.5944 91.0527C68.0353 90.6585 67.4053 90.7344 66.8846 91.2583ZM73.397 91.2826L72.9924 91.7666V91.3613C72.9924 91.0607 72.9116 90.9558 72.6798 90.9558C72.3806 90.9558 72.3672 91.0607 72.3672 93.3946C72.3672 95.6931 72.3844 95.8335 72.6667 95.8335C72.9422 95.8335 72.9704 95.6829 73.0183 93.9485C73.068 92.1563 73.0907 92.0432 73.4815 91.6503C73.9708 91.1581 74.4922 91.2399 74.7206 91.8449C74.8017 92.0594 74.868 93.0447 74.868 94.0342C74.868 95.7285 74.8863 95.8335 75.1806 95.8335C75.4748 95.8335 75.4932 95.7288 75.4923 94.0633C75.4918 93.0898 75.4185 92.0286 75.3292 91.7051C75.0482 90.6862 74.0735 90.4732 73.397 91.2826ZM77.5586 91.1875C76.7478 91.8744 76.5027 93.8437 77.0717 95.0979C77.2982 95.597 77.9388 95.9908 78.5247 95.9908C79.0609 95.9908 79.7969 95.3356 79.6609 94.9791C79.5665 94.7314 79.5095 94.7443 79.0758 95.1117C78.4904 95.6075 78.4298 95.6104 77.9149 95.1644C77.638 94.9247 77.477 94.5942 77.4166 94.1417L77.3277 93.4733H78.6767C79.9728 93.4733 80.0258 93.4593 80.0222 93.1193C80.0023 91.231 78.7066 90.2151 77.5586 91.1875ZM81.3538 91.1525C80.9368 91.5136 80.8135 92.1198 81.0223 92.7821C81.0795 92.9637 81.4726 93.3018 81.8957 93.5336C82.7418 93.9971 82.9264 94.3238 82.6926 94.9429C82.4889 95.482 81.8712 95.6381 81.3367 95.2854C80.7508 94.8992 80.5031 95.2214 81.0519 95.6558C82.0313 96.4315 83.3082 95.8206 83.3082 94.5763C83.3082 93.8851 83.08 93.5869 82.0578 92.9421C81.4284 92.5451 81.2815 92.0141 81.6788 91.5723C82.0033 91.2111 82.342 91.1893 82.784 91.501C83.1169 91.7356 83.3082 91.6799 83.3082 91.3482C83.3082 91.116 82.6319 90.7984 82.1374 90.7984C81.9312 90.7984 81.5788 90.9578 81.3538 91.1525ZM84.6298 91.1847C84.3651 91.4509 84.246 91.7458 84.246 92.1343C84.246 92.7386 84.5116 93.0689 85.4964 93.6895C86.1377 94.0936 86.2992 94.7459 85.8747 95.2179C85.5443 95.5857 85.2112 95.5992 84.7365 95.2645C84.4614 95.0705 84.3328 95.054 84.1938 95.1943C84.0549 95.3347 84.1046 95.4505 84.4023 95.6812C85.3344 96.4032 86.6152 95.7967 86.6459 94.6188C86.6654 93.8706 86.3544 93.4421 85.4574 92.9813C84.96 92.7257 84.8712 92.6021 84.8712 92.1642C84.8712 91.8803 84.9556 91.5631 85.0588 91.4593C85.3194 91.197 85.8881 91.2233 86.1232 91.5084C86.2797 91.6981 86.3659 91.7076 86.5491 91.5545C86.7476 91.3886 86.7318 91.3241 86.433 91.0804C85.9277 90.6686 85.0944 90.7168 84.6298 91.1847ZM31.5727 93.3946C31.5727 95.7285 31.5862 95.8335 31.8853 95.8335C32.1845 95.8335 32.1979 95.7285 32.1979 93.3946C32.1979 91.0607 32.1845 90.9558 31.8853 90.9558C31.5862 90.9558 31.5727 91.0607 31.5727 93.3946ZM48.0127 93.0406C48.0509 94.2732 48.1559 95.2694 48.2697 95.4776C48.6506 96.1744 49.8874 96.1329 50.2136 95.4123L50.4002 94.9997L50.4885 95.3764C50.5371 95.5836 50.6969 95.7764 50.8437 95.8048C51.0858 95.8517 51.1103 95.6311 51.1103 93.4061C51.1103 91.0607 51.0969 90.9558 50.7977 90.9558C50.504 90.9558 50.4851 91.0607 50.4851 92.6944C50.4851 94.9121 50.1169 95.7219 49.2364 95.4406C48.7664 95.2905 48.6095 94.6189 48.6095 92.7579C48.6095 91.0278 48.5962 90.9558 48.2788 90.9558C47.9554 90.9558 47.9496 91.0022 48.0127 93.0406ZM62.0818 93.0406C62.1306 94.4624 62.2241 95.2398 62.3758 95.4853C62.8033 96.1765 63.916 96.1357 64.2911 95.4151L64.5068 95.0006L64.6106 95.417C64.6677 95.6461 64.8186 95.8335 64.9459 95.8335C65.1403 95.8335 65.1774 95.4436 65.1774 93.3946C65.1774 91.0607 65.1639 90.9558 64.8648 90.9558C64.5711 90.9558 64.5522 91.0607 64.5522 92.6944C64.5522 94.9121 64.1839 95.7219 63.3035 95.4406C62.8335 95.2905 62.6765 94.6189 62.6765 92.7579C62.6765 91.0239 62.6639 90.9558 62.3436 90.9558C62.017 90.9558 62.012 90.9956 62.0818 93.0406ZM70.179 93.3946C70.179 95.7285 70.1924 95.8335 70.4916 95.8335C70.7907 95.8335 70.8042 95.7285 70.8042 93.3946C70.8042 91.0607 70.7907 90.9558 70.4916 90.9558C70.1924 90.9558 70.179 91.0607 70.179 93.3946ZM9.60545 91.3682C10.0465 91.5386 10.3158 92.3067 10.3158 93.3946C10.3158 94.9654 9.72956 95.8034 8.93149 95.3736C8.09293 94.9217 8.04682 92.0948 8.86787 91.4671C9.16047 91.2436 9.25128 91.2313 9.60545 91.3682ZM45.641 91.5545C46.3477 92.1307 46.3489 94.6576 45.6429 95.2332C45.1893 95.6028 44.9397 95.5935 44.5691 95.1932C44.0747 94.6589 43.9277 93.312 44.2401 92.1796C44.4835 91.2977 45.0279 91.0547 45.641 91.5545ZM78.9193 91.5458C79.1033 91.6972 79.2962 92.0868 79.3477 92.4112L79.4417 93.0013H78.4052C77.2802 93.0013 77.2236 92.9434 77.5321 92.1068C77.7048 91.6383 78.0854 91.2705 78.3973 91.2705C78.5003 91.2705 78.7352 91.3944 78.9193 91.5458ZM3.52645 92.853C4.00849 93.3089 4.05366 94.3581 3.61508 94.9036C3.37687 95.1995 3.16618 95.2686 2.4819 95.2749L1.64116 95.2828L1.59505 94.0379C1.56973 93.3532 1.58848 92.6892 1.63694 92.5623C1.77214 92.2076 3.05224 92.4046 3.52645 92.853ZM59.3742 92.5457C59.9885 92.7613 60.1757 93.0985 60.1757 93.9892C60.1757 94.8812 59.8145 95.2247 58.7706 95.3257L57.9875 95.4014V93.8866V92.3719H58.4331C58.6782 92.3719 59.1016 92.4501 59.3742 92.5457ZM29.5053 94.1043C29.428 94.9155 29.0547 95.5188 28.6302 95.5188C28.2107 95.5188 27.8215 95.0203 27.8215 94.4831C27.8215 93.8555 28.4184 93.3159 29.1129 93.3159C29.58 93.3159 29.5805 93.3169 29.5053 94.1043Z" fill="white"/>
</svg>
