<svg width="130" height="26" viewBox="0 0 130 26" fill="none" xmlns="http://www.w3.org/2000/svg">
<path d="M40.2416 19.8994H33.7441V6.22335H36.4165V11.306C37.5168 10.8868 39.0364 10.258 40.294 10.1008C42.2327 9.89125 44.0143 9.99605 45.2194 11.0964C46.2674 12.0396 46.739 13.7687 46.6866 15.2883C46.5818 17.3842 45.3766 19.8994 40.2416 19.8994ZM36.4165 17.6986H40.2416C43.8571 17.6986 43.9619 15.8123 44.0143 15.1311C44.0667 14.3975 43.8047 12.0396 40.6607 12.354C39.1936 12.5112 37.2548 13.14 36.4165 13.5067V17.6986V17.6986Z" fill="white"/>
<path d="M98.6631 14.9742C98.6631 13.4023 98.0868 12.0923 96.9864 11.1491C95.8336 10.1012 94.1045 9.62959 92.2705 9.89158C90.9082 10.0488 89.441 10.8348 88.393 11.5159V9.99638H85.7207V19.8473H88.393V13.8215C89.1266 13.4023 90.8558 12.5115 92.2705 12.4067C93.3185 12.3543 94.4713 12.5115 95.2048 13.1927C95.6764 13.6119 95.9384 14.2407 95.9384 15.0266V19.8997H98.6107C98.6631 19.6901 98.6631 15.7602 98.6631 14.9742Z" fill="white"/>
<path d="M51.8188 9.99577H49.1465V19.8991H51.8188V9.99577Z" fill="white"/>
<path d="M57.27 6.2238H54.5977V19.8474H57.27V6.2238Z" fill="white"/>
<path d="M62.6685 6.22331H59.9962V19.8469H62.6685V6.22331Z" fill="white"/>
<path d="M68.1137 9.99529H65.4414V19.8986H68.1137V9.99529Z" fill="white"/>
<path d="M51.8188 6.2238H49.1465V8.58173H51.8188V6.2238Z" fill="white"/>
<path opacity="0.75" d="M119.098 9.99529H116.426V19.8986H119.098V9.99529Z" fill="white"/>
<path opacity="0.75" d="M119.098 6.2238H116.426V8.58173H119.098V6.2238Z" fill="white"/>
<path d="M68.1137 6.2238H65.4414V8.58173H68.1137V6.2238Z" fill="white"/>
<path opacity="0.75" d="M124.498 11.4632V9.99608H121.826V19.8994H124.498V14.0308C126.856 12.2492 129.319 12.5636 130 12.616V9.89128C128.062 9.89128 126.28 10.4153 124.498 11.4632Z" fill="white"/>
<path d="M76.9714 9.78728C71.2075 9.78728 70.3691 13.036 70.3691 14.9223C70.3691 16.8611 71.2075 20.0574 76.9714 20.0574C82.7352 20.0574 83.5736 16.8087 83.5736 14.9223C83.5736 13.036 82.7352 9.78728 76.9714 9.78728ZM76.9714 17.9614C73.5131 17.9614 73.0415 15.7607 73.0415 14.9223C73.0415 14.084 73.5131 11.8832 76.9714 11.8832C80.4297 11.8832 80.9012 14.084 80.9012 14.9223C80.9012 15.7607 80.4297 17.9614 76.9714 17.9614Z" fill="white"/>
<path opacity="0.75" d="M113.65 15.7072C113.65 15.4976 113.65 15.1832 113.65 14.8688C113.545 13.0873 112.864 11.7249 111.659 10.8341C109.72 9.41937 105.948 9.41937 101.494 10.9389L102.489 12.9825C107.205 11.5677 109.406 12.5633 110.087 13.0349C110.559 13.4017 110.873 13.9256 110.978 14.764C108.62 14.1352 104.323 13.1921 102.437 14.1876C101.441 14.7116 100.917 15.3404 100.812 16.5456C100.76 17.3316 100.97 18.0651 101.494 18.6415C102.542 19.6895 104.166 19.8991 105.79 19.8991H113.65V15.7072ZM105.738 17.6983C104.009 17.6983 103.485 17.2268 103.485 16.7552C103.485 15.9692 104.69 15.9168 105.162 15.9168C107.258 15.8644 110.192 16.5456 111.03 16.7552V17.6983H105.738Z" fill="white"/>
<path fill-rule="evenodd" clip-rule="evenodd" d="M4.38464 3.43791C4.16069 3.83176 4.06246 4.51635 4.26142 5.31221L4.26275 5.31754C4.6466 6.88249 6.17507 8.72499 9.00512 9.09005L17.1591 10.0219C17.1599 10.022 17.1606 10.0221 17.1614 10.0222C18.8766 10.2134 20.3325 11.0233 21.4356 12.1264L21.6689 12.3598C21.6922 12.383 21.7145 12.4072 21.7358 12.4323C22.8053 13.6877 23.4699 15.2892 23.4699 17.0839C23.4699 17.7667 22.9163 18.3203 22.2335 18.3203C21.5506 18.3203 20.9971 17.7667 20.9971 17.0839C20.9971 15.9394 20.5847 14.9096 19.8836 14.0715L19.6871 13.875C18.924 13.1119 17.9697 12.6 16.886 12.4796L16.8822 12.4791L8.7158 11.5459C8.7103 11.5452 8.70481 11.5446 8.69932 11.5439C4.84715 11.0511 2.48967 8.46408 1.86182 5.90928C1.556 4.68366 1.61369 3.30842 2.23509 2.21561C2.91285 1.02368 4.1719 0.34106 5.77667 0.53474C6.45459 0.616557 6.93782 1.23244 6.85601 1.91036C6.77419 2.58828 6.1583 3.07151 5.48039 2.98969C4.82969 2.91116 4.55268 3.1424 4.38464 3.43791Z" fill="#FFD770"/>
<path fill-rule="evenodd" clip-rule="evenodd" d="M0 5.80498C0 2.75705 2.565 0.170321 5.76938 0.532106C6.4479 0.608714 6.93585 1.22087 6.85925 1.89939C6.78264 2.57792 6.17048 3.06587 5.49196 2.98926C3.87429 2.80662 2.47277 4.10864 2.47277 5.80498V20.1933C2.47277 21.8842 3.90732 23.1926 5.48971 23.011C6.1681 22.9332 6.78114 23.42 6.85899 24.0984C6.93684 24.7768 6.45001 25.3898 5.77162 25.4677C2.60975 25.8305 0 23.2468 0 20.1933V5.80498Z" fill="url(#paint0_linear_1020_1418)"/>
<path fill-rule="evenodd" clip-rule="evenodd" d="M19.9934 12.292C20.5132 11.8492 21.2936 11.9116 21.7364 12.4314C22.8058 13.6868 23.4704 15.2884 23.4704 17.083C23.4704 20.6705 20.7407 23.7209 17.1685 24.1439L17.1656 24.1443L5.77159 25.4665C5.09331 25.5452 4.47964 25.0591 4.40094 24.3808C4.32223 23.7025 4.80828 23.0889 5.48656 23.0102L16.8777 21.6883L16.8791 21.6882C19.2171 21.4106 20.9976 19.4059 20.9976 17.083C20.9976 15.9222 20.5734 14.8794 19.854 14.0349C19.4112 13.5151 19.4736 12.7348 19.9934 12.292Z" fill="url(#paint1_linear_1020_1418)"/>
<path fill-rule="evenodd" clip-rule="evenodd" d="M4.40011 1.6451C4.46442 0.965302 5.06763 0.466344 5.74744 0.53065C7.20419 0.668451 10.0687 1.00097 12.5534 1.297L17.17 1.85585L17.1704 1.85591C17.1715 1.85603 17.1725 1.85615 17.1735 1.85627C20.7442 2.28069 23.4723 5.33035 23.4723 8.91683C23.4723 10.7115 22.8077 12.313 21.7383 13.5684C21.717 13.5935 21.6946 13.6177 21.6714 13.6409L21.438 13.8743C20.3345 14.9779 18.8778 15.7881 17.1616 15.9788C16.4829 16.0542 15.8716 15.5651 15.7962 14.8865C15.7208 14.2078 16.2098 13.5965 16.8885 13.5211C17.9722 13.4007 18.9265 12.8888 19.6895 12.1258L19.8861 11.9292C20.5872 11.0911 20.9996 10.0613 20.9996 8.91683C20.9996 6.59345 19.2183 4.58846 16.8796 4.31152L16.8737 4.31081L12.2609 3.75241C11.4182 3.64981 13.5039 3.9005 12.2609 3.75241C9.768 3.45541 6.93548 3.12684 5.51456 2.99243C4.83476 2.92812 4.33581 2.3249 4.40011 1.6451Z" fill="url(#paint2_linear_1020_1418)"/>
<path fill-rule="evenodd" clip-rule="evenodd" d="M21.6721 11.8955C22.1549 12.3783 22.1549 13.1612 21.6721 13.644L21.4388 13.8773C20.3356 14.9805 18.8797 15.7905 17.1644 15.9816C17.1637 15.9817 17.163 15.9818 17.1623 15.9818L9.00836 16.9137C6.17829 17.2788 4.64982 19.1213 4.26596 20.6862L4.26324 20.6971C4.07206 21.4471 4.17565 22.1102 4.40929 22.5095C4.59993 22.8352 4.90925 23.0661 5.52172 23.0115C6.20185 22.9507 6.80243 23.4529 6.86316 24.133C6.92388 24.8131 6.42175 25.4137 5.74162 25.4744C4.17639 25.6142 2.94969 24.9111 2.27512 23.7584C1.64448 22.6808 1.55301 21.3235 1.86571 20.0917C2.49458 17.5378 4.85175 14.9525 8.70254 14.4599C8.70803 14.4592 8.71352 14.4585 8.71902 14.4579L16.8854 13.5246L16.8892 13.5242C17.9729 13.4038 18.9273 12.8918 19.6903 12.1288L19.9236 11.8955C20.4064 11.4127 21.1893 11.4127 21.6721 11.8955Z" fill="url(#paint3_linear_1020_1418)"/>
<defs>
<linearGradient id="paint0_linear_1020_1418" x1="3.02227" y1="2.69681" x2="1.23638" y2="24.2649" gradientUnits="userSpaceOnUse">
<stop stop-color="#3357FC"/>
<stop offset="1" stop-color="#3458FD"/>
</linearGradient>
<linearGradient id="paint1_linear_1020_1418" x1="20.7423" y1="13.275" x2="6.45521" y2="24.2651" gradientUnits="userSpaceOnUse">
<stop stop-color="#FFD16B"/>
<stop offset="0.473958" stop-color="#FFB5B8"/>
<stop offset="1" stop-color="#FF93FF"/>
</linearGradient>
<linearGradient id="paint2_linear_1020_1418" x1="5.76999" y1="2.01053" x2="16.2106" y2="14.3744" gradientUnits="userSpaceOnUse">
<stop stop-color="#3458FD"/>
<stop offset="0.479167" stop-color="#806CFD"/>
<stop offset="1" stop-color="#B982FF"/>
</linearGradient>
<linearGradient id="paint3_linear_1020_1418" x1="15.6619" y1="14.9248" x2="6.45774" y2="24.2664" gradientUnits="userSpaceOnUse">
<stop stop-color="#B982FF"/>
<stop offset="1" stop-color="#FF94FF"/>
</linearGradient>
</defs>
</svg>
