<svg width="186" height="26" viewBox="0 0 186 26" fill="none" xmlns="http://www.w3.org/2000/svg">
<g clip-path="url(#clip0_983_1703)">
<path opacity="0.9" d="M26.6484 25.5H44.4401V20.8328H32.0253V15.1085H42.3185V10.4374H32.0253V5.16719H44.5149V0.5H26.6484V25.5Z" fill="white"/>
<path opacity="0.9" d="M65.8607 16.2361L54.2056 0.5H46.1797L48.6792 3.66366V25.5783H54.0521V9.16092L66.089 25.5H71.2376V0.5H65.8607V16.2361Z" fill="white"/>
<path opacity="0.9" d="M18.5474 12.6378C20.9091 12.1875 22.8773 10.0027 22.8773 6.91738C22.8615 3.58536 20.4407 0.5 15.5953 0.5H0L2.42077 3.58536V25.5117H16.1385C20.9879 25.5117 23.4834 22.5008 23.4834 18.7341C23.3929 15.637 21.2555 13.002 18.5474 12.6378ZM7.79763 5.19851H14.5364C16.355 5.19851 17.4886 6.25568 17.4886 7.83359C17.4886 9.41151 16.355 10.4687 14.5364 10.4687H7.79763V5.19851ZM14.7608 20.8602H7.79763V15.1085H14.7608C16.8076 15.1085 17.9412 16.3888 17.9412 17.9706C17.9412 19.7756 16.7289 20.8328 14.7608 20.8328V20.8602Z" fill="white"/>
<path opacity="0.9" d="M149.895 16.2361H152.697V19.1766C151.248 20.3704 149.431 21.0337 147.549 21.056C143.081 21.056 139.905 17.6691 139.905 13.0763C139.905 8.48355 143.081 5.0928 147.549 5.0928C148.697 5.10225 149.825 5.39653 150.829 5.94896C151.834 6.50139 152.685 7.29452 153.304 8.25646L157.543 5.9072C155.728 3.06069 152.544 0.5 147.474 0.5C140.357 0.5 134.453 5.39428 134.453 13.002C134.453 20.6096 140.283 25.5 147.474 25.5C149.416 25.5321 151.342 25.1447 153.119 24.3646C154.896 23.5846 156.482 22.4303 157.767 20.9816V11.7216H146.262L149.895 16.2361Z" fill="white"/>
<path opacity="0.9" d="M125.671 16.2361L114.012 0.5H105.986L108.486 3.66366V25.5783H113.863V9.16092L125.9 25.5H131.044V0.5H125.671V16.2361Z" fill="white"/>
<path opacity="0.9" d="M175.554 0.5H165.186L167.682 3.66366L167.229 4.8657L159.203 25.5783H165.261L166.835 21.3575H177.68L179.254 25.5783H185.308L175.554 0.5ZM168.217 16.6159L172.153 5.84456L176.089 16.6159H168.217Z" fill="white"/>
<path opacity="0.9" d="M102.885 0.5H97.5078V25.5783H102.885V0.5Z" fill="white"/>
<path opacity="0.9" d="M93.1929 4.79131V0.5H74.2637V5.16719H86.151L74.2637 21.2087V25.5H93.4212V20.8328H81.2308L93.1929 4.79131Z" fill="white"/>
</g>
<defs>
<clipPath id="clip0_983_1703">
<rect width="186" height="25" fill="white" transform="translate(0 0.5)"/>
</clipPath>
</defs>
</svg>
