<svg width="301" height="83" viewBox="0 0 301 83" fill="none" xmlns="http://www.w3.org/2000/svg">
<path opacity="1" fill-rule="evenodd" clip-rule="evenodd" d="M33.8186 23.9638L25.5094 31.9275L28.5634 34.8527L31.6174 37.778L36.9023 32.7141L42.187 27.6503L47.4721 32.7144L52.7572 37.7784L55.8184 34.8447L58.8795 31.911L50.6359 23.9554C46.1019 19.58 42.3328 16 42.26 16C42.1873 16 38.3885 19.5837 33.8186 23.9638ZM244.601 27.2695C238.393 27.7028 233.307 31.3651 231.285 36.8576C230.644 38.6 230.417 39.9211 230.41 41.9437C230.403 43.9688 230.583 45.1661 231.142 46.8065C231.855 48.8954 232.991 50.7199 234.557 52.2881C235.799 53.5323 237.005 54.4021 238.509 55.1391C240.801 56.2623 242.999 56.7438 245.834 56.7435C250.429 56.7429 253.491 55.6144 256.923 52.6566C257.413 52.2343 257.814 51.8283 257.814 51.7544C257.814 51.6804 256.912 50.7227 255.81 49.6262L253.806 47.6327L252.903 48.3473C251.03 49.829 249.561 50.5345 247.698 50.8461C246.423 51.0594 244.775 51.0071 243.662 50.7182C240.777 49.9696 238.51 47.7154 237.611 44.7013C237.289 43.6213 237.174 41.5366 237.372 40.3597C237.76 38.0523 238.949 36.0451 240.707 34.7256C244.162 32.1334 248.97 32.5046 252.852 35.6634C253.192 35.9396 253.514 36.1488 253.57 36.1283C253.625 36.1077 254.582 35.0792 255.697 33.8426L257.724 31.5944L257.035 30.997C256.008 30.1071 254.183 28.9712 252.986 28.4766C250.607 27.4933 247.599 27.0604 244.601 27.2695ZM167.441 41.7777C163.953 49.6416 161.081 56.1249 161.06 56.185C161.035 56.2541 162.25 56.2944 164.36 56.2944H167.7L169.056 53.1147L170.411 49.9351L176.739 49.9059L183.067 49.8769L184.414 53.0574L185.762 56.2381L189.197 56.2679C191.087 56.2844 192.632 56.2805 192.632 56.2595C192.632 56.2383 189.761 49.7671 186.251 41.8789L179.87 27.5368L176.827 27.5083L173.783 27.4798L167.441 41.7777ZM81.7655 42.0068V56.3078L90.2508 56.2647C98.5217 56.2227 98.7656 56.2152 99.9026 55.9701C103.14 55.2719 105.26 53.9134 106.317 51.8594C107.09 50.3548 107.306 48.6588 106.961 46.8013C106.557 44.6296 105.257 43.0762 102.936 41.9927C102.215 41.6563 101.625 41.3556 101.625 41.3247C101.625 41.2937 101.918 41.0911 102.277 40.8745C103.824 39.94 104.992 38.2683 105.317 36.5233C105.523 35.4147 105.523 34.8548 105.318 33.7512C104.831 31.1343 102.876 29.1531 99.9174 28.2783C98.0982 27.7405 97.4731 27.7065 89.37 27.7061L81.7655 27.7056V42.0068ZM114.297 42V56.2944H117.586H120.874V42V27.7056H117.586H114.297V42ZM129.683 42V56.2944H132.912H136.141L136.171 47.2099L136.201 38.1253L143.42 47.2099L150.64 56.2944H153.433H156.225V42V27.7056H152.996H149.767L149.737 36.4812L149.707 45.2569L142.742 36.4812L135.778 27.7056H132.73H129.683V42ZM197.447 42V56.2944H200.676H203.906L203.936 47.228L203.966 38.1617L211.173 47.228L218.38 56.2944H221.185H223.99V42V27.7056H220.761H217.532L217.502 36.4975L217.472 45.2893L210.492 36.4975L203.513 27.7056H200.48H197.447V42ZM263.216 42V56.2944H274.608H286V53.4805V50.6667H277.896H269.793V47.684V44.7013H276.781H283.769V41.8874V39.0736H276.781H269.793V36.2043V33.3349L277.75 33.306L285.706 33.2771L285.738 30.4913L285.769 27.7056H274.493H263.216V42ZM96.9636 33.5479C97.8082 33.8706 98.6096 34.6006 98.7853 35.2072C99.1249 36.3789 98.7559 37.7343 97.9336 38.3353C96.8593 39.1206 95.3878 39.3231 91.1023 39.2752L88.1662 39.2424L88.135 36.2238L88.1036 33.2051L92.1868 33.244C96.152 33.2817 96.2898 33.2905 96.9636 33.5479ZM178.758 39.7238C179.8 42.1552 180.653 44.1938 180.653 44.2541C180.653 44.3229 179.187 44.3636 176.706 44.3636C173.597 44.3636 172.771 44.3338 172.816 44.2229C173.749 41.9007 176.72 35.1488 176.78 35.2134C176.826 35.2627 177.716 37.2923 178.758 39.7238ZM18.0524 39.0736L15 42.0006L18.0535 44.927L21.1071 47.8534L24.1594 44.9264L27.2118 41.9994L24.1583 39.073L21.1047 36.1466L18.0524 39.0736ZM39.0745 39.0738L36.0224 42.0006L39.1047 44.9545L42.187 47.9085L45.2693 44.9545L48.3516 42.0006L45.2995 39.0738C43.6209 37.4642 42.2203 36.1472 42.187 36.1472C42.1538 36.1472 40.7532 37.4642 39.0745 39.0738ZM60.2144 39.0738L57.1623 42.0006L60.2445 44.9544L63.3266 47.9084L66.3216 44.9883C67.9688 43.3823 69.3165 42.0387 69.3165 42.0028C69.3165 41.9222 63.408 36.1472 63.3256 36.1472C63.2931 36.1472 61.893 37.4642 60.2144 39.0738ZM98.2321 44.7953C99.8454 45.3068 100.557 46.1627 100.557 47.5927C100.557 49.2853 99.6864 50.2244 97.7548 50.6168C97.1637 50.7369 95.8993 50.7757 92.541 50.7773L88.1075 50.7792V47.6187V44.4582L92.7759 44.5019C97.2168 44.5434 97.4827 44.5577 98.2321 44.7953ZM28.5336 49.1759L25.5105 52.0747L33.8198 60.0374C38.3898 64.4168 42.1876 68 42.2594 68C42.3312 68 46.1007 64.4207 50.6362 60.0459L58.8823 52.0917L55.8198 49.1566L52.7572 46.2216L47.4721 51.2856L42.187 56.3497L36.9309 51.3134C34.0401 48.5434 31.6482 46.2771 31.6158 46.2771C31.5833 46.2771 30.1963 47.5816 28.5336 49.1759Z" fill="white"/>
</svg>
