<?xml version="1.0" standalone="no"?>
<!DOCTYPE svg PUBLIC "-//W3C//DTD SVG 20010904//EN"
 "http://www.w3.org/TR/2001/REC-SVG-20010904/DTD/svg10.dtd">
<svg version="1.0" xmlns="http://www.w3.org/2000/svg"
 width="749.000000pt" height="450.000000pt" viewBox="0 0 749.000000 450.000000"
 preserveAspectRatio="xMidYMid meet">
<metadata>
Created by potrace 1.16, written by Peter Selinger 2001-2019
</metadata>
<g transform="translate(0.000000,450.000000) scale(0.100000,-0.100000)"
fill="#7b7b80" stroke="none">
<path d="M2810 3750 c-108 -15 -177 -47 -245 -115 -67 -66 -103 -133 -131
-240 -25 -97 -26 -418 -1 -518 53 -213 172 -320 384 -347 178 -22 315 20 417
131 l56 60 0 139 0 139 33 3 c29 3 32 6 35 41 l3 37 -195 0 -196 0 0 -40 0
-40 48 0 c26 0 53 -5 60 -12 8 -8 12 -57 12 -155 0 -134 -1 -143 -22 -164 -68
-64 -204 -81 -281 -35 -109 63 -166 237 -167 502 0 271 67 458 185 513 66 31
165 29 233 -5 59 -29 109 -90 118 -143 12 -70 12 -71 61 -71 l45 0 -7 73 c-12
129 -16 139 -70 175 -94 62 -240 90 -375 72z"/>
<path d="M60 3135 l0 -605 395 0 395 0 0 605 0 605 -395 0 -395 0 0 -605z"/>
<path d="M997 3733 c-4 -3 -7 -24 -7 -45 0 -38 0 -38 40 -38 l40 0 0 -510 0
-510 -41 0 -40 0 3 -42 3 -43 235 -3 c138 -2 268 2 315 8 262 37 375 216 375
591 0 148 -11 227 -47 334 -45 133 -147 218 -300 250 -71 15 -563 22 -576 8z
m525 -95 c80 -24 142 -111 175 -246 21 -86 24 -388 4 -477 -22 -100 -52 -166
-94 -212 -57 -62 -89 -73 -218 -73 l-109 0 0 510 0 510 101 0 c56 0 119 -5
141 -12z"/>
<path d="M1972 3731 c-8 -5 -12 -22 -10 -42 3 -33 5 -34 53 -39 l50 -5 0 -505
0 -505 -53 -3 -53 -3 3 -42 3 -42 200 0 200 0 0 40 0 40 -47 3 -48 3 0 509 0
509 48 3 47 3 0 40 0 40 -190 2 c-104 2 -196 -1 -203 -6z"/>
<path d="M3372 3731 c-8 -5 -12 -22 -10 -42 3 -33 5 -34 53 -39 l50 -5 0 -505
0 -505 -50 -5 -50 -5 0 -40 0 -40 200 0 200 0 3 43 3 42 -50 0 -51 0 0 509 0
510 48 3 47 3 0 40 0 40 -190 2 c-104 2 -196 -1 -203 -6z"/>
<path d="M3843 3728 c-6 -7 -13 -38 -17 -68 -3 -30 -9 -74 -12 -98 l-6 -43 42
3 c40 3 43 5 60 51 30 78 30 78 147 75 l103 -3 1 -505 0 -505 -41 -3 -41 -3 3
-42 3 -42 185 0 185 0 0 40 c0 40 0 40 -42 43 l-43 3 0 510 0 509 103 0 c67 0
109 -4 120 -12 9 -7 26 -35 36 -63 18 -48 21 -50 60 -53 29 -2 41 1 41 10 0
26 -29 188 -35 198 -10 16 -840 14 -852 -2z"/>
<path d="M5063 3728 c-10 -12 -68 -191 -163 -498 -23 -74 -45 -146 -50 -160
-5 -14 -29 -92 -55 -175 -90 -291 -75 -259 -126 -265 -44 -5 -44 -5 -44 -45
l0 -40 123 -3 122 -3 0 45 c0 42 -2 45 -29 48 l-29 3 30 95 c17 52 38 120 47
150 l18 55 145 3 146 3 46 -143 c25 -79 46 -149 46 -156 0 -6 -11 -12 -25 -12
-23 0 -25 -4 -25 -45 l0 -45 178 2 177 3 0 40 c0 40 0 40 -44 45 l-45 5 -32
100 c-18 55 -78 242 -134 415 -56 173 -117 365 -136 425 -47 151 -52 159 -95
163 -21 2 -40 -2 -46 -10z m48 -514 c28 -87 52 -166 53 -174 1 -12 -18 -16
-103 -18 -57 -1 -108 1 -113 6 -6 6 10 71 41 168 64 197 61 188 66 182 3 -2
28 -76 56 -164z"/>
<path d="M5682 3731 c-8 -5 -12 -22 -10 -42 3 -31 6 -34 43 -39 l40 -5 0 -505
0 -505 -40 -5 c-39 -5 -40 -6 -40 -45 l0 -40 415 0 415 0 12 80 c20 134 19
135 -26 135 -38 0 -40 -2 -55 -47 -29 -86 -21 -83 -263 -83 l-213 0 0 509 0
510 38 3 c36 3 37 4 37 43 l0 40 -170 2 c-93 2 -176 -1 -183 -6z"/>
<path d="M1843 2275 c-228 -50 -343 -254 -343 -608 0 -235 58 -410 169 -510
80 -72 157 -98 294 -98 251 0 386 121 443 395 21 104 15 401 -10 491 -55 194
-166 305 -337 334 -83 14 -138 13 -216 -4z m205 -90 c41 -21 90 -78 113 -131
36 -86 49 -184 49 -383 0 -246 -20 -350 -86 -444 -69 -97 -203 -115 -288 -38
-88 80 -126 227 -126 486 0 282 52 449 158 505 46 24 136 26 180 5z"/>
<path d="M1072 2228 c3 -42 4 -43 41 -46 l38 -3 -3 -592 c-3 -587 -3 -592 -26
-648 -23 -58 -62 -102 -99 -114 -26 -7 -28 -17 -12 -48 18 -33 27 -36 83 -23
131 31 195 92 244 235 13 39 16 128 19 619 l4 572 32 0 c46 0 59 12 55 51 l-3
34 -188 3 -188 2 3 -42z"/>
<path d="M2454 2256 c-3 -8 -4 -27 -2 -43 3 -25 7 -28 43 -29 l40 0 6 -395 c6
-416 9 -453 58 -547 20 -38 98 -117 139 -140 36 -20 143 -42 207 -42 118 1
209 35 272 103 61 66 89 130 109 247 11 68 11 71 13 432 l1 337 38 3 c36 3 37
4 40 46 l3 43 -133 -3 -133 -3 -3 -37 c-3 -39 -2 -40 61 -50 17 -3 18 -23 18
-371 -1 -407 -7 -459 -62 -555 -48 -85 -138 -123 -239 -101 -71 15 -111 46
-143 109 -38 76 -46 185 -47 592 l0 327 37 3 c35 3 38 6 44 40 3 21 4 40 1 43
-3 3 -86 5 -184 5 -145 0 -180 -3 -184 -14z"/>
<path d="M3517 2263 c-4 -3 -7 -21 -7 -39 0 -34 3 -37 63 -46 10 -2 18 -6 18
-10 -1 -5 -1 -233 -1 -507 l0 -500 -37 -3 c-36 -3 -38 -5 -41 -40 l-3 -38 190
0 191 0 0 39 c0 40 0 40 -42 43 l-43 3 0 230 0 230 66 3 65 3 43 -95 c47 -103
149 -280 225 -389 l48 -68 136 3 136 3 0 35 c0 34 -1 35 -46 38 -45 3 -48 5
-114 90 -106 136 -196 290 -211 362 -5 26 -1 31 41 51 66 30 142 103 174 163
55 107 24 271 -66 346 -48 40 -123 75 -190 89 -57 12 -584 16 -595 4z m573
-107 c45 -30 89 -110 97 -174 8 -70 -18 -148 -67 -205 -52 -59 -87 -69 -215
-65 l-100 3 -3 233 -2 232 127 0 c119 0 131 -2 163 -24z"/>
<path d="M4587 2264 c-4 -4 -7 -22 -7 -40 0 -35 13 -44 61 -44 l29 0 -2 -507
-3 -508 -42 -3 c-43 -3 -43 -3 -43 -43 l0 -39 135 0 135 0 0 40 0 40 -40 0
-40 0 0 422 c0 232 2 419 5 416 4 -4 200 -343 287 -496 10 -18 25 -43 32 -55
8 -12 27 -45 43 -73 15 -28 60 -106 98 -172 l70 -122 58 0 57 0 0 549 0 550
38 3 c36 3 37 4 37 43 l0 40 -125 0 -125 0 0 -40 c0 -39 1 -40 35 -41 l35 0 3
-360 2 -359 -50 84 c-27 46 -50 85 -50 86 0 2 -59 103 -131 226 -72 123 -155
265 -184 314 l-52 90 -130 3 c-71 1 -132 -1 -136 -4z"/>
<path d="M5976 2261 c-7 -11 -136 -418 -211 -666 -18 -60 -52 -168 -75 -240
-23 -71 -46 -144 -51 -162 -9 -28 -15 -32 -52 -35 -41 -3 -42 -4 -45 -40 l-3
-38 125 0 126 0 0 40 c0 38 -2 40 -31 40 -24 0 -29 4 -25 18 2 9 24 79 47 155
l43 137 146 0 146 0 47 -147 c26 -82 47 -151 47 -155 0 -4 -12 -8 -27 -10 -24
-3 -28 -8 -31 -40 l-3 -38 180 0 181 0 0 39 c0 40 0 40 -42 43 l-43 3 -41 125
c-23 69 -81 247 -128 395 -146 453 -178 549 -188 568 -9 18 -82 25 -92 8z m52
-515 c28 -90 52 -168 52 -175 0 -7 -35 -11 -110 -11 -78 0 -110 3 -110 12 0
19 104 338 110 338 3 0 29 -74 58 -164z"/>
<path d="M6574 2256 c-3 -8 -4 -27 -2 -43 3 -24 8 -29 41 -33 l37 -5 1 -505 0
-505 -41 -3 c-39 -3 -40 -4 -40 -43 l0 -39 418 0 419 0 11 94 c7 52 12 100 12
106 0 7 -16 10 -42 8 -38 -3 -42 -6 -52 -41 -6 -21 -22 -49 -35 -63 l-23 -24
-207 2 -206 3 0 509 0 510 35 0 c34 1 35 2 35 41 l0 40 -178 3 c-147 2 -178 0
-183 -12z"/>
</g>
</svg>
