<svg width="300" height="77" viewBox="0 0 300 77" fill="none" xmlns="http://www.w3.org/2000/svg">
<path opacity="0.9" fill-rule="evenodd" clip-rule="evenodd" d="M12.3767 17.3074L8.5 18.5429V35.5598V52.5774L13.2578 52.7841L18.0156 52.99V34.4597C18.0156 20.0619 17.8189 15.9447 17.1345 16.0006C16.6503 16.0397 14.5089 16.6281 12.3767 17.3074ZM137.313 19.2522L133.612 20.3188V33.7853C133.612 41.1912 133.927 48.0721 134.313 49.0752C135.202 51.3907 138.836 52.9265 143.424 52.9265C146.885 52.9265 146.949 52.8867 147.672 50.3087C148.792 46.3157 148.652 45.9457 146.033 45.9457C142.502 45.9457 141.985 44.8449 142.218 37.8125L142.423 31.6353L144.822 31.2862C146.832 30.9937 147.367 30.5191 148.12 28.3557L149.02 25.7743L145.722 25.5634L142.423 25.3526L142.21 21.6878C142.092 19.6717 141.775 18.0592 141.505 18.1038C141.234 18.1485 139.348 18.6658 137.313 19.2522ZM25.769 25.7561L21.8923 26.9198V39.7483V52.5774H26.1214H30.3506L30.703 43.2693C31.0124 35.0963 31.2225 33.8412 32.4235 32.9728C33.1763 32.429 34.6037 31.9892 35.5954 31.9948C39.255 32.0164 39.4876 32.614 39.8661 42.9517L40.2186 52.5774L44.6239 52.7855L49.0293 52.9928L49.025 43.0124C49.0194 28.7341 48.182 26.6664 41.6995 24.931C39.5102 24.3453 38.338 24.427 35.9394 25.3345C34.2837 25.9606 32.5476 26.9282 32.0817 27.4838C30.8073 29.0042 30.1116 28.7097 29.8663 26.5435L29.6457 24.5931L25.769 25.7561ZM87.444 24.9436C80.1663 26.7495 75.8138 32.1944 75.8138 39.4928C75.8138 50.8211 87.5187 56.687 99.7353 51.4822C103.555 49.8549 103.869 49.1583 102.517 45.3168C101.802 43.2854 101.624 43.1786 100.553 44.1384C98.6434 45.8501 94.391 47.3419 91.4215 47.3419C88.3948 47.3419 84.7986 45.1234 86.0342 44.0184C86.4219 43.6714 89.9702 42.5496 93.9188 41.5249C104.609 38.7514 104.824 38.6453 104.32 36.3584C103.617 33.1752 102.434 30.3173 101.249 28.9435C98.6181 25.8929 91.6978 23.8874 87.444 24.9436ZM114.382 25.0413C108.107 26.5659 106.123 28.5659 106.123 33.3665C106.123 36.9546 108.234 39.2456 112.562 40.3542C120.543 42.3981 121.884 42.8945 122.611 44.0721C123.246 45.0997 123.082 45.5869 121.728 46.6878C120.813 47.4312 119.349 48.04 118.475 48.04C116.523 48.04 113.171 45.5346 113.171 44.0749C113.171 43.4306 112.768 43.1576 112.158 43.3894C111.601 43.6009 109.856 44.1175 108.282 44.5377C104.943 45.4285 104.727 46.4218 107.233 49.3712C109.115 51.5855 114.407 53.6245 118.274 53.6245C122.193 53.6245 126.674 52.0308 129.083 49.781C131.149 47.8515 131.498 47.0648 131.498 44.3318C131.498 39.3964 129.613 37.7197 122.002 35.8851C115.568 34.334 113.417 32.8583 115.124 31.1669C116.542 29.763 121.058 30.2496 122.454 31.9571C123.587 33.3428 123.908 33.3916 126.707 32.6021C130.65 31.4915 131.091 31.0482 130.093 29.2011C128.393 26.0563 119.69 23.7519 114.382 25.0413ZM154.758 25.6842L150.881 26.9198V39.7483V52.5774L154.934 52.7868L158.987 52.9963V38.6509C158.987 30.7606 158.907 24.3376 158.811 24.3774C158.714 24.4165 156.89 25.005 154.758 25.6842ZM166.74 25.7568L162.864 26.9198V39.7483V52.5774H167.093H171.322L171.674 43.6959C172.077 33.5445 172.769 31.9843 176.868 31.9843C180.669 31.9843 181.122 33.1389 181.431 43.6212L181.707 52.9914L185.678 52.7841L189.648 52.5774L189.841 41.7112C190.025 31.3819 189.956 30.7285 188.423 28.4758C185.269 23.8413 178.095 23.3778 173.16 27.4908L171.058 29.243L170.838 26.9184L170.617 24.5945L166.74 25.7568ZM200.926 25.2312C196.964 26.7669 195.645 27.8406 194.105 30.7857C192.201 34.4262 192.019 41.6896 193.749 45.002C197.085 51.3914 205.646 53.3851 210.616 48.93C211.773 47.8934 211.851 47.9988 211.851 50.6026C211.851 55.8416 205.871 58.5075 202.508 54.768C201.088 53.1889 200.879 53.1575 197.555 54.0259C195.646 54.5243 193.9 55.1142 193.676 55.3369C192.947 56.058 196.026 59.5246 198.509 60.7784C200.121 61.593 202.553 61.9993 205.813 62C211.999 62.0014 216.161 60.1599 218.592 56.347C220.271 53.7132 220.309 53.3223 220.309 39.0544V24.4563L216.369 25.664C214.201 26.3285 212.144 27.3156 211.798 27.8573C211.321 28.6035 211.165 28.6231 211.157 27.9362C211.146 26.9715 205.873 24.3104 204.098 24.3739C203.516 24.3949 202.089 24.7802 200.926 25.2312ZM49.0744 26.2252C49.099 26.5128 51.1008 32.5602 53.5227 39.6631L57.926 52.5774H63.1363H68.3459L72.3304 40.7102C74.5218 34.1832 76.5405 28.1358 76.8168 27.2723C77.3018 25.7547 77.1657 25.7017 72.7752 25.7017H68.2317L67.0468 30.4136C65.0464 38.3675 63.7537 42.4554 63.2392 42.4554C62.8142 42.4554 61.9176 39.5626 58.7464 27.9704C58.1283 25.7086 58.1121 25.7017 53.5777 25.7017C51.0762 25.7017 49.0497 25.9376 49.0744 26.2252ZM94.1401 31.9843C96.5366 34.3578 95.8733 35.1661 90.1859 36.8031C87.236 37.652 84.6668 38.1923 84.4772 38.0045C83.7738 37.3078 85.8404 32.6517 87.3023 31.6374C89.4119 30.1742 92.4689 30.3292 94.1401 31.9843ZM209.137 32.0402C211.048 33.0531 212.741 37.2422 212.209 39.6408C211.113 44.5789 205.601 46.3059 202.67 42.6299C201.427 41.0711 201.202 40.0631 201.471 37.2645C201.953 32.2412 205.263 29.9864 209.137 32.0402ZM236.345 34.5874C233.924 34.9392 231.168 38.4191 230.505 41.9618C229.82 45.6211 231.76 50.5237 234.436 51.894C238.946 54.2039 244.979 52.0169 244.979 48.0714C244.979 46.0588 244.122 46.3053 242.736 48.7171C239.203 54.8671 231.379 49.7914 232.612 42.1503C233.563 36.26 239.111 34.0332 242.275 38.2718C243.927 40.4854 245.456 40.1552 244.686 37.7511C243.982 35.5563 240.02 34.0534 236.345 34.5874ZM253.992 34.6342C249.486 35.1766 246.649 42.3723 248.82 47.7475C251.865 55.2845 261.873 54.4106 263.903 46.4302C265.74 39.2017 261.176 33.7686 253.992 34.6342ZM273.401 34.5644C272.557 34.727 271.487 35.3127 271.024 35.8656C269.931 37.1696 268.945 37.15 268.945 35.8237C268.945 35.2478 268.627 34.7766 268.24 34.7766C267.806 34.7766 267.535 38.2865 267.535 43.9095C267.535 50.9041 267.741 52.9753 268.416 52.7547C269.005 52.5621 269.414 50.2487 269.649 45.7852C270.045 38.2935 271.149 36.1727 274.653 36.1727C277.929 36.1727 278.813 38.2921 278.813 46.1594C278.813 51.3544 279.029 52.9718 279.694 52.7547C280.288 52.5607 280.69 50.1858 280.927 45.4697C281.151 41.0257 281.633 38.0533 282.247 37.3232C283.403 35.9494 287.487 35.7958 288.568 37.0858C288.989 37.5877 289.424 41.2533 289.536 45.2316C289.676 50.2487 290.008 52.553 290.619 52.7533C291.289 52.9739 291.5 51.1359 291.5 45.0648C291.5 38.0017 291.34 36.9441 290.105 35.837C288.026 33.9738 283.143 34.1511 281.51 36.1483C280.453 37.4404 280.161 37.5256 279.818 36.6411C279.501 35.8202 275.362 33.6981 275.007 34.1735C274.968 34.2258 274.245 34.4017 273.401 34.5644ZM259.827 37.4649C261.102 38.4875 261.503 39.647 261.75 43.0215C262.043 47.0298 261.933 47.4124 259.918 49.4082C257.625 51.6797 256.658 51.9122 253.87 50.8623C249.753 49.3118 248.664 41.4634 252.069 37.8746C254.038 35.7993 257.521 35.6157 259.827 37.4649ZM225.243 51.1813C225.243 52.2675 225.643 52.9265 226.301 52.9265C226.958 52.9265 227.358 52.2675 227.358 51.1813C227.358 50.0951 226.958 49.4361 226.301 49.4361C225.643 49.4361 225.243 50.0951 225.243 51.1813Z" fill="white"/>
</svg>
