<?xml version="1.0" encoding="UTF-8" standalone="no"?>
<!-- Created with Inkscape (http://www.inkscape.org/) -->

<svg
   version="1.1"
   id="svg2"
   width="288.01334"
   height="60.413334"
   viewBox="0 0 288.01334 60.413334"
   sodipodi:docname="morningstar-r-logo.eps"
   xmlns:inkscape="http://www.inkscape.org/namespaces/inkscape"
   xmlns:sodipodi="http://sodipodi.sourceforge.net/DTD/sodipodi-0.dtd"
   xmlns="http://www.w3.org/2000/svg"
   xmlns:svg="http://www.w3.org/2000/svg">
  <defs
     id="defs6" />
  <sodipodi:namedview
     id="namedview4"
     pagecolor="#ffffff"
     bordercolor="#000000"
     borderopacity="0.25"
     inkscape:showpageshadow="2"
     inkscape:pageopacity="0.0"
     inkscape:pagecheckerboard="0"
     inkscape:deskcolor="#d1d1d1" />
  <g
     id="g8"
     inkscape:groupmode="layer"
     inkscape:label="ink_ext_XXXXXX"
     transform="matrix(1.3333333,0,0,-1.3333333,0,60.413333)">
    <g
       id="g10"
       transform="scale(0.1)">
      <path
         opacity="0.6"
         d="m 1085.82,440.316 h 38.96 V 11.7969 h -38.96 V 440.316"
         style="fill:white;fill-opacity:1;fill-rule:nonzero;stroke:none"
         id="path12" />
      <path
         opacity="0.6"
         d="m 1622.64,440.316 h 124.39 v -35.711 h -42.3 V 11.7969 h -39.16 V 404.605 h -42.93 v 35.711"
         style="fill:white;fill-opacity:1;fill-rule:nonzero;stroke:none"
         id="path14" />
      <path
         opacity="0.9"
         d="M 1050.18,440.316 V 11.7969 h -40.82 L 950.973,272.09 V 11.7969 H 912.691 V 440.316 h 35.223 l 63.976,-283.793 v 283.793 h 38.29"
         style="fill:white;fill-opacity:1;fill-rule:nonzero;stroke:none"
         id="path16" />
      <path
         opacity="0.9"
         d="M 202.523,440.316 V 11.7969 H 164.23 V 379.125 L 116.965,11.7969 H 85.0547 L 38.5586,379.125 V 11.7969 H 0 V 440.316 h 65.2188 l 37.3442,-258.312 35.226,258.312 h 64.734"
         style="fill:white;fill-opacity:1;fill-rule:nonzero;stroke:none"
         id="path18" />
      <path
         opacity="0.9"
         d="m 677.309,11.6875 c 30.312,41.1563 48.222,91.9645 48.222,147.0235 0,136.953 -111.043,248.004 -248.004,248.004 -136.98,0 -248.035,-111.051 -248.035,-248.004 0,-55.02 17.895,-105.8985 48.18,-147.0235 h 51.586 c -37.449,37.7656 -60.586,89.6285 -60.586,147.0235 0,115.32 93.5,208.832 208.855,208.832 115.328,0 208.844,-93.512 208.844,-208.832 0,-57.316 -23.094,-109.2579 -60.469,-147.0235 h 51.407"
         style="fill:white;fill-opacity:1;fill-rule:nonzero;stroke:none"
         id="path20" />
      <path
         opacity="0.9"
         d="m 1836.42,147.063 -25.93,236.246 -23.88,-236.246 z m 51.73,-135.2661 h -38.12 l -10.05,96.5311 h -57.04 l -9.31,-96.5311 h -38.85 l 43.91,428.5191 h 59.43 l 50.03,-428.5191"
         style="fill:white;fill-opacity:1;fill-rule:nonzero;stroke:none"
         id="path22" />
      <path
         opacity="0.9"
         d="m 1422.45,66.2695 c 0,-19.3359 -11.34,-29.1797 -24.35,-29.1797 -13,0 -24.35,9.8438 -24.35,29.1797 V 389.906 c 0,19.297 11.35,29.16 24.35,29.16 13.01,0 24.35,-9.863 24.35,-29.16 l -0.08,-15.472 v -80.789 h 39.2 v 62.289 l -0.1,17.988 c -0.27,53.414 -21.15,78.855 -64.73,78.855 -38.82,0 -64.08,-27.527 -64.08,-69.781 l 0.04,-15.734 V 99.0234 l -0.04,-17.3437 C 1332.66,26.7969 1354,0 1397.69,0 c 43.57,0 63.88,26.3086 63.88,82.8125 V 238.711 h -71.99 v -37.527 h 32.79 V 80.4805 l 0.08,-14.211"
         style="fill:white;fill-opacity:1;fill-rule:nonzero;stroke:none"
         id="path24" />
      <path
         opacity="0.9"
         d="M 1583.14,76.5547 V 187.961 l -89.34,66.707 V 379.16 c 0,48.926 22.05,73.965 65.18,73.965 43.75,0 63.66,-24.848 63.96,-79.832 l 0.1,-17.098 v -63.136 h -39.9 v 84.699 l -0.12,12.148 c 0,19.297 -11.24,29.16 -24.08,29.16 -12.89,0 -24.12,-9.863 -24.12,-29.16 V 377.363 273.242 l 88.22,-66.594 V 77.8047 c 0,-50.4024 -22.42,-77.355481 -64.33,-77.355481 -42.44,0 -64.53,25.449181 -64.8,74.562481 l -0.11,16.961 V 175.82 h 41.02 V 77.5664 66.2695 c 0,-19.3359 11.23,-29.1797 24.12,-29.1797 12.84,0 24.08,9.8438 24.08,29.1797 l 0.12,10.2852"
         style="fill:white;fill-opacity:1;fill-rule:nonzero;stroke:none"
         id="path26" />
      <path
         opacity="0.9"
         d="M 790.68,406.582 V 236.895 h 13.75 c 25.234,0 37.109,11.582 37.109,36.179 v 87.328 c 0,35.176 -8.137,46.18 -34.18,46.18 z m 98.3,-394.7851 h -39.042 c -5.352,14.4414 -7.696,27.9687 -7.942,46.1015 l -0.312,21.9375 -0.145,11.0821 v 83.66 c 0,17.563 -10.684,25.551 -23.019,25.551 H 790.68 V 11.7969 H 752.418 V 440.316 h 49.91 c 56.067,0 77.649,-20.492 77.649,-75.336 v -80.449 c 0,-36.047 -6.036,-51.179 -34.239,-61.582 0.399,-0.129 0.789,-0.273 1.192,-0.398 26.629,-7.778 32.597,-17.895 32.898,-51.672 l 0.149,-15.566 V 77.0781 c 0,-28.4922 2.136,-43.9414 9.003,-65.2812"
         style="fill:white;fill-opacity:1;fill-rule:nonzero;stroke:none"
         id="path28" />
      <path
         opacity="0.9"
         d="M 1936.58,406.582 V 236.895 h 13.77 c 25.25,0 37.11,11.582 37.11,36.179 v 87.328 c 0,35.176 -8.14,46.18 -34.22,46.18 z m 98.3,-394.7851 h -39.05 c -5.35,14.4414 -7.68,27.9687 -7.94,46.1015 l -0.32,21.9375 -0.11,11.0821 v 83.66 c 0,17.563 -10.71,25.551 -23.06,25.551 h -27.82 V 11.7969 h -38.26 V 440.316 h 49.91 c 56.09,0 77.63,-20.492 77.63,-75.336 v -80.449 c 0,-36.047 -6.01,-51.179 -34.2,-61.582 0.37,-0.129 0.79,-0.273 1.16,-0.398 26.61,-7.778 32.63,-17.895 32.91,-51.672 l 0.13,-15.566 V 77.0781 c 0,-28.4922 2.16,-43.9414 9.02,-65.2812"
         style="fill:white;fill-opacity:1;fill-rule:nonzero;stroke:none"
         id="path30" />
      <path
         opacity="0.9"
         d="M 1297.32,440.316 V 11.7969 h -40.84 L 1198.15,272.09 V 11.7969 h -38.3 V 440.316 h 35.24 l 63.93,-283.793 v 283.793 h 38.3"
         style="fill:white;fill-opacity:1;fill-rule:nonzero;stroke:none"
         id="path32" />
      <path
         opacity="0.9"
         d="m 2068.55,397.027 c 0,23.883 19.39,43.309 43.27,43.309 23.9,0 43.29,-19.426 43.29,-43.309 0,-23.886 -19.39,-43.316 -43.29,-43.316 -23.88,0 -43.27,19.43 -43.27,43.316 z m -4.98,0 c 0,-26.617 21.63,-48.273 48.25,-48.273 26.61,0 48.28,21.656 48.28,48.273 0,26.61 -21.67,48.266 -48.28,48.266 -26.62,0 -48.25,-21.656 -48.25,-48.266"
         style="fill:white;fill-opacity:1;fill-rule:nonzero;stroke:none"
         id="path34" />
      <path
         opacity="0.9"
         d="m 2101.26,398.621 h 14.24 c 5.89,0 10.03,1.887 10.03,8.227 0,6.3 -4.14,8.234 -10.03,8.234 h -14.24 z m -6.3,21.957 h 21.52 c 7.5,0 15.34,-2.871 15.34,-13.73 0,-6.086 -2.75,-11.961 -11.04,-13.309 l 13.12,-20.594 h -7.62 l -12.84,20.2 h -12.18 v -20.2 h -6.3 v 47.633"
         style="fill:white;fill-opacity:1;fill-rule:nonzero;stroke:none"
         id="path36" />
    </g>
  </g>
</svg>
