<svg width="300" height="83" viewBox="0 0 300 83" fill="none" xmlns="http://www.w3.org/2000/svg">
<path opacity="1" fill-rule="evenodd" clip-rule="evenodd" d="M42.8755 13.7913C39.078 15.8706 33.3684 19.2094 30.1874 21.2106L24.4045 24.85L24.2023 40.7097L24 56.5702L26.1062 53.5874C27.2639 51.9469 31.6652 45.5653 35.8866 39.407L43.5607 28.2093H49.1405H54.7204L51.3475 32.9541C35.8485 54.7618 31.3614 61.8001 32.3496 62.7498C33.3766 63.7359 49.8779 73 50.6079 73C51.3431 73 67.6436 63.7002 72.7316 60.3781L77.7696 57.0879V41.5099C77.7696 32.9419 77.5173 25.9516 77.2098 25.9759C76.9023 26.0002 72.2838 32.4773 66.9473 40.3704L57.2446 54.7201L51.8334 54.7505C48.8577 54.7664 46.4223 54.6115 46.4223 54.4065C46.4223 54.2008 49.3719 49.8455 52.9776 44.7272C67.2533 24.4606 69.5663 20.8075 68.6094 20.043C66.9876 18.7471 51.158 9.98938 50.4579 10C50.0854 10.0061 46.6738 11.7119 42.8755 13.7913ZM97.175 41.4947V54.0209H99.0178H100.861L101.07 44.7583L101.28 35.4958L107.861 44.7583C117.063 57.7112 117.327 57.6201 117.327 41.4947C117.327 29.4748 117.266 28.9685 115.834 28.9685C114.421 28.9685 114.341 29.4748 114.341 38.562V48.1564L107.494 38.562C102.114 31.0243 100.274 28.9685 98.9103 28.9685H97.175V41.4947ZM124.044 41.4947V54.0209H132.627C140.713 54.0209 141.211 53.9328 141.211 52.5026C141.211 51.0966 140.713 50.9842 134.493 50.9842H127.776V46.8088V42.6334H133.801C139.138 42.6334 139.798 42.4816 139.577 41.3049C139.371 40.1996 138.357 39.9392 133.552 39.7547L127.776 39.533V35.7691V32.0051H134.12C139.966 32.0051 140.464 31.886 140.464 30.4868C140.464 29.0603 139.966 28.9685 132.254 28.9685H124.044V41.4947ZM145.257 30.297C145.486 31.0273 147.302 36.5791 149.291 42.6334C152.584 52.6506 153.069 53.6413 154.67 53.6413C156.268 53.6413 156.713 52.7409 159.535 43.7722C162.469 34.4474 162.688 34.0207 163.494 36.0401C163.963 37.2153 164.348 38.3578 164.348 38.5787C164.348 38.7997 165.382 42.3639 166.645 46.5006C168.639 53.0287 169.158 54.0209 170.581 54.0209C172.035 54.0209 172.661 52.6658 176.12 42.039C178.266 35.4487 180.021 29.7884 180.021 29.4597C180.021 29.1317 179.303 28.9723 178.426 29.1051C177.075 29.3109 176.391 30.8459 173.952 39.1496C172.369 44.5405 170.934 49.0932 170.764 49.2655C170.594 49.4386 170.281 48.9565 170.068 48.1943C169.855 47.4321 168.469 42.7951 166.988 37.8887C164.611 30.0093 164.104 28.9685 162.643 28.9685C161.162 28.9685 160.68 30.0442 158.043 39.2202C156.424 44.8578 154.885 49.2139 154.625 48.8988C154.25 48.4448 151.094 38.1217 148.939 30.297C148.716 29.4855 147.848 28.9685 146.708 28.9685C145.27 28.9685 144.937 29.2729 145.257 30.297ZM185.935 31.1875C181.971 35.2194 183.888 40.0303 190.327 42.2053C197.198 44.5268 199.066 47.4207 195.308 49.9252C192.987 51.4716 188.804 50.941 185.858 48.7257C183.812 47.1869 183.807 47.1869 183.01 48.7007C182.326 50.0004 182.563 50.4376 184.662 51.7555C187.961 53.8258 189.987 54.2866 193.615 53.7916C197.667 53.239 200.472 50.4065 200.472 46.8673C200.472 43.4397 198.89 41.7566 194.042 40.0265C189.223 38.3054 187.35 36.7537 187.639 34.7191C187.969 32.3946 191.302 31.5102 195.463 32.6421C198.267 33.405 199.045 33.3982 199.54 32.6056C199.876 32.0666 200.155 31.4031 200.162 31.1306C200.184 30.1892 195.459 28.9685 191.795 28.9685C188.725 28.9685 187.756 29.3352 185.935 31.1875ZM212.115 41.5805V54.1932L219.765 53.8827C227.89 53.554 230.077 52.7645 231.468 49.661C232.766 46.7618 232.402 44.9314 230.052 42.5416C228.429 40.8912 228.112 40.1821 228.864 39.8883C230.677 39.1808 231.844 35.2285 230.877 33.0702C229.608 30.2355 225.778 28.9685 218.483 28.9685H212.115V41.5805ZM234.506 31.246C234.506 33.4726 234.589 33.5235 238.238 33.5235H241.97V43.7722V54.0209H244.56H247.151L247.359 43.962L247.567 33.903L251.113 33.6715C254.488 33.4513 254.658 33.3329 254.658 31.2042V28.9685H244.582H234.506V31.246ZM262.114 30.6766C257.775 33.6799 256.524 36.1023 256.524 41.4947C256.524 46.887 257.775 49.3095 262.114 52.3128C266.602 55.42 276.34 53.7506 276.898 49.7787C277.294 46.9629 275.455 46.2949 272.038 48.0144C269.231 49.4272 268.778 49.4598 266.35 48.4289C260.976 46.1446 259.968 39.2969 264.443 35.4669C267.162 33.1401 269.855 33.0027 273.115 35.0243C275.481 36.491 275.54 36.4918 276.287 35.0714C277.618 32.5419 277.129 31.2027 274.46 30.0685C270.496 28.3839 265.038 28.6527 262.114 30.6766ZM224.682 34.19C225.231 34.5445 225.567 35.6491 225.428 36.6459C225.204 38.2576 224.743 38.4831 221.258 38.6873L217.34 38.9173V36.22C217.34 33.5516 217.373 33.5235 220.512 33.5349C222.256 33.5417 224.133 33.8362 224.682 34.19ZM225.115 43.8534C226.769 44.4987 226.593 47.7327 224.853 48.6802C224.058 49.1121 222.043 49.4659 220.374 49.4659H217.34V46.4293V43.3926H220.637C222.451 43.3926 224.466 43.5998 225.115 43.8534Z" fill="white"/>
</svg>
