<?xml version="1.0" standalone="no"?>
<!DOCTYPE svg PUBLIC "-//W3C//DTD SVG 20010904//EN"
 "http://www.w3.org/TR/2001/REC-SVG-20010904/DTD/svg10.dtd">
<svg version="1.0" xmlns="http://www.w3.org/2000/svg"
 width="1600.000000pt" height="463.000000pt" viewBox="0 0 1600.000000 463.000000"
 preserveAspectRatio="xMidYMid meet">

<g transform="translate(0.000000,463.000000) scale(0.100000,-0.100000)"
fill="white" stroke="none">
<path opacity="0.9" d="M2055 4615 c-1169 -135 -2053 -1125 -2053 -2300 0 -1279 1036 -2313
2318 -2313 472 0 905 132 1295 396 755 510 1139 1402 989 2302 -158 949 -895
1701 -1855 1891 -188 37 -489 47 -694 24z m1315 -822 c0 -5 7 -55 15 -113 18
-134 18 -268 0 -395 -8 -55 -15 -106 -15 -112 0 -10 -76 -13 -345 -13 l-345 0
0 -1144 c0 -1081 -1 -1145 -17 -1150 -34 -10 -278 -36 -343 -36 -65 0 -309 26
-342 36 -17 5 -18 69 -18 1150 l0 1144 -344 0 -344 0 -12 63 c-27 143 -24 367
7 545 l5 32 1049 0 c577 0 1049 -3 1049 -7z"/>
<path opacity="0.9" d="M8852 2328 l3 -813 145 0 145 0 5 275 c5 259 6 277 27 316 61 114
202 163 314 110 50 -24 98 -73 123 -126 19 -42 21 -66 24 -313 l3 -268 142 3
142 3 0 280 c0 315 -5 345 -76 455 -140 217 -404 295 -631 186 l-68 -32 0 368
0 368 -150 0 -150 0 2 -812z"/>
<path opacity="0.9" d="M12452 2328 l3 -813 140 0 140 0 3 813 2 812 -145 0 -145 0 2 -812z"/>
<path opacity="0.9" d="M12910 2325 l0 -815 140 0 140 0 0 815 0 815 -140 0 -140 0 0 -815z"/>
<path opacity="0.9" d="M5480 2895 l0 -155 215 0 215 0 0 -615 0 -616 153 3 152 3 2 590 c1
325 2 600 2 613 l1 22 210 0 210 0 0 155 0 155 -580 0 -580 0 0 -155z"/>
<path opacity="0.9" d="M10120 2601 l0 -449 278 -4 c302 -3 308 -4 363 -65 40 -42 49 -66 49
-125 0 -62 -21 -103 -75 -144 -33 -25 -47 -28 -126 -32 l-89 -4 0 -129 0 -129
93 0 c148 0 235 32 335 124 41 39 71 78 98 132 36 71 39 83 42 178 6 151 -27
243 -126 349 l-45 48 20 37 c121 217 27 507 -199 614 -86 41 -144 48 -388 48
l-230 0 0 -449z m483 173 c69 -35 99 -82 99 -154 0 -55 -20 -98 -62 -133 -39
-34 -88 -47 -172 -47 l-68 0 0 175 0 175 85 0 c59 0 96 -5 118 -16z"/>
<path opacity="0.9" d="M13370 2895 l0 -155 140 0 140 0 0 155 0 155 -140 0 -140 0 0 -155z"/>
<path opacity="0.9" d="M7053 2476 c-128 -31 -270 -143 -325 -256 -100 -207 -66 -421 92
-581 151 -153 381 -193 572 -100 48 23 158 107 158 120 0 4 -45 38 -100 74
l-99 67 -51 -32 c-43 -27 -61 -32 -113 -32 -95 1 -167 46 -213 135 l-15 29
355 0 355 0 6 53 c8 68 -16 183 -55 264 -58 118 -190 222 -325 258 -70 18
-170 18 -242 1z m253 -267 c33 -20 83 -83 97 -121 6 -17 -9 -18 -218 -18
l-225 0 11 27 c49 130 216 186 335 112z"/>
<path opacity="0.9" d="M8244 2476 c-89 -21 -180 -71 -250 -138 -203 -195 -206 -497 -6 -695
140 -139 353 -190 536 -129 71 24 146 62 146 74 0 5 -108 201 -116 211 -2 2
-12 -3 -21 -11 -66 -58 -191 -71 -273 -29 -117 60 -171 159 -149 276 18 96 97
172 205 196 67 15 142 1 198 -37 21 -14 39 -24 41 -22 3 3 100 169 116 200 7
13 0 22 -37 43 -110 64 -267 89 -390 61z"/>
<path opacity="0.9" d="M14244 2480 c-293 -45 -489 -312 -430 -588 50 -238 258 -402 511
-402 318 0 563 269 517 566 -43 275 -315 468 -598 424z m170 -254 c119 -50
181 -187 143 -317 -29 -98 -106 -164 -205 -176 -75 -8 -130 12 -189 71 -107
107 -107 260 -1 366 64 65 173 89 252 56z"/>
<path opacity="0.9" d="M15440 2471 c-34 -11 -108 -49 -144 -74 -16 -12 -31 -17 -33 -11 -2
5 -12 24 -23 42 l-20 32 -110 0 -110 0 0 -475 0 -476 138 3 137 3 5 275 c6
311 8 323 90 393 82 70 188 70 269 0 83 -70 85 -82 91 -393 l5 -275 133 -3
132 -3 0 273 c0 195 -4 287 -14 323 -61 229 -235 376 -444 374 -42 0 -88 -4
-102 -8z"/>
<path opacity="0.9" d="M11290 2183 c0 -304 3 -325 61 -433 36 -68 119 -153 186 -193 190
-110 415 -82 575 71 68 65 110 127 140 208 21 55 22 76 22 339 l1 280 -140 0
-140 0 -5 -270 c-5 -255 -6 -272 -27 -312 -85 -159 -293 -153 -369 11 -23 50
-24 59 -24 314 l0 262 -140 0 -140 0 0 -277z"/>
<path opacity="0.9" d="M13370 1985 l0 -475 140 0 140 0 0 475 0 475 -140 0 -140 0 0 -475z"/>
</g>
</svg>
