<svg width="170" height="62" viewBox="0 0 170 62" fill="none" xmlns="http://www.w3.org/2000/svg">
<g clip-path="url(#clip0_983_1687)">
<path opacity="0.9" fill-rule="evenodd" clip-rule="evenodd" d="M60.7083 18.6574V37.3148H65.3009H69.8935V30.1389C69.8935 25.4028 69.8935 22.8194 69.8935 22.5324C70.037 21.8148 70.1806 21.0972 70.6111 20.5231C71.1852 19.5185 72.1898 19.088 73.338 19.2315C74.9167 19.375 75.9213 20.2361 76.2083 22.1018C76.2083 22.3889 76.2083 25.2593 76.2083 29.8518V37.1713H80.8009H85.3935V28.5602C85.3935 21.2407 85.3935 19.8056 85.25 19.088C84.963 16.5046 84.1019 14.4954 82.5231 13.0602C81.2315 11.7685 79.6528 11.0509 77.787 10.7639C77.0694 10.6204 75.0602 10.7639 74.4861 10.9074C72.7639 11.338 71.4722 11.912 70.3241 13.2037L69.6065 13.7778V6.88889V0H65.0139H60.4213V18.6574H60.7083ZM158.301 0.287037C158.014 0.861111 148.685 23.3935 148.685 23.3935C148.685 23.3935 151.125 23.3935 154.139 23.3935H159.593L164.472 11.7685C167.199 5.31018 169.352 0 169.352 0C169.352 0 166.912 0 163.898 0H158.444L158.301 0.287037ZM40.6157 10.9074C38.6065 11.1944 37.0278 11.7685 35.4491 12.7731C32.2917 14.7824 30.2824 18.2269 29.7083 22.2454C29.4213 24.1111 29.5648 26.4074 29.9954 28.1296C31.1435 32.5787 34.1574 36.0231 38.0324 37.3148C39.4676 37.7454 40.0417 37.8889 41.7639 37.8889C43.0556 37.8889 43.4861 37.8889 43.9167 37.7454C45.7824 37.3148 47.0741 36.5972 48.2222 35.4491L48.7963 34.875V36.0231V37.3148H53.2454H57.6944V24.3981V11.4815H53.2454H48.7963V12.6296V13.7778L48.3657 13.3472C47.3611 12.3426 45.9259 11.4815 44.0602 11.0509C43.4861 10.9074 43.1991 10.9074 42.0509 10.9074C41.3333 10.9074 40.6157 10.9074 40.6157 10.9074ZM99.1713 10.9074C96.7315 11.1944 94.1482 12.3426 92.2824 13.7778C88.6944 16.7917 86.8287 21.5278 87.5463 26.4074C88.2639 31.8611 92.1389 36.0231 97.5926 37.4583C98.7407 37.7454 99.8889 37.8889 101.324 37.8889C103.907 37.8889 105.773 37.4583 107.782 36.4537C111.801 34.4444 114.384 30.8565 114.958 26.4074C115.102 25.2593 115.102 23.3935 114.958 22.3889C114.671 20.2361 113.81 18.0833 112.519 16.3611C111.944 15.6435 110.796 14.3519 110.079 13.7778C108.069 12.1991 105.773 11.1944 103.19 10.9074C102.185 10.7639 100.176 10.7639 99.1713 10.9074ZM128.449 10.9074C126.009 11.1944 123.569 12.1991 121.704 13.7778C120.986 14.3519 119.694 15.6435 119.264 16.3611C117.972 18.0833 117.255 20.2361 116.824 22.3889C116.681 23.3935 116.681 25.4028 116.824 26.4074C117.685 32.1481 121.847 36.5972 127.588 37.7454C128.736 38.0324 129.31 38.0324 130.602 38.0324C133.042 38.0324 135.194 37.6018 137.204 36.4537C142.514 33.7268 145.384 27.6991 144.093 21.5278C142.944 15.787 138.352 11.625 132.468 10.9074C131.463 10.7639 129.454 10.7639 128.449 10.9074ZM0 11.4815C0 11.4815 2.43981 17.3657 5.4537 24.5417C8.46759 31.7176 10.9074 37.6019 10.9074 37.6019C10.9074 37.6019 10.0463 39.7546 8.89815 42.338C7.75 44.9213 6.88889 46.9306 6.88889 47.0741C6.88889 47.2176 9.04167 47.0741 11.7685 47.0741H16.6481L23.9676 29.4213C27.9861 19.662 31.287 11.7685 31.287 11.625C31.287 11.625 30.2824 11.4815 26.4074 11.625H21.5278L18.5139 19.088C17.2222 23.1065 15.787 26.5509 15.787 26.5509C15.787 26.5509 14.4954 23.1065 12.7731 19.088L9.90278 11.4815H5.02315C2.2963 11.4815 0 11.4815 0 11.4815ZM45.0648 19.375C46.9306 19.8056 48.3657 21.2407 48.9398 23.1065C49.0833 23.8241 49.0833 25.1157 48.9398 25.8333C48.5093 27.6991 47.0741 29.1343 45.2083 29.5648C44.4907 29.7083 43.1991 29.7083 42.4815 29.5648C40.9028 29.1343 39.4676 27.9861 38.8935 26.5509C38.1759 24.9722 38.463 22.963 39.3241 21.5278C40.6157 19.5185 42.7685 18.8009 45.0648 19.375ZM102.185 19.375C104.194 19.662 105.773 21.2407 106.204 23.25C106.347 23.9676 106.347 25.1157 106.204 25.8333C105.773 27.6991 104.338 28.9907 102.616 29.5648C102.042 29.7083 100.463 29.7083 99.8889 29.5648C98.4537 29.1343 97.3056 28.1296 96.588 26.838C96.3009 25.9769 96.1574 25.4028 96.1574 24.3981C96.1574 23.537 96.3009 23.1065 96.588 22.3889C97.0185 21.5278 97.5926 20.6667 98.4537 20.0926C99.4583 19.375 100.894 19.088 102.185 19.375ZM131.463 19.375C133.185 19.662 134.62 20.8102 135.194 22.3889C135.481 23.1065 135.625 23.537 135.625 24.3981C135.625 25.4028 135.481 25.8333 135.194 26.6944C134.62 27.9861 133.329 28.9907 131.894 29.4213C131.319 29.5648 129.741 29.5648 129.167 29.4213C127.444 28.9907 126.009 27.5556 125.579 25.6898C125.435 24.9722 125.435 23.6806 125.579 22.963C126.153 20.6667 128.162 19.088 130.458 19.088C130.745 19.2315 131.176 19.2315 131.463 19.375ZM150.838 25.6898C148.111 25.9768 146.102 27.9861 145.528 30.5694C145.384 31.287 145.384 32.5787 145.528 33.2963C146.102 35.5926 147.824 37.1713 150.12 37.7454C150.407 37.7454 150.981 37.8889 151.412 37.8889C153.134 37.8889 154.569 37.3148 155.718 36.1667C157.009 34.875 157.44 33.5833 157.44 31.8611C157.44 29.7083 156.435 27.8426 154.713 26.838C153.708 25.9769 152.13 25.5463 150.838 25.6898ZM75.2037 39.7546C73.338 40.3287 72.4769 42.4815 73.4815 44.0602C73.7685 44.4907 74.3426 45.0648 74.7731 45.2083C75.2037 45.3518 75.2037 45.3518 76.0648 45.3518C76.7824 45.3518 76.9259 45.3518 77.3565 45.2083C77.9306 44.9213 78.5046 44.3472 78.7917 43.7731C79.5093 42.338 78.7917 40.6157 77.3565 39.8981C76.9259 39.6111 76.7824 39.6111 76.2083 39.6111C75.7778 39.6111 75.4907 39.7546 75.2037 39.7546ZM67.5972 39.8981C65.1574 40.3287 63.5787 41.9074 62.8611 44.4907C62.7176 44.9213 62.7176 45.3518 62.7176 45.9259V46.9306H61.713H60.7083V49.0833V51.2361H61.713H62.7176V56.4028V61.5694H65.4444H68.1713V56.4028V51.2361H70.037H71.9028V49.0833V46.9306H70.037H68.1713V46.5C68.3148 45.4954 68.7454 44.7778 69.6065 44.6343C70.1806 44.4907 71.0417 44.4907 71.6157 44.7778C71.9028 44.9213 72.0463 44.9213 72.0463 44.9213C72.0463 44.9213 72.0463 43.9167 72.0463 42.625V40.3287L71.4722 40.1852C70.8981 39.8981 70.1806 39.8981 69.1759 39.8981C68.4583 39.7546 68.0278 39.8981 67.5972 39.8981ZM89.412 46.6435C88.2639 46.9306 87.4028 47.5046 86.8287 48.2222L86.5417 48.6528V47.7917V46.9306H83.8148H81.088V54.25V61.5694H83.8148H86.5417V57.5509C86.5417 55.2546 86.5417 53.3889 86.5417 53.1018C86.6852 52.5278 86.9722 51.9537 87.2593 51.6667C87.9769 51.0926 89.2685 51.2361 89.8426 51.9537C90.2731 52.5278 90.2732 52.5278 90.2732 57.1204V61.4259H93H95.7268V56.5463C95.7268 51.3796 95.7269 50.8056 95.4398 49.8009C95.1528 48.9398 94.8657 48.2222 94.1481 47.6481C93.5741 47.0741 93 46.6435 92.1389 46.5C91.2778 46.5 89.9861 46.5 89.412 46.6435ZM103.046 46.5C102.185 46.6435 100.894 47.0741 100.176 47.6481C98.5972 48.7963 97.5926 50.5185 97.162 52.6713C97.0185 53.5324 97.0185 55.1111 97.162 55.9722C97.4491 57.2639 97.8796 58.5556 98.5972 59.4167C99.6018 60.7083 100.894 61.5694 102.472 61.8565C103.333 62 104.769 62 105.486 61.713C106.347 61.4259 106.921 61.1389 107.639 60.5648L108.213 59.9907V60.7083V61.4259H110.94H113.667V54.1065V46.787H110.94H108.213V47.5046V48.2222L107.926 47.7917C107.208 47.0741 106.204 46.5 105.056 46.3565C104.481 46.5 103.477 46.5 103.046 46.5ZM123.856 46.6435C122.852 46.787 121.847 47.5046 121.273 48.2222L120.986 48.5093V47.6481V46.787H118.259H115.532V54.1065V61.4259H118.259H120.986V57.2639C120.986 52.8148 120.986 52.8148 121.273 52.0972C121.56 51.5231 122.134 51.2361 122.708 51.2361C123.282 51.2361 123.569 51.3796 124 51.6667C124.574 52.2407 124.574 52.0972 124.574 56.9768V61.2824H127.301H130.028V55.9722C130.028 50.662 130.028 50.662 129.884 50.088C129.741 49.8009 129.597 49.2268 129.454 48.7963C129.167 48.2222 129.023 48.0787 128.593 47.6481C128.019 47.0741 127.588 46.787 127.014 46.5C126.009 46.5 124.861 46.5 123.856 46.6435ZM138.065 46.6435C135.625 47.0741 133.759 48.2222 132.611 50.2315C132.324 50.8056 132.037 51.5231 131.75 52.2407C131.606 52.9583 131.606 53.1018 131.606 54.25C131.606 55.5417 131.606 55.9722 132.037 56.9768C132.898 59.4167 134.907 61.2824 137.634 61.8565C138.065 62 138.495 62 139.5 62C140.935 62 141.509 61.8565 142.514 61.4259L143.088 61.1389V58.6991V56.2593L142.657 56.5463C141.94 56.9768 141.509 57.1204 140.648 57.1204C139.787 57.1204 139.356 57.1204 138.782 56.8333C138.208 56.5463 137.778 56.1157 137.491 55.5417C137.347 55.1111 137.347 55.1111 137.347 54.3935C137.347 53.8194 137.347 53.6759 137.491 53.2454C137.921 52.0972 138.926 51.5231 140.361 51.3796C141.366 51.3796 141.796 51.3796 143.231 52.0972C143.231 52.0972 143.231 50.9491 143.231 49.6574V47.2176L142.801 47.0741C141.222 46.6435 139.5 46.3565 138.065 46.6435ZM150.407 46.6435C146.245 47.3611 143.662 50.9491 143.949 55.1111C144.093 56.5463 144.523 57.838 145.241 58.8426C146.245 60.4213 147.824 61.4259 149.833 61.8565C150.694 62 152.991 62 153.995 61.8565C155.431 61.5694 156.722 60.8518 157.727 59.8472C158.157 59.4167 158.875 58.412 158.875 58.412C158.875 58.412 157.87 57.9815 156.579 57.5509L154.282 56.6898L153.995 56.9768C153.565 57.4074 153.278 57.5509 152.704 57.6944C151.125 58.125 149.546 57.2639 149.259 55.8287V55.5417H154.282H159.306V54.25C159.306 53.3889 159.306 52.8148 159.162 52.5278C158.875 50.8055 158.157 49.6574 157.153 48.5093C156.148 47.5046 155 46.9306 153.421 46.6435C152.704 46.5 150.981 46.5 150.407 46.6435ZM73.4815 54.25V61.5694H76.2083H78.9352V54.25V46.9306H76.2083H73.4815V54.25ZM152.56 50.662C152.991 50.8056 153.134 50.9491 153.565 51.2361C153.852 51.5231 154.139 51.8102 154.139 52.2407V52.5278H151.699C148.972 52.5278 149.116 52.5278 149.403 51.9537C149.69 50.9491 151.125 50.375 152.56 50.662ZM106.06 51.5231C106.778 51.6667 107.639 52.3843 107.926 53.1018C108.644 54.6806 107.926 56.5463 106.204 57.1204C105.63 57.2639 104.769 57.2639 104.194 57.1204C103.333 56.8333 102.472 56.1157 102.329 55.2546C102.185 54.8241 102.185 54.6806 102.185 54.25C102.185 53.6759 102.185 53.5324 102.472 53.1018C103.19 51.6667 104.625 51.0926 106.06 51.5231Z" fill="white"/>
</g>
<defs>
<clipPath id="clip0_983_1687">
<rect width="170" height="62" fill="white"/>
</clipPath>
</defs>
</svg>
