<svg width="377" height="100" viewBox="0 0 377 100" fill="none" xmlns="http://www.w3.org/2000/svg">
<path opacity="1" fill-rule="evenodd" clip-rule="evenodd" d="M41.1759 28.2274C36.5545 28.875 29.9554 30.3352 26.1739 31.5462C23.0872 32.5346 22.2448 33.0228 20.5042 34.8313C16.4139 39.0806 14.7526 43.6752 16.9415 44.6852C17.7476 45.0572 18.7568 44.8853 22.0648 43.8121C24.3305 43.0768 26.5565 42.4754 27.012 42.4754C28.4315 42.4754 30.0224 41.506 30.2749 40.4873C30.4638 39.7239 31.1348 39.323 33.3569 38.6452C42.957 35.7156 50.3575 35.2689 52.1924 37.5081C53.5462 39.1601 49.2251 42.0685 43.1916 43.5663C41.5508 43.9733 40.0878 44.1841 39.9402 44.0346C39.7922 43.8851 40.1659 43.2298 40.7698 42.5791C42.1368 41.1059 44.0877 38.1799 44.0877 37.6027C44.0877 36.851 40.011 37.6118 37.7096 38.7929C36.511 39.4085 34.1093 41.2792 32.3721 42.9502C29.2999 45.9066 29.1352 45.9999 26.3078 46.3913C22.0636 46.9788 19.8341 47.9228 19.4993 49.2746C19.0476 51.0977 19.7608 51.7738 23.091 52.6772C23.4357 52.7705 22.6756 54.2515 21.0122 56.7278C17.8577 61.4247 17.4742 63.2366 19.002 66.2206C20.4901 69.1259 23.0757 70.279 28.0933 70.2743C37.0583 70.2665 46.1538 66.5844 50.5465 61.185L51.6687 59.806L51.8469 62.481C52.4138 70.9776 58.9267 73.0007 67.5313 67.3529C70.7831 65.2188 75.2236 60.8372 75.2236 59.7628C75.2236 58.7203 77.1463 56.7321 78.1538 56.7321C78.6153 56.7321 79.3195 56.6051 79.7195 56.4496C80.2134 56.2578 79.9618 56.8803 78.9343 58.3933C75.9909 62.7277 75.7047 66.6881 78.1738 68.9229C80.4485 70.981 82.9223 70.3961 87.7662 66.6548L89.8933 65.0118L90.6162 66.647C91.4458 68.5233 92.8755 69.6928 94.3415 69.6928C95.4014 69.6928 95.9639 69.1653 100.971 63.4743C102.582 61.6433 103.986 60.2328 104.092 60.3399C104.198 60.4467 103.791 61.5194 103.189 62.723C101.149 66.8017 102.091 69.6928 105.46 69.6928C106.954 69.6928 107.543 69.3035 111.325 65.8154C113.638 63.6829 115.651 61.9332 115.799 61.9272C115.948 61.9211 115.812 62.6452 115.498 63.5365C114.1 67.5054 115.449 70.5119 118.643 70.543C120.302 70.5594 121.67 69.8945 125.961 66.9866C128.076 65.554 129.203 65.0148 129.322 65.379C129.679 66.463 132.508 69.2776 133.491 69.5277C134.656 69.8237 136.85 68.6326 140.66 65.6344C142.049 64.5418 143.244 63.7062 143.314 63.7784C143.386 63.8501 143.241 64.6498 142.995 65.5553C142.748 66.4604 142.672 67.7132 142.826 68.3388C143.791 72.2542 147.577 71.8438 153.86 67.1425L156.136 65.4399L156.822 66.8972C157.688 68.7363 159.344 69.8703 160.671 69.5329C161.653 69.2832 163.959 66.987 166.91 63.3205C167.723 62.3104 168.513 61.4844 168.666 61.4844C168.819 61.4844 168.656 62.5329 168.303 63.8147C167.561 66.5178 167.82 68.0455 169.269 69.5139C171.66 71.9354 175.326 70.3952 181.794 64.2515L185.786 60.4592L185.524 58.522C185.38 57.4562 185.182 56.5036 185.084 56.4047C184.987 56.3057 183.225 57.6027 181.17 59.2867C174.641 64.6364 173.873 62.4046 179.978 55.821C182.28 53.3382 182.706 52.637 182.706 51.3349C182.706 49.666 181.799 47.0795 181.049 46.6099C180.308 46.1459 176.991 47.8455 173.132 50.6679C171.17 52.1022 169.461 53.276 169.333 53.276C169.206 53.276 169.314 52.6608 169.573 51.9086C169.99 50.6964 169.934 50.4514 169.077 49.7485C167.744 48.6551 164.977 48.7138 163.326 49.8708C161.566 51.1038 159.219 54.2165 157.612 57.4493C156.263 60.1611 154.923 61.4446 152.259 62.5718C149.052 63.9287 148.868 62.3018 151.789 58.4131C154.3 55.0693 154.682 54.2346 154.384 52.7295C154.241 52.0037 154.338 51.1664 154.602 50.8437C155.944 49.2055 153.082 46.3636 150.09 46.3636C147.774 46.3636 141.162 48.7212 137.709 50.7789C133.517 53.276 131.369 55.1479 129.603 57.8433C127.423 61.1699 122.994 63.6492 122.994 61.5427C122.994 60.6817 123.605 59.7978 127.143 55.5385C128.564 53.8277 129.392 52.4288 129.392 51.7358C129.392 50.4782 127.746 47.3504 126.912 47.022C126.086 46.6972 124.547 47.6619 119.795 51.4814C117.449 53.3671 115.478 54.8628 115.415 54.8053C115.353 54.7479 115.684 53.8454 116.152 52.8003C117.3 50.238 117.263 48.4706 116.035 47.3029C114.123 45.4827 111.702 46.3917 105.933 51.0956C103.939 52.7217 102.24 53.9871 102.157 53.908C102.075 53.8285 102.315 53.3192 102.691 52.7757C103.637 51.407 103.567 49.5226 102.549 48.9709C99.0805 47.0907 94.2873 50.4821 91.1745 57.019C89.9743 59.5398 89.3205 60.3611 87.6498 61.4472C85.411 62.9023 84.282 63.1191 83.9195 62.1626C83.5053 61.0692 85.0382 58.5795 87.6037 56.1779C90.9903 53.0077 91.4032 50.9094 89.1592 48.2671L88.1727 47.1054L84.6812 47.6225C81.098 48.1535 80.3418 48.0477 80.3418 47.0151C80.3418 46.247 78.9015 45.7908 77.6761 46.1714C77.148 46.3351 75.9338 47.1115 74.9771 47.8964L73.2377 49.3238L72.502 48.0623C71.5999 46.5157 70.4406 46.1917 66.7657 46.46C61.8356 46.8203 57.1814 49.9507 53.8456 55.1509C52.3306 57.5128 52.2103 57.6057 51.9617 56.6025C51.3036 53.9469 46.9761 51.668 40.2115 50.4143C35.7113 49.5805 35.7766 49.501 42.063 48.1496C51.9352 46.0275 58.2827 41.9488 58.8935 37.3348C59.427 33.3071 57.7508 30.661 53.6921 29.123C51.0848 28.1349 44.9621 27.6969 41.1759 28.2274ZM280.331 28.211C276.142 28.7411 269.133 30.248 265.025 31.5021C261.729 32.5083 261.18 32.8397 258.995 35.1449C256.628 37.642 254.362 41.4757 254.362 42.9822C254.362 43.4056 254.838 44.0683 255.421 44.455C256.418 45.1164 256.68 45.0939 259.793 44.0813C261.615 43.489 264.209 42.7744 265.557 42.4932C268.031 41.9778 269.29 41.1725 269.29 40.1045C269.29 39.0456 278.457 36.5969 284.005 36.174C288.43 35.8366 290.767 36.536 290.963 38.255C291.077 39.2547 290.784 39.6362 289.044 40.7547C286.941 42.1061 282.873 43.5646 279.833 44.0571L278.125 44.3336L279.918 42.0369C280.903 40.7737 282.006 39.1597 282.368 38.4503L283.027 37.1603L280.901 37.4152C277.668 37.8031 274.947 39.3334 271.418 42.7489L268.213 45.8504L264.171 46.5567C259.381 47.394 258.2 48.0394 258.2 49.8198C258.2 51.1941 259.206 52.0944 261.286 52.5834L262.454 52.8573L260.495 55.551C257.766 59.304 256.921 61.1483 256.921 63.3472C256.921 65.586 258.184 67.7439 260.187 68.9294C265.078 71.8226 277.764 69.86 284.911 65.1051C286.476 64.064 287.824 63.2124 287.906 63.2124C287.989 63.2124 288.057 63.6013 288.057 64.0765C288.057 64.5517 288.211 64.9405 288.401 64.9405C288.591 64.9405 290.537 63.0936 292.726 60.8363C294.915 58.579 296.92 56.7295 297.18 56.7261C297.44 56.7231 298.115 56.5952 298.679 56.4423C299.688 56.1688 299.681 56.2003 298.336 58.1811C295.508 62.3441 294.996 65.4317 296.707 68.0031C298.695 70.9914 301.398 70.781 306.242 67.2605C309.828 64.6545 309.617 64.6476 311.129 67.4195C313.104 71.0381 318.688 70.8856 323.468 67.0825C324.329 66.3969 325.785 65.7635 326.88 65.5981C328.716 65.3203 328.866 65.3842 330.801 67.2639C332.9 69.3031 335.896 70.5568 338.672 70.5568C341.702 70.5568 346.497 67.9379 351.129 63.7538C353.386 61.7142 353.417 61.6541 353.117 59.8552C352.95 58.8503 352.644 58.0282 352.439 58.0282C352.234 58.0282 350.571 59.1839 348.745 60.5961C346.918 62.0084 344.885 63.3684 344.226 63.619C343.051 64.0657 343.059 64.0372 344.711 62.0231C348.096 57.8977 348.606 55.7605 347.548 50.1296C346.714 45.691 346.083 44.6356 344.263 44.6356C342.386 44.6356 341.375 45.3821 340.482 47.4273C340.036 48.4468 338.855 50.0142 337.856 50.9102C336.857 51.8062 334.984 53.5322 333.694 54.7457C329.808 58.4006 330.064 58.3924 329.985 54.8654C329.836 48.2373 329.469 46.9667 327.553 46.4306C323.534 45.3069 315.923 48.5816 311.962 53.1386C310.378 54.9613 309.827 56.1334 309.195 59.018C308.912 60.3119 305.613 62.7804 304.167 62.7804C301.956 62.7804 303.198 59.9122 307.079 56.0578C309.455 53.6985 309.809 53.1403 309.809 51.7578C309.809 49.844 308.652 47.7072 307.45 47.4018C306.97 47.2795 305.336 47.3832 303.821 47.6325C300.142 48.2369 300.206 48.2464 299.65 47.0117C298.986 45.535 297.62 45.6223 295.116 47.3024C292.819 48.8439 290.81 51.398 290.397 53.301C290.245 54 290.037 54.572 289.934 54.572C289.83 54.572 289.013 54.1037 288.118 53.5313C286.232 52.3255 282.294 51.0403 278.041 50.2427C274.584 49.5943 274.622 49.5697 281.659 47.8805C289.928 45.8962 295.255 42.9144 296.98 39.3057C299.129 34.8079 296.998 30.4415 291.905 28.91C289.168 28.0866 283.853 27.7656 280.331 28.211ZM226.211 28.8063C219.145 30.7547 213.603 36.5719 213.023 42.6474L212.776 45.24L210.018 46.8535C204.172 50.2743 201.645 53.5343 200.554 59.0642C199.617 63.8108 201.467 67.6506 205.619 69.5757C207.556 70.4739 208.422 70.6229 210.894 70.4812C213.446 70.3352 214.424 70.0103 218.03 68.1111L222.209 65.9104L224.185 67.8014C226.734 70.2406 227.922 70.2829 230.056 68.01C230.925 67.0846 232.071 65.4175 232.603 64.305C233.413 62.6106 233.489 62.1043 233.074 61.1815C232.647 60.2328 232.38 60.1131 231.139 60.317C230.347 60.4471 229.588 60.4402 229.451 60.3019C229.314 60.1632 230.338 59.0093 231.726 57.737C233.403 56.1999 234.495 54.7712 234.983 53.4777C235.679 51.633 235.678 51.385 234.969 48.7315C234.557 47.1914 234.069 45.9316 233.885 45.9316C233.7 45.9316 231.663 47.4869 229.357 49.3878C227.052 51.2887 224.935 52.8439 224.653 52.8439C223.832 52.8439 222.246 48.1194 222.828 47.4087C223.091 47.0868 224.872 45.9156 226.785 44.8062C232.141 41.6995 234.155 40.0596 235.137 38.0058C236.879 34.3599 235.872 30.7716 232.616 29.0189C230.922 28.1069 228.981 28.0425 226.211 28.8063ZM228.857 34.3751C227.865 36.0137 222.689 40.1952 222.471 39.5338C222.389 39.2863 222.699 38.3401 223.159 37.4316C224.458 34.865 226.773 33.0094 228.706 32.984L229.707 32.971L228.857 34.3751ZM215.277 53.6C215.608 54.2536 216.18 55.5182 216.546 56.4103L217.213 58.0321L215.579 58.8763C213.597 59.9006 208.705 60.7737 208.142 60.2039C207.439 59.4919 208.721 57.2981 211.293 54.814C212.66 53.4928 213.98 52.4119 214.226 52.4119C214.472 52.4119 214.945 52.9463 215.277 53.6ZM39.6093 54.8468C41.0168 55.2058 42.6393 55.8072 43.2142 56.183L44.2605 56.8665L42.6184 58.3043C39.4992 61.0351 32.8366 62.8448 29.2602 61.9328C25.3695 60.9405 25.2548 59.9468 28.6085 56.2776L31.0435 53.6142L34.0466 53.9037C35.6985 54.0631 38.2018 54.4874 39.6093 54.8468ZM275.048 54.156C278.823 54.7012 282.077 55.7756 282.381 56.577C283.24 58.8456 273.567 62.7878 268.777 62.1203C266.133 61.7522 264.798 60.705 265.17 59.2893C265.321 58.7142 266.403 57.2238 267.574 55.9761C269.93 53.4678 270.06 53.4358 275.048 54.156ZM340.677 55.8348C341.027 58.0498 340.186 60.5227 338.705 61.6356L337.532 62.5173L336.034 61.0463L334.536 59.5753L337.194 56.8579C338.657 55.3631 339.979 54.14 340.132 54.14C340.284 54.14 340.53 54.9025 340.677 55.8348ZM71.1422 56.552C71.3704 57.4713 71.0945 58.042 69.6251 59.688C65.7962 63.9789 59.0159 65.5812 59.0159 62.1955C59.0159 61.3768 59.5797 60.9621 62.3214 59.7632C64.1392 58.9683 66.6826 57.6065 67.9728 56.7369C69.263 55.8672 70.4415 55.2166 70.5912 55.2918C70.7413 55.3665 70.9891 55.9338 71.1422 56.552ZM143.026 57.4117C138.488 62.0983 134.083 64.8593 134.083 63.0167C134.083 61.6222 135.18 60.1235 137.265 58.6689C139.277 57.2657 143.956 55.039 144.945 55.0144C145.171 55.0088 144.308 56.0876 143.026 57.4117ZM320.209 57.0562C320.013 57.7098 319.838 59.2884 319.819 60.565C319.778 63.3027 318.957 64.1858 316.633 63.9879C315.353 63.8786 315.121 63.6885 315.004 62.6543C314.824 61.0636 316.646 57.9496 318.436 56.7887C320.291 55.5851 320.634 55.6365 320.209 57.0562ZM357.056 61.0065C354.129 63.6095 353.19 67.7288 355.217 69.0737C357.036 70.2807 359.326 70.3447 360.725 69.2279C362.194 68.0545 363.967 64.3884 363.973 62.5091C363.978 60.7616 363.148 60.1054 360.62 59.8591C358.793 59.6815 358.406 59.806 357.056 61.0065Z" fill="white"/>
</svg>
