<svg width="108" height="80" viewBox="0 0 108 80" fill="none" xmlns="http://www.w3.org/2000/svg">
<path fill-rule="evenodd" clip-rule="evenodd" d="M37.5764 1.78086C36.9121 2.78619 35.5658 4.52958 34.5844 5.65538C33.6028 6.78118 31.2386 9.54452 29.3306 11.7961C23.7712 18.3559 17.2169 24.4238 11.3955 28.4001C8.68482 30.2517 7.07916 31.157 5.8209 31.543C4.69743 31.888 4.5597 31.3901 5.02026 28.644C5.22583 27.4191 5.43637 26.088 5.48813 25.6859C5.61357 24.7139 6.40836 21.1131 6.77183 19.8692C7.07975 18.8159 6.97126 18.3752 6.40368 18.3758C5.96915 18.3764 4.84452 20.8751 4.30676 23.0349C3.22453 27.3816 2.952 29.4481 3.29325 30.7239C3.72807 32.3509 4.04622 32.7039 5.07757 32.7039C7.45638 32.7039 15.0098 27.3413 21.4 21.116C22.7629 19.7882 23.9188 18.7425 23.9685 18.7925C24.0183 18.8422 23.4954 20.0519 22.8062 21.4804C21.6441 23.8899 21.5535 24.2507 21.5535 26.4737C21.5535 28.8145 21.5772 28.8946 22.5769 29.9353C24.5411 31.9799 26.9646 32.8448 32.1214 33.3419C34.68 33.5887 35.9456 33.5966 36.6539 33.37C37.618 33.0618 37.6063 33.0554 36.0281 33.0209C34.1867 32.9808 29.735 32.339 27.9434 31.8553C25.5324 31.2044 24.03 30.347 23.1208 29.1028C22.3024 27.9828 22.238 27.7293 22.3632 26.1117C22.5325 23.9232 23.4507 21.9354 26.3175 17.5518C28.3042 14.5141 30.4149 11.9502 33.1019 9.31059C35.7164 6.74229 38.7008 3.35026 39.4084 2.14288C40.0377 1.06883 40.1164 0.737523 39.8248 0.386331C39.2134 -0.350558 38.8259 -0.110485 37.5764 1.78086ZM53.6175 27.6337C51.2744 28.9475 48.983 29.7791 46.5551 30.197C44.967 30.4704 44.6544 30.6193 44.6544 31.1023C44.6544 31.586 44.8468 31.6772 45.8337 31.66C47.1654 31.6366 47.8619 31.3769 51.8542 29.4151C54.5103 28.1097 54.7269 28.0518 55.4782 28.4413C56.0595 28.7431 56.9642 28.818 58.7997 28.7162C60.5337 28.62 61.8593 28.7168 63.0412 29.0256C63.9869 29.273 64.8542 29.4171 64.9682 29.3467C65.0826 29.2759 66.845 29.1902 68.8843 29.1563C72.3494 29.0984 72.6526 29.1385 73.5047 29.7686C74.3197 30.371 74.6382 30.4254 76.4956 30.2783C77.6392 30.1879 79.1229 29.9169 79.7932 29.6759C80.6113 29.3818 82.2065 29.2306 84.6473 29.2157C91.7009 29.1721 106.734 27.889 107.345 27.2781C107.726 26.8971 106.902 26.8483 104.848 27.1293C101.729 27.5562 99.5415 27.667 89.8327 27.8898C82.9375 28.0483 81.2465 28.1711 80.0367 28.6007C79.2326 28.8864 77.8164 29.2121 76.8895 29.325C75.4324 29.5025 75.0589 29.4405 74.1314 28.8671C72.9954 28.165 72.5059 28.1249 67.0242 28.2823C65.4963 28.3261 63.8758 28.2203 63.4231 28.0475C62.9705 27.8743 61.2145 27.7328 59.5211 27.7328C56.6885 27.7328 56.4303 27.686 56.2896 27.148C56.0843 26.3628 55.7872 26.4169 53.6175 27.6337Z" fill="white"/>
<path d="M8.68055 56.2526H10.435C10.3437 57.0933 10.103 57.8457 9.71314 58.5097C9.32325 59.1737 8.77193 59.7007 8.05916 60.0906C7.3464 60.4744 6.45696 60.6663 5.39086 60.6663C4.61109 60.6663 3.90137 60.52 3.26171 60.2276C2.62814 59.9352 2.0829 59.521 1.626 58.9849C1.1691 58.4427 0.815765 57.7939 0.565993 57.0385C0.322313 56.277 0.200473 55.4302 0.200473 54.4981V53.1731C0.200473 52.241 0.322313 51.3973 0.565993 50.6419C0.815765 49.8804 1.17215 49.2285 1.63514 48.6863C2.10422 48.1441 2.66774 47.7268 3.32567 47.4344C3.98361 47.142 4.72379 46.9958 5.54621 46.9958C6.55139 46.9958 7.40123 47.1846 8.09571 47.5623C8.7902 47.94 9.32934 48.464 9.71314 49.1341C10.103 49.7981 10.3437 50.5687 10.435 51.446H8.68055C8.59526 50.8246 8.43687 50.2916 8.20537 49.8468C7.97387 49.396 7.64491 49.0488 7.21846 48.8051C6.79202 48.5614 6.23461 48.4396 5.54621 48.4396C4.95528 48.4396 4.43442 48.5523 3.98361 48.7777C3.53889 49.0031 3.16423 49.3229 2.85963 49.7372C2.56113 50.1514 2.33572 50.6479 2.18342 51.2267C2.03112 51.8054 1.95497 52.4481 1.95497 53.1548V54.4981C1.95497 55.1499 2.02198 55.7622 2.15601 56.3348C2.29612 56.9075 2.5063 57.4101 2.78653 57.8426C3.06676 58.2751 3.42314 58.6163 3.85568 58.8661C4.28821 59.1097 4.79994 59.2316 5.39086 59.2316C6.14018 59.2316 6.7372 59.1128 7.18191 58.8752C7.62663 58.6376 7.96169 58.2965 8.18709 57.8517C8.41859 57.407 8.58307 56.874 8.68055 56.2526Z" fill="white"/>
<path d="M22.7078 53.4107V54.2514C22.7078 55.2505 22.5829 56.146 22.3331 56.9379C22.0833 57.7299 21.7239 58.4031 21.2548 58.9574C20.7857 59.5118 20.2222 59.9352 19.5643 60.2276C18.9124 60.52 18.1814 60.6663 17.3712 60.6663C16.5853 60.6663 15.8634 60.52 15.2055 60.2276C14.5536 59.9352 13.9871 59.5118 13.5058 58.9574C13.0306 58.4031 12.662 57.7299 12.4001 56.9379C12.1381 56.146 12.0071 55.2505 12.0071 54.2514V53.4107C12.0071 52.4116 12.1351 51.5191 12.3909 50.7332C12.6529 49.9413 13.0215 49.2681 13.4966 48.7137C13.9718 48.1533 14.5353 47.7268 15.1872 47.4344C15.8451 47.142 16.567 46.9958 17.3529 46.9958C18.1631 46.9958 18.8942 47.142 19.546 47.4344C20.2039 47.7268 20.7675 48.1533 21.2365 48.7137C21.7117 49.2681 22.0742 49.9413 22.324 50.7332C22.5798 51.5191 22.7078 52.4116 22.7078 53.4107ZM20.9624 54.2514V53.3924C20.9624 52.6004 20.8802 51.8999 20.7157 51.2907C20.5573 50.6815 20.3227 50.1697 20.012 49.7555C19.7014 49.3412 19.3206 49.0275 18.8698 48.8143C18.4251 48.601 17.9194 48.4944 17.3529 48.4944C16.8046 48.4944 16.3081 48.601 15.8634 48.8143C15.4248 49.0275 15.0471 49.3412 14.7303 49.7555C14.4196 50.1697 14.1789 50.6815 14.0084 51.2907C13.8378 51.8999 13.7525 52.6004 13.7525 53.3924V54.2514C13.7525 55.0494 13.8378 55.7561 14.0084 56.3714C14.1789 56.9806 14.4226 57.4954 14.7394 57.9157C15.0623 58.33 15.443 58.6437 15.8817 58.8569C16.3264 59.0701 16.8229 59.1768 17.3712 59.1768C17.9438 59.1768 18.4525 59.0701 18.8972 58.8569C19.3419 58.6437 19.7166 58.33 20.0212 57.9157C20.3319 57.4954 20.5664 56.9806 20.7248 56.3714C20.8832 55.7561 20.9624 55.0494 20.9624 54.2514Z" fill="white"/>
<path d="M35.2089 47.1785V60.4835H33.4361L26.738 50.2215V60.4835H24.9743V47.1785H26.738L33.4636 57.4679V47.1785H35.2089Z" fill="white"/>
<path d="M45.0509 57.1207C45.0509 56.81 45.0022 56.5359 44.9047 56.2983C44.8133 56.0546 44.6489 55.8353 44.4113 55.6403C44.1798 55.4454 43.8569 55.2596 43.4426 55.0829C43.0345 54.9063 42.5167 54.7265 41.8892 54.5438C41.2312 54.3488 40.6373 54.1326 40.1073 53.895C39.5773 53.6513 39.1234 53.3741 38.7457 53.0634C38.368 52.7527 38.0786 52.3964 37.8776 51.9943C37.6766 51.5922 37.576 51.1323 37.576 50.6144C37.576 50.0966 37.6826 49.6184 37.8959 49.1798C38.1091 48.7411 38.4137 48.3604 38.8097 48.0375C39.2117 47.7086 39.69 47.4527 40.2443 47.2699C40.7987 47.0872 41.417 46.9958 42.0993 46.9958C43.0984 46.9958 43.9452 47.1877 44.6397 47.5715C45.3403 47.9492 45.8733 48.4457 46.2389 49.061C46.6044 49.6702 46.7871 50.322 46.7871 51.0165H45.0326C45.0326 50.517 44.926 50.0753 44.7128 49.6915C44.4996 49.3016 44.1767 48.997 43.7442 48.7777C43.3117 48.5523 42.7634 48.4396 42.0993 48.4396C41.4719 48.4396 40.9541 48.534 40.5459 48.7229C40.1377 48.9117 39.8331 49.1676 39.6321 49.4905C39.4371 49.8133 39.3397 50.1819 39.3397 50.5962C39.3397 50.8764 39.3975 51.1323 39.5133 51.3638C39.6351 51.5892 39.8209 51.7993 40.0707 51.9943C40.3266 52.1892 40.6495 52.3689 41.0393 52.5334C41.4353 52.6979 41.9075 52.8563 42.4557 53.0086C43.2111 53.2218 43.863 53.4594 44.4113 53.7214C44.9595 53.9833 45.4104 54.2788 45.7637 54.6077C46.1231 54.9306 46.3881 55.2992 46.5587 55.7135C46.7354 56.1216 46.8237 56.5846 46.8237 57.1024C46.8237 57.6446 46.714 58.135 46.4947 58.5736C46.2754 59.0123 45.9617 59.3869 45.5535 59.6976C45.1454 60.0083 44.6549 60.249 44.0823 60.4195C43.5157 60.584 42.8822 60.6663 42.1816 60.6663C41.5663 60.6663 40.9601 60.581 40.3631 60.4104C39.7722 60.2398 39.2331 59.9839 38.7457 59.6428C38.2644 59.3016 37.8776 58.8813 37.5852 58.3817C37.2988 57.8761 37.1557 57.2913 37.1557 56.6273H38.9102C38.9102 57.0842 38.9985 57.4771 39.1752 57.8061C39.3519 58.1289 39.5925 58.397 39.8971 58.6102C40.2078 58.8234 40.5581 58.9818 40.948 59.0854C41.3439 59.1828 41.7551 59.2316 42.1816 59.2316C42.7969 59.2316 43.3177 59.1463 43.7442 58.9757C44.1706 58.8051 44.4935 58.5615 44.7128 58.2447C44.9382 57.9279 45.0509 57.5532 45.0509 57.1207Z" fill="white"/>
<path d="M56.3093 47.1785H58.0638V56.1795C58.0638 57.1786 57.8415 58.0101 57.3967 58.6742C56.952 59.3382 56.3611 59.8377 55.624 60.1728C54.8929 60.5018 54.0979 60.6663 53.2389 60.6663C52.3373 60.6663 51.521 60.5018 50.79 60.1728C50.065 59.8377 49.4893 59.3382 49.0629 58.6742C48.6425 58.0101 48.4324 57.1786 48.4324 56.1795V47.1785H50.1777V56.1795C50.1777 56.874 50.3056 57.4466 50.5615 57.8974C50.8174 58.3482 51.1738 58.6833 51.6307 58.9026C52.0937 59.1219 52.6297 59.2316 53.2389 59.2316C53.8542 59.2316 54.3903 59.1219 54.8472 58.9026C55.3102 58.6833 55.6697 58.3482 55.9255 57.8974C56.1814 57.4466 56.3093 56.874 56.3093 56.1795V47.1785Z" fill="white"/>
<path d="M68.5272 59.0488V60.4835H61.8747V59.0488H68.5272ZM62.222 47.1785V60.4835H60.4583V47.1785H62.222Z" fill="white"/>
<path d="M72.5666 47.1785V60.4835H70.8304V47.1785H72.5666ZM76.8432 47.1785V48.6224H66.5629V47.1785H76.8432Z" fill="white"/>
<path d="M80.3342 47.1785V60.4835H78.5706V47.1785H80.3342Z" fill="white"/>
<path d="M93.402 47.1785V60.4835H91.6292L84.931 50.2215V60.4835H83.1674V47.1785H84.931L91.6566 57.4679V47.1785H93.402Z" fill="white"/>
<path d="M105.985 53.8584V58.729C105.821 58.9727 105.559 59.2468 105.2 59.5514C104.84 59.8499 104.344 60.1119 103.71 60.3373C103.083 60.5566 102.272 60.6663 101.279 60.6663C100.469 60.6663 99.7228 60.5261 99.0405 60.2459C98.3643 59.9596 97.7764 59.5453 97.2768 59.0031C96.7834 58.4549 96.3996 57.7908 96.1255 57.011C95.8574 56.2252 95.7234 55.3357 95.7234 54.3427V53.3102C95.7234 52.3172 95.8391 51.4308 96.0706 50.651C96.3082 49.8712 96.6555 49.2102 97.1124 48.668C97.5693 48.1198 98.1297 47.7055 98.7938 47.4253C99.4578 47.139 100.219 46.9958 101.078 46.9958C102.096 46.9958 102.945 47.1725 103.628 47.5258C104.316 47.873 104.852 48.3543 105.236 48.9696C105.626 49.5849 105.876 50.2855 105.985 51.0713H104.222C104.143 50.5901 103.984 50.1514 103.747 49.7555C103.515 49.3595 103.183 49.0427 102.751 48.8051C102.318 48.5614 101.761 48.4396 101.078 48.4396C100.463 48.4396 99.9299 48.5523 99.4791 48.7777C99.0283 49.0031 98.6567 49.326 98.3643 49.7463C98.0719 50.1667 97.8525 50.6754 97.7063 51.2724C97.5662 51.8694 97.4962 52.5426 97.4962 53.2919V54.3427C97.4962 55.1103 97.5845 55.7957 97.7612 56.3988C97.9439 57.0019 98.2028 57.5167 98.5379 57.9431C98.873 58.3635 99.272 58.6833 99.735 58.9026C100.204 59.1219 100.722 59.2316 101.288 59.2316C101.916 59.2316 102.425 59.1798 102.814 59.0762C103.204 58.9666 103.509 58.8386 103.728 58.6924C103.948 58.5401 104.115 58.397 104.231 58.263V55.284H101.151V53.8584H105.985Z" fill="white"/>
<path d="M5.88774 73.5868H1.66655V71.8832H5.88774C6.70521 71.8832 7.36715 71.7529 7.87355 71.4925C8.37994 71.2321 8.74889 70.8704 8.98039 70.4074C9.21912 69.9444 9.33848 69.4163 9.33848 68.8231C9.33848 68.2805 9.21912 67.7705 8.98039 67.293C8.74889 66.8156 8.37994 66.4321 7.87355 66.1428C7.36715 65.8462 6.70521 65.6979 5.88774 65.6979H2.15486V79.783H0.0605469V63.9833H5.88774C7.08139 63.9833 8.09057 64.1895 8.91528 64.6019C9.73998 65.0142 10.3657 65.5857 10.7926 66.3164C11.2194 67.0398 11.4328 67.8681 11.4328 68.8014C11.4328 69.8142 11.2194 70.6787 10.7926 71.3948C10.3657 72.111 9.73998 72.6572 8.91528 73.0334C8.09057 73.4024 7.08139 73.5868 5.88774 73.5868Z" fill="white"/>
<path d="M18.6542 65.3832L13.4238 79.783H11.2861L17.3086 63.9833H18.6867L18.6542 65.3832ZM23.0381 79.783L17.7969 65.3832L17.7644 63.9833H19.1425L25.1867 79.783H23.0381ZM22.7669 73.9341V75.6486H13.8904V73.9341H22.7669Z" fill="white"/>
<path d="M27.525 63.9833H32.7553C33.9418 63.9833 34.9437 64.1642 35.7612 64.5259C36.5859 64.8876 37.2116 65.423 37.6385 66.1319C38.0725 66.8336 38.2895 67.6981 38.2895 68.7254C38.2895 69.4488 38.1412 70.1108 37.8446 70.7112C37.5553 71.3044 37.1357 71.8108 36.5859 72.2304C36.0433 72.6428 35.3922 72.9502 34.6326 73.1528L34.0467 73.3807H29.131L29.1093 71.677H32.8204C33.5728 71.677 34.1986 71.5468 34.6977 71.2863C35.1969 71.0187 35.5731 70.6606 35.8263 70.212C36.0795 69.7635 36.2061 69.268 36.2061 68.7254C36.2061 68.1177 36.0867 67.586 35.848 67.1302C35.6093 66.6745 35.2331 66.3236 34.7194 66.0777C34.213 65.8245 33.5583 65.6979 32.7553 65.6979H29.6193V79.783H27.525V63.9833ZM36.7595 79.783L32.9181 72.6211L35.0992 72.6102L38.9949 79.6528V79.783H36.7595Z" fill="white"/>
<path d="M46.4116 63.9833V79.783H44.3498V63.9833H46.4116ZM51.49 63.9833V65.6979H39.2822V63.9833H51.49Z" fill="white"/>
<path d="M66.2097 63.9833V79.783H64.1046L56.1505 67.5969V79.783H54.0562V63.9833H56.1505L64.1371 76.202V63.9833H66.2097Z" fill="white"/>
<path d="M80.1807 78.0793V79.783H71.8143V78.0793H80.1807ZM72.2375 63.9833V79.783H70.1432V63.9833H72.2375ZM79.0738 70.7763V72.48H71.8143V70.7763H79.0738ZM80.0722 63.9833V65.6979H71.8143V63.9833H80.0722Z" fill="white"/>
<path d="M82.9964 63.9833H88.2268C89.4132 63.9833 90.4151 64.1642 91.2326 64.5259C92.0573 64.8876 92.6831 65.423 93.1099 66.1319C93.5439 66.8336 93.761 67.6981 93.761 68.7254C93.761 69.4488 93.6127 70.1108 93.3161 70.7112C93.0267 71.3044 92.6071 71.8108 92.0573 72.2304C91.5147 72.6428 90.8637 72.9502 90.1041 73.1528L89.5181 73.3807H84.6024L84.5807 71.677H88.2919C89.0442 71.677 89.67 71.5468 90.1692 71.2863C90.6683 71.0187 91.0445 70.6606 91.2977 70.212C91.5509 69.7635 91.6775 69.268 91.6775 68.7254C91.6775 68.1177 91.5581 67.586 91.3194 67.1302C91.0807 66.6745 90.7045 66.3236 90.1909 66.0777C89.6845 65.8245 89.0298 65.6979 88.2268 65.6979H85.0907V79.783H82.9964V63.9833ZM92.2309 79.783L88.3895 72.6211L90.5707 72.6102L94.4663 79.6528V79.783H92.2309Z" fill="white"/>
<path d="M105.334 75.7897C105.334 75.4207 105.276 75.0952 105.16 74.813C105.052 74.5237 104.856 74.2632 104.574 74.0317C104.299 73.8002 103.916 73.5796 103.424 73.3698C102.939 73.16 102.324 72.9466 101.579 72.7296C100.798 72.4981 100.093 72.2413 99.4632 71.9591C98.8338 71.6697 98.2948 71.3406 97.8463 70.9716C97.3978 70.6027 97.0542 70.1795 96.8154 69.702C96.5767 69.2246 96.4573 68.6784 96.4573 68.0635C96.4573 67.4486 96.5839 66.8807 96.8371 66.3598C97.0903 65.8389 97.452 65.3868 97.9223 65.0034C98.3997 64.6127 98.9676 64.3089 99.6259 64.0919C100.284 63.8748 101.019 63.7663 101.829 63.7663C103.015 63.7663 104.021 63.9942 104.845 64.45C105.677 64.8985 106.31 65.4881 106.744 66.2187C107.178 66.9422 107.396 67.7162 107.396 68.5409H105.312C105.312 67.9477 105.185 67.4232 104.932 66.9675C104.679 66.5045 104.296 66.1428 103.782 65.8823C103.268 65.6147 102.617 65.4808 101.829 65.4808C101.084 65.4808 100.469 65.593 99.984 65.8172C99.4993 66.0415 99.1376 66.3453 98.8989 66.7288C98.6674 67.1122 98.5517 67.5498 98.5517 68.0418C98.5517 68.3745 98.6204 68.6784 98.7578 68.9533C98.9025 69.221 99.1232 69.4705 99.4198 69.702C99.7236 69.9335 100.107 70.1469 100.57 70.3423C101.04 70.5376 101.601 70.7257 102.252 70.9065C103.149 71.1597 103.923 71.4419 104.574 71.7529C105.225 72.064 105.761 72.4149 106.18 72.8055C106.607 73.1889 106.922 73.6266 107.124 74.1185C107.334 74.6032 107.439 75.153 107.439 75.768C107.439 76.4118 107.309 76.9942 107.048 77.515C106.788 78.0359 106.415 78.4808 105.931 78.8497C105.446 79.2187 104.864 79.5044 104.184 79.707C103.511 79.9023 102.758 80 101.926 80C101.196 80 100.476 79.8987 99.767 79.6962C99.0653 79.4936 98.425 79.1898 97.8463 78.7846C97.2748 78.3795 96.8154 77.8804 96.4682 77.2871C96.1282 76.6867 95.9582 75.9922 95.9582 75.2037H98.0416C98.0416 75.7463 98.1465 76.2129 98.3563 76.6035C98.5661 76.9869 98.8519 77.3052 99.2136 77.5584C99.5825 77.8116 99.9985 77.9997 100.461 78.1227C100.932 78.2385 101.42 78.2963 101.926 78.2963C102.657 78.2963 103.276 78.1951 103.782 77.9925C104.288 77.7899 104.672 77.5006 104.932 77.1244C105.2 76.7482 105.334 76.3033 105.334 75.7897Z" fill="white"/>
</svg>
