<?xml version="1.0" standalone="no"?>
<!DOCTYPE svg PUBLIC "-//W3C//DTD SVG 20010904//EN"
 "http://www.w3.org/TR/2001/REC-SVG-20010904/DTD/svg10.dtd">
<svg version="1.0" xmlns="http://www.w3.org/2000/svg"
 width="300.000000pt" height="120.000000pt" viewBox="0 0 300.000000 120.000000"
 preserveAspectRatio="xMidYMid meet">

<g transform="translate(0.000000,120.000000) scale(0.100000,-0.100000)"
fill="#fff" stroke="none">
<path d="M455 814 c-110 -39 -228 -53 -303 -36 -47 11 -50 8 -26 -28 49 -74
113 -122 203 -155 35 -13 33 -14 -50 -14 -90 -1 -168 18 -236 59 -19 11 -36
20 -39 20 -2 0 5 -23 15 -51 26 -68 90 -151 147 -190 81 -56 138 -72 244 -72
135 0 192 23 286 117 74 74 111 144 121 231 5 37 1 44 -38 82 -82 82 -170 92
-324 37z m253 -86 c2 -19 -2 -28 -18 -33 -37 -12 -64 27 -38 53 21 21 53 10
56 -20z"/>
<path d="M1082 728 c3 -7 24 -66 48 -131 43 -118 43 -118 74 -115 29 3 33 8
61 85 16 46 33 83 36 83 4 0 20 -37 36 -82 28 -77 32 -83 61 -86 28 -3 31 0
50 50 11 29 32 84 46 122 32 85 32 88 -1 84 -25 -3 -31 -12 -58 -85 -16 -46
-32 -83 -35 -83 -3 0 -19 37 -36 83 -29 77 -33 82 -60 82 -27 0 -31 -5 -64
-88 l-34 -89 -34 91 c-33 87 -36 91 -64 91 -20 0 -29 -4 -26 -12z"/>
<path d="M1572 703 l-37 -38 33 -3 c19 -2 38 3 48 12 28 28 114 14 114 -18 0
-10 -20 -15 -69 -18 -85 -4 -111 -23 -111 -79 0 -54 29 -79 93 -79 26 0 57 5
68 10 13 7 19 7 19 0 0 -5 14 -10 30 -10 l30 0 0 96 c0 52 -5 104 -10 115 -16
29 -64 49 -121 49 -46 0 -55 -4 -87 -37z m158 -128 c0 -14 -8 -29 -19 -35 -30
-15 -87 -12 -102 6 -21 25 21 54 77 54 40 0 44 -2 44 -25z"/>
<path d="M1820 732 c0 -6 25 -64 57 -131 51 -110 59 -121 83 -121 24 0 31 10
78 113 72 158 69 147 35 147 -28 0 -33 -6 -68 -85 -21 -47 -40 -85 -44 -85 -3
0 -23 38 -43 83 -34 74 -40 82 -68 85 -16 2 -30 -1 -30 -6z"/>
<path d="M2169 717 c-69 -46 -76 -142 -14 -204 30 -30 39 -33 90 -33 53 0 60
3 94 37 l36 38 -27 3 c-15 2 -38 -4 -50 -12 -34 -24 -75 -20 -106 12 l-27 27
103 3 102 3 0 30 c0 99 -115 154 -201 96z m123 -44 c30 -27 21 -33 -47 -33
-36 0 -65 3 -65 7 0 3 7 15 17 25 20 22 70 23 95 1z"/>
<path d="M2420 640 c0 -99 1 -102 29 -131 24 -24 38 -29 76 -29 25 0 55 5 66
10 13 8 19 7 19 0 0 -6 12 -10 28 -8 l27 3 0 125 0 125 -27 3 -28 3 0 -79 c0
-92 -21 -132 -68 -132 -50 0 -57 12 -62 112 -5 93 -5 93 -32 96 l-28 3 0 -101z"/>
<path d="M2737 733 c-4 -3 -7 -87 -7 -185 l0 -178 30 0 30 0 0 65 c0 62 1 65
19 55 28 -15 97 -12 130 5 40 20 65 77 58 134 -7 62 -58 111 -118 111 -22 0
-50 -5 -62 -11 -16 -9 -22 -9 -25 0 -4 12 -44 15 -55 4z m178 -68 c51 -50 18
-135 -51 -135 -39 0 -74 38 -74 82 0 36 40 78 75 78 14 0 37 -11 50 -25z"/>
</g>
</svg>
