<svg version="1.2" xmlns="http://www.w3.org/2000/svg" viewBox="0 0 1157 1169" width="1157" height="1169">
	<title>Component 11-svg</title>
	<defs>
		<linearGradient id="g1" x1="152.3" y1="615.9" x2="787.3" y2="1033.1" gradientUnits="userSpaceOnUse">
			<stop offset="0" stop-color="#ffd178">
				 <animate attributeName="stop-color" values="#ffd178; #FFD770; #ffd178" dur="6s" repeatCount="indefinite"></animate>
			</stop>
			<stop offset="1" stop-color="#ffbe9f">
				<animate attributeName="stop-color" values="#ffbe9f; #FFD770; #ffbe9f" dur="6s" repeatCount="indefinite"></animate>
			</stop>
		</linearGradient>
		<linearGradient id="g2" x1="347.6" y1="1292.8" x2="652.2" y2="1102.5" gradientUnits="userSpaceOnUse">
			<stop offset="0" stop-color="#ff93ff">
				<animate attributeName="stop-color" values="#ff93ff; #FFD770; #ff93ff" dur="6s" repeatCount="indefinite"></animate>
			</stop>
			<stop offset=".5" stop-color="#ffadc7"/>
			<stop offset="1" stop-color="#ffbe9f"/>
		</linearGradient>
		<linearGradient id="g3" x1="1506.8" y1="590.2" x2="1083.2" y2="1727.4" gradientUnits="userSpaceOnUse">
			<stop offset="0" stop-color="#ffd16b">
				<animate attributeName="stop-color" values="#ffd16b; #FFD770; #ffd16b" dur="6s" repeatCount="indefinite"></animate>
			</stop>
			<stop offset=".5" stop-color="#e87e83"/>
			<stop offset="1" stop-color="#ff93ff"/>
		</linearGradient>
		<linearGradient id="g4" x1="249.5" y1="476.8" x2="950.8" y2="262.4" gradientUnits="userSpaceOnUse">
			<stop offset="0" stop-color="#ffb5b7"/>
			<stop offset=".5" stop-color="#806cfd"/>
			<stop offset="1" stop-color="#b982ff"/>
		</linearGradient>
		<linearGradient id="g5" x1="1404.6" y1="734.8" x2="978.9" y2="1123.7" gradientUnits="userSpaceOnUse">
			<stop offset="0" stop-color="#b982ff"/>
			<stop offset="1" stop-color="#ff94ff"/>
		</linearGradient>
	</defs>
	<style>
		.s0 { fill: url(#g1) } 
		.s1 { fill: url(#g2) } 
		.s2 { fill: url(#g3) } 
		.s3 { fill: url(#g4) } 
		.s4 { fill: url(#g5) } 
	</style>
	<path id="Layer" fill-rule="evenodd" class="s0" d="m136.8 374.8c0.8 18.9 12.4 45.2 37 69l0.2 0.1c48.1 46.8 142.8 78.2 250.8 28.6l308.6-147.1q0.1 0 0.1 0c64.8-31.1 134.1-34.6 197.4-20l13.4 3.1q2 0.4 4 1.1c65.5 20.7 124.3 62.6 163.9 126 15.1 24.1 7.7 55.9-16.4 71-24.1 15-55.9 7.7-70.9-16.4-25.3-40.5-62.6-67.7-105.9-81.9l-11.2-2.6c-43.8-10.1-88.9-7.1-129.8 12.6h-0.1l-309.1 147.3q-0.3 0.2-0.6 0.3c-147 67.7-287.4 28.3-365.9-48.1-37.9-36.5-66.2-86.4-68.4-138.7-2.4-57.1 27.1-109 88-137.6 25.8-12 56.4-0.9 68.5 24.8 12.1 25.8 1 56.4-24.8 68.5-24.7 11.6-29.4 25.9-28.8 40z"/>
	<path id="Layer" fill-rule="evenodd" class="s1" d="m34.1 555.3c-67.2-107.7-33.7-255.7 87.4-313.6 25.7-12.3 56.5-1.4 68.7 24.2 12.3 25.7 1.4 56.4-24.2 68.7-61.2 29.3-82 106.2-44.5 166.1l317.6 508.3c37.3 59.7 116.9 74.3 168.8 32.9 22.2-17.7 54.6-14 72.3 8.2 17.7 22.2 14.1 54.7-8.2 72.4-103.6 82.6-252.9 48.9-320.3-58.9z"/>
	<path id="Layer" fill-rule="evenodd" class="s2" d="m883.6 343.1c8.6-27.1 37.5-42.2 64.7-33.6 65.5 20.8 124.3 62.7 163.9 126.1 79.2 126.7 50.1 294.7-66.8 388.5l-0.1 0.1-373.3 298.2c-22.2 17.7-54.6 14.1-72.3-8.1-17.8-22.2-14.2-54.6 8.1-72.4l373.2-298.1v-0.1c76.5-61.4 95.1-171.5 43.8-253.6-25.6-41-63.6-68.4-107.6-82.4-27.1-8.6-42.2-37.5-33.6-64.6z"/>
	<path id="Layer" fill-rule="evenodd" class="s3" d="m96.2 312.8c-13.2-25.2-3.4-56.3 21.8-69.5 54-28.2 161.6-81.6 255.1-127.6l174-85.2q0-0.1 0.1-0.1c134.4-66.2 298.9-21.5 380.2 103.8 40.7 62.7 53.9 133.7 45 201.8q-0.3 2-0.7 4l-2.9 13.5c-13.5 63.6-46 124.9-101.6 170.5-22 18.1-54.5 14.8-72.5-7.2-18-22-14.8-54.4 7.2-72.4 35.1-28.8 56.8-68.4 66.2-112.3l2.4-11.3c5.5-45.2-3.5-90.6-29.5-130.5-52.7-81.2-160.4-110.8-248.4-67.5l-0.2 0.1-173.8 85.2c-31.8 15.5 46.8-23 0 0-93.8 46.2-200.2 99-252.9 126.5-25.2 13.2-56.3 3.4-69.5-21.8z"/>
	<path id="Layer" fill-rule="evenodd" class="s4" d="m933.4 276c27.8 5.9 45.6 33.3 39.7 61.1l-2.9 13.5c-13.5 63.5-46 124.8-101.6 170.4q0 0.1 0 0.1l-263.7 217.5c-90.6 77-102.2 176-80.1 239.4l0.1 0.5c10.4 30.5 29 51.3 46.2 60 14.1 7 30.1 8 50.3-7.8 22.4-17.5 54.8-13.6 72.3 8.8 17.6 22.4 13.6 54.7-8.7 72.3-51.6 40.4-110.4 43.7-160.1 18.7-46.4-23.3-80.4-68.7-97.5-118.8-35.9-103.5-12.2-247.3 111.1-351.9q0.3-0.2 0.5-0.4l264.2-217.9 0.1-0.1c35.1-28.8 56.8-68.3 66.2-112.3l2.8-13.4c5.9-27.8 33.3-45.6 61.1-39.7z"/>
</svg>