<?xml version="1.0" encoding="utf-8"?>
<svg xmlns="http://www.w3.org/2000/svg">
<symbol id="arrow" viewBox="0 0 24 24">
    <path fill-rule="evenodd" d="M8.22 17.78a.75.75 0 0 1 0-1.06l5.47-5.47-5.47-5.47a.75.75 0 0 1 1.06-1.06l6 6a.75.75 0 0 1 0 1.06l-6 6a.75.75 0 0 1-1.06 0Z" clip-rule="evenodd"/>

</symbol>
<symbol id="check" viewBox="0 0 24 25">
     <path d="M20 6.54688L9 17.5469L4 12.5469"/>
</symbol>

<symbol id="instagram" viewBox="0 0 30 30">
    <path d="M9.998 3C6.139 3 3 6.142 3 10.002v10C3 23.861 6.142 27 10.002 27h10C23.861 27 27 23.858 27 19.998v-10C27 6.139 23.858 3 19.998 3h-10ZM22 7a1 1 0 1 1 0 2 1 1 0 0 1 0-2Zm-7 2c3.309 0 6 2.691 6 6s-2.691 6-6 6-6-2.691-6-6 2.691-6 6-6Zm0 2a4 4 0 1 0 0 8 4 4 0 0 0 0-8Z"/>
</symbol>

<symbol id="discord" viewBox="0 0 22 22">
    <path d="M18.316 4.739c-1.752-1.41-4.522-1.648-4.64-1.657a.437.437 0 0 0-.436.258c-.007.01-.067.15-.134.366 1.159.196 2.582.59 3.87 1.389a.44.44 0 1 1-.465.747C14.297 4.47 11.534 4.4 11.001 4.4c-.533 0-3.298.069-5.51 1.442a.44.44 0 0 1-.464-.748c1.287-.797 2.71-1.192 3.868-1.386-.067-.219-.127-.356-.132-.368a.434.434 0 0 0-.437-.258c-.118.009-2.889.247-4.664 1.676C2.735 5.615.88 10.628.88 14.96c0 .078.02.151.058.218 1.279 2.249 4.77 2.836 5.566 2.862h.013a.44.44 0 0 0 .356-.18l.805-1.107c-2.171-.56-3.28-1.513-3.343-1.57a.44.44 0 0 1 .583-.66c.025.025 2.067 1.757 6.082 1.757 4.022 0 6.064-1.74 6.084-1.756a.44.44 0 0 1 .581.66c-.063.056-1.172 1.009-3.343 1.569l.805 1.107a.44.44 0 0 0 .355.18h.014c.796-.026 4.287-.613 5.565-2.861a.442.442 0 0 0 .059-.219c0-4.333-1.855-9.345-2.805-10.221ZM8.14 13.2c-.85 0-1.54-.787-1.54-1.76s.69-1.76 1.54-1.76c.85 0 1.54.787 1.54 1.76s-.69 1.76-1.54 1.76Zm5.72 0c-.85 0-1.54-.787-1.54-1.76s.69-1.76 1.54-1.76c.85 0 1.54.787 1.54 1.76s-.69 1.76-1.54 1.76Z"/>
</symbol>

<symbol id="tree" viewBox="0 0 30 35">
<path d="M11.5004 23.5691H16.4753V35H11.5004V23.5691ZM0 11.8527H8.465L2.44721 6.01474L5.77707 2.53106L11.514 8.53221V0H16.4886V8.53221L22.2254 2.54473L25.5527 6.01474L19.5377 11.839H28V16.6562H19.4893L25.5448 22.6437L22.2254 26.0459L14.0013 17.636L5.77707 26.0459L2.44721 22.6575L8.50502 16.6699H0V11.8527Z"/>
</symbol>

<symbol id="facebook-icon" viewBox="0 0 30 35">
    <path d="M28.6818 0.5H3.31818C1.76114 0.5 0.5 1.76114 0.5 3.31818V28.6818C0.5 30.2389 1.76114 31.5 3.31818 31.5H17.4091V18.8182H13.1818V14.5909H17.4091V12.3209C17.4091 8.02314 19.503 6.13636 23.075 6.13636C24.7857 6.13636 25.6903 6.26318 26.1187 6.32095V10.3636H23.6824C22.1662 10.3636 21.6364 11.164 21.6364 12.7845V14.5909H26.0806L25.4775 18.8182H21.6364V31.5H28.6818C30.2389 31.5 31.5 30.2389 31.5 28.6818V3.31818C31.5 1.76114 30.2375 0.5 28.6818 0.5Z"/>
</symbol>

<symbol id="medium" viewBox="0 0 30 35">
    <path d="M28.6818 0.5H3.31818C1.76114 0.5 0.5 1.76114 0.5 3.31818V28.6818C0.5 30.2389 1.76114 31.5 3.31818 31.5H28.6818C30.2389 31.5 31.5 30.2389 31.5 28.6818V3.31818C31.5 1.76114 30.2389 0.5 28.6818 0.5ZM26.6274 24.4545H18.27V23.9853L20.2273 22.2634V12.435L15.4209 24.4545H14.6698L9.30682 12.3406V20.9177L11.7586 23.9853V24.4545H5.37264V23.9853L7.90759 20.9177V10.7131L5.65445 7.89632C5.65445 7.89632 5.65445 7.48909 5.65445 7.5525H11.8206L16.6101 17.9135L20.7416 7.5525H26.595V7.89632L24.4545 9.69573V22.2634L26.6274 23.9853V24.4545Z"/>
</symbol>

<symbol id="telegram" viewBox="0 0 22 22">
    <path d="M20.299 2.883c-.33-.28-.848-.32-1.384-.105h-.001c-.564.227-15.955 6.828-16.582 7.098-.113.04-1.109.41-1.006 1.238.091.746.891 1.055.989 1.09l3.913 1.34c.26.864 1.216 4.053 1.428 4.734.132.424.347.982.724 1.097.331.128.66.011.873-.156L11.646 17l3.861 3.012.092.055c.263.116.514.174.754.174.185 0 .363-.035.532-.104.58-.238.81-.79.835-.852l2.884-14.994c.176-.8-.068-1.208-.305-1.408ZM9.679 14.08l-1.32 3.52-1.32-4.4 10.12-7.48-7.48 8.36Z"/>
</symbol>

<symbol id="facebook" viewBox="0 0 22 22">
    <path d="M22 15.609C22 19.613 19.613 22 15.609 22H14.3C13.695 22 13.2 21.505 13.2 20.9V14.553C13.2 14.256 13.442 14.003 13.739 14.003L15.675 13.97C15.829 13.959 15.961 13.849 15.994 13.695L16.379 11.594C16.412 11.396 16.258 11.209 16.049 11.209L13.706 11.242C13.398 11.242 13.156 11 13.145 10.703L13.101 8.008C13.101 7.832 13.244 7.67801 13.431 7.67801L16.071 7.634C16.258 7.634 16.401 7.49101 16.401 7.30401L16.357 4.66399C16.357 4.47699 16.214 4.334 16.027 4.334L13.057 4.37801C11.231 4.41101 9.779 5.907 9.812 7.733L9.867 10.758C9.878 11.066 9.636 11.308 9.328 11.319L8.008 11.341C7.821 11.341 7.67801 11.484 7.67801 11.671L7.71101 13.761C7.71101 13.948 7.854 14.091 8.041 14.091L9.361 14.069C9.669 14.069 9.911 14.311 9.922 14.608L10.021 20.878C10.032 21.494 9.537 22 8.921 22H6.391C2.387 22 0 19.613 0 15.598V6.391C0 2.387 2.387 0 6.391 0H15.609C19.613 0 22 2.387 22 6.391V15.609Z" fill="white"/>
</symbol>

<symbol id="whatapp" viewBox="0 0 22 22">
   <path d="M21.9819 10.3513C21.608 3.97219 15.8117 -0.944161 9.13558 0.155696C4.53817 0.914596 0.853656 4.64309 0.138749 9.24045C-0.279196 11.9021 0.270754 14.4208 1.4696 16.4995L0.490714 20.14C0.270743 20.9649 1.02962 21.7128 1.84352 21.4818L5.42906 20.492C7.05685 21.4489 8.95961 21.9988 10.9943 21.9988C17.1975 21.9988 22.3449 16.5325 21.9819 10.3513ZM16.3726 15.0917C16.2737 15.2897 16.1527 15.4766 15.9987 15.6526C15.7237 15.9496 15.4268 16.1695 15.0968 16.3015C14.7668 16.4445 14.4039 16.5105 14.0189 16.5105C13.458 16.5105 12.8531 16.3786 12.2262 16.1037C11.5883 15.8287 10.9613 15.4656 10.3344 15.0147C9.69651 14.5528 9.10259 14.0358 8.53066 13.4749C7.95874 12.903 7.45277 12.2981 6.99083 11.6711C6.53989 11.0442 6.17696 10.4173 5.91299 9.79038C5.64903 9.16346 5.51707 8.5586 5.51707 7.98667C5.51707 7.61271 5.58305 7.24976 5.71503 6.9198C5.84701 6.57884 6.05601 6.2709 6.35297 5.99593C6.70492 5.64398 7.08985 5.479 7.4968 5.479C7.65077 5.479 7.80473 5.51198 7.94771 5.57798C8.09069 5.64397 8.22269 5.74295 8.32169 5.88593L9.59752 7.68969C9.69651 7.83267 9.7735 7.95365 9.8175 8.07464C9.87249 8.19562 9.89449 8.30561 9.89449 8.41559C9.89449 8.54758 9.85049 8.67958 9.7735 8.81151C9.69651 8.94349 9.59752 9.07547 9.46554 9.20746L9.0476 9.6474C8.9816 9.71339 8.95961 9.77938 8.95961 9.86737C8.95961 9.91136 8.97061 9.95536 8.9816 9.99935C9.0036 10.0433 9.0146 10.0763 9.0256 10.1093C9.12459 10.2963 9.30056 10.5273 9.54253 10.8132C9.7955 11.0992 10.0595 11.3962 10.3454 11.6821C10.6424 11.9791 10.9284 12.2431 11.2253 12.496C11.5113 12.738 11.7532 12.903 11.9402 13.002C11.9732 13.013 12.0062 13.035 12.0392 13.046C12.0832 13.068 12.1272 13.068 12.1822 13.068C12.2812 13.068 12.3472 13.035 12.4132 12.969L12.8311 12.551C12.9741 12.408 13.1061 12.3091 13.227 12.2431C13.359 12.1661 13.48 12.1221 13.623 12.1221C13.733 12.1221 13.843 12.1441 13.964 12.1991C14.0849 12.2541 14.2169 12.32 14.3489 12.419L16.1747 13.7169C16.3176 13.8159 16.4166 13.9368 16.4826 14.0688C16.5376 14.2118 16.5706 14.3438 16.5706 14.4978C16.5046 14.6847 16.4606 14.8937 16.3726 15.0917Z" fill="white"/>
</symbol>




<symbol id="billionair-announcements" viewBox="0 0 48 48">
<path fill-rule="evenodd" clip-rule="evenodd" d="M34.0868 2.0478C32.0721 2.23135 29.9956 3.04789 28.3853 4.28963C27.8404 4.70983 26.8838 5.65599 26.4711 6.18292C26.1956 6.53473 25.5214 7.57223 25.4684 7.72608C25.4511 7.77627 25.3922 7.77535 25.1869 7.72168C21.3084 6.70759 17.1623 7.37329 13.8803 9.53707C11.18 11.3172 9.15216 14.0775 8.34856 17.0666C7.93636 18.5999 7.93995 18.5449 7.90363 23.8902C7.87106 28.6742 7.87042 28.6966 7.75206 29.0973C7.43943 30.1556 7.01783 30.7337 5.9214 31.6075C5.27849 32.1199 4.85072 32.5597 4.61242 32.9533C3.91725 34.1018 3.80987 35.4301 4.31092 36.6843C4.53714 37.2507 4.90404 37.7689 5.41047 38.2373C5.88038 38.672 6.3393 38.9411 7.00115 39.17L7.45326 39.3264H21.5487H35.6442L36.1457 39.1573C37.9559 38.5468 39.1104 36.9717 39.1125 35.1096C39.114 33.7793 38.5806 32.7175 37.462 31.8238C36.5665 31.1084 36.3539 30.9103 36.0849 30.5412C35.7474 30.0782 35.614 29.8231 35.4269 29.2827L35.2764 28.8482L35.2596 25.9475L35.2427 23.0469L35.3642 23.0467C35.4311 23.0466 35.759 23.0224 36.0929 22.9929C39.9263 22.6543 43.2814 20.3975 44.9413 17.0411C46.5375 13.8137 46.3176 10.0169 44.3571 6.95335C43.9352 6.29404 43.3358 5.58494 42.6858 4.97593C41.7529 4.10189 41.0422 3.61575 39.9203 3.08423C38.0828 2.21356 36.1115 1.86334 34.0868 2.0478ZM36.5269 3.39264C40.6905 4.00028 43.9281 7.13434 44.5686 11.1773C44.6713 11.8253 44.6713 13.2098 44.5686 13.8577C43.9827 17.5558 41.1982 20.5406 37.4771 21.4596C36.0535 21.8111 34.2319 21.8111 32.8082 21.4596C29.425 20.6241 26.7695 18.0483 25.9027 14.7614C25.5417 13.3922 25.5417 11.6429 25.9027 10.2737C26.8526 6.67166 29.9234 3.96741 33.7135 3.39535C34.3384 3.30105 35.8889 3.29952 36.5269 3.39264ZM39.63 7.00778C39.4122 7.09605 36.6565 8.23496 33.5061 9.53865C27.4225 12.0562 27.4981 12.0207 27.3749 12.4189C27.3269 12.5741 27.3347 12.642 27.4228 12.8348C27.4807 12.9616 27.6081 13.1242 27.7059 13.1961C27.8113 13.2736 28.4862 13.5277 29.3619 13.8194L30.8401 14.312L31.3668 16.0087C31.9534 17.8987 32.0632 18.1603 32.3192 18.2785C32.6577 18.4348 32.7948 18.3612 33.7485 17.5111C34.2278 17.0839 34.6416 16.727 34.668 16.718C34.6944 16.709 35.3353 17.169 36.0921 17.7403C37.007 18.4308 37.543 18.8013 37.6913 18.8457C38.1359 18.9789 38.6487 18.8026 38.8794 18.4373C38.9582 18.3126 39.2611 16.889 40.025 13.0542C40.5962 10.1868 41.063 7.73282 41.0625 7.60105C41.0595 6.90228 40.4811 6.66272 39.63 7.00778ZM38.4329 9.10573C38.3741 9.169 37.188 10.4519 35.7972 11.9567L33.2686 14.6926L32.8244 15.8541C32.5801 16.4929 32.3663 17.0153 32.3492 17.0151C32.3266 17.0147 31.4741 14.315 31.4275 14.0962C31.4216 14.0684 38.4609 9.00273 38.5173 8.99414C38.5297 8.99225 38.4916 9.04245 38.4329 9.10573ZM18.3761 41.2968C17.5551 41.4006 16.938 41.9527 16.7371 42.763C16.6521 43.1059 16.6517 43.1561 16.7319 43.5136C16.872 44.1389 17.2124 44.5631 17.8269 44.8782L18.0645 45H21.5487H25.033L25.2842 44.8866C25.637 44.7274 26.044 44.3404 26.2394 43.9785C26.3936 43.693 26.4053 43.6347 26.4045 43.1599C26.4037 42.7045 26.3875 42.6175 26.2564 42.3614C26.0769 42.0107 25.7001 41.6341 25.3615 41.4668C25.2222 41.398 24.9386 41.3208 24.728 41.2943C24.2704 41.2367 18.8344 41.2389 18.3761 41.2968Z"/>
</symbol>


<symbol id="tiktok" viewBox="0 0 30 30">
    <path d="M24 4H6a2 2 0 0 0-2 2v18a2 2 0 0 0 2 2h18a2 2 0 0 0 2-2V6a2 2 0 0 0-2-2Zm-1.311 9.474a4.27 4.27 0 0 1-3.967-1.911v6.578a4.861 4.861 0 1 1-4.861-4.862c.102 0 .201.008.3.014v2.397c-.1-.012-.197-.03-.3-.03a2.481 2.481 0 0 0 0 4.962c1.371 0 2.581-1.08 2.581-2.45l.024-11.17h2.289a4.268 4.268 0 0 0 3.934 3.81v2.663Z"/>

</symbol>
<symbol id="twitter" viewBox="0 0 30 30">
    <path d="M27.999 6.937c-.957.425-1.985.71-3.064.84a5.343 5.343 0 0 0 2.345-2.951 10.696 10.696 0 0 1-3.388 1.295 5.334 5.334 0 0 0-9.089 4.864A15.143 15.143 0 0 1 3.808 5.41a5.321 5.321 0 0 0-.72 2.683 5.33 5.33 0 0 0 2.371 4.439 5.323 5.323 0 0 1-2.416-.667v.066a5.335 5.335 0 0 0 4.279 5.23 5.336 5.336 0 0 1-2.409.093 5.34 5.34 0 0 0 4.983 3.704 10.699 10.699 0 0 1-6.625 2.285c-.43 0-.855-.025-1.273-.075a15.102 15.102 0 0 0 8.177 2.396c9.812 0 15.176-8.129 15.176-15.178 0-.23-.005-.46-.015-.69a10.855 10.855 0 0 0 2.663-2.76Z"/>
</symbol>

<symbol id="menu" viewBox="0 0 24 24">
    <path fill-rule="evenodd" clip-rule="evenodd" d="M3 7.75C3 7.33579 3.33579 7 3.75 7H20.25C20.6642 7 21 7.33579 21 7.75C21 8.16421 20.6642 8.5 20.25 8.5H3.75C3.33579 8.5 3 8.16421 3 7.75ZM3 11.75C3 11.3358 3.33579 11 3.75 11H20.25C20.6642 11 21 11.3358 21 11.75C21 12.1642 20.6642 12.5 20.25 12.5H3.75C3.33579 12.5 3 12.1642 3 11.75ZM3.75 15C3.33579 15 3 15.3358 3 15.75C3 16.1642 3.33579 16.5 3.75 16.5H20.25C20.6642 16.5 21 16.1642 21 15.75C21 15.3358 20.6642 15 20.25 15H3.75Z" fill="white"/>
</symbol>

<symbol id="clear" viewBox="0 0 24 24">
    <path fill-rule="evenodd" d="M5.707 4.293a1 1 0 0 0-1.414 1.414L10.586 12l-6.293 6.293a1 1 0 1 0 1.414 1.414L12 13.414l6.293 6.293a1 1 0 0 0 1.414-1.414L13.414 12l6.293-6.293a1 1 0 0 0-1.414-1.414L12 10.586 5.707 4.293Z" clip-rule="evenodd"/>
</symbol>

<symbol id="play" width="29" height="33" viewBox="0 0 29 33">
    <path fill-rule="evenodd" d="M27.6816 15.2128C29.0013 16.0058 28.9677 17.93 27.6212 18.6764L3.38301 32.1118C2.03644 32.8582 0.386823 31.867 0.413693 30.3277L0.897348 2.61909C0.924218 1.07972 2.60742 0.146702 3.92712 0.939655L27.6816 15.2128Z" />
</symbol>

<symbol id="linkedin" viewBox="0 0 40 40">
<g clip-path="url(#clip0_1742_3304)">
<path d="M1.92188 3.64769C1.92188 2.12958 3.18375 0.898163 4.74043 0.898163H37.2444C38.801 0.898163 40.063 2.12958 40.063 3.64769V36.5317C40.063 38.0503 38.801 39.2812 37.2444 39.2812H4.74043C3.18375 39.2812 1.92188 38.0503 1.92188 36.5317V3.64769V3.64769Z" fill="#006699"/>
<path fill-rule="evenodd" clip-rule="evenodd" d="M13.4842 33.0288V15.6967H7.72336V33.0288H13.4842V33.0288ZM10.6038 13.3303C12.6127 13.3303 13.8631 11.9994 13.8631 10.3361C13.8257 8.63543 12.6127 7.34144 10.6419 7.34144C8.67126 7.34144 7.38281 8.63543 7.38281 10.3361C7.38281 11.9994 8.63294 13.3303 10.5662 13.3303H10.6037H10.6038Z" fill="white"/>
<path fill-rule="evenodd" clip-rule="evenodd" d="M16.6719 33.0288H22.4327V23.3498C22.4327 22.8318 22.4701 22.3143 22.6223 21.944C23.0387 20.909 23.9866 19.8371 25.5781 19.8371C27.6626 19.8371 28.4965 21.4265 28.4965 23.7565V33.0288H34.2569V23.0908C34.2569 17.7672 31.4148 15.29 27.6246 15.29C24.5168 15.29 23.1524 17.0271 22.3944 18.2103H22.4328V15.6967H16.672C16.7476 17.323 16.672 33.0288 16.672 33.0288H16.6719Z" fill="white"/>
</g>
<defs>
<clipPath id="clip0_1742_3304">
<rect width="40" height="40" fill="white" transform="translate(0.5)"/>
</clipPath>
</defs>
</symbol>

<symbol viewBox="0 0 24 24" id="arrow-down-solid">
<g opacity="0.5">
<path d="M7.87576 8C7.12481 8 6.72345 9.12668 7.21796 9.8466L11.0791 15.4677C11.5666 16.1774 12.4334 16.1774 12.9209 15.4677L16.782 9.8466C17.2765 9.12669 16.8752 8 16.1242 8H7.87576Z" fill="white"/>
</g>
</symbol>


</svg>