<svg width="366" height="366" viewBox="0 0 366 366" fill="none" xmlns="http://www.w3.org/2000/svg">
<mask id="mask0_18_2107" style="mask-type:alpha" maskUnits="userSpaceOnUse" x="49" y="49" width="268" height="268">
<path d="M67.3855 116.25C104.25 52.3978 185.898 30.5205 249.75 67.3855C313.602 104.25 335.479 185.898 298.614 249.75C261.749 313.602 180.102 335.479 116.25 298.614C52.3978 261.749 30.5205 180.102 67.3855 116.25ZM244.169 218.316C263.674 184.533 252.099 141.335 218.316 121.831C184.533 102.326 141.335 113.901 121.831 147.684C102.326 181.467 113.901 224.665 147.684 244.169C181.467 263.674 224.665 252.099 244.169 218.316Z" fill="url(#paint0_radial_18_2107)"/>
</mask>
<g mask="url(#mask0_18_2107)">
<path d="M67.3855 116.25C104.25 52.3978 185.898 30.5205 249.75 67.3855C313.602 104.25 335.479 185.898 298.614 249.75C261.749 313.602 180.102 335.479 116.25 298.614C52.3978 261.749 30.5205 180.102 67.3855 116.25ZM244.169 218.316C263.674 184.533 252.099 141.335 218.316 121.831C184.533 102.326 141.335 113.901 121.831 147.684C102.326 181.467 113.901 224.665 147.684 244.169C181.467 263.674 224.665 252.099 244.169 218.316Z" fill="#54D1D9" stroke="#222222" stroke-opacity="0.7"/>
<path d="M116.25 298.614C87.3538 281.931 65.7526 255.032 55.7013 223.216C45.6499 191.399 47.8772 156.972 61.9444 126.717C76.0115 96.4605 100.899 72.5691 131.704 59.7484C162.508 46.9276 196.998 46.1071 228.377 57.4485C259.757 68.7898 285.752 91.4708 301.242 121.024C316.732 150.576 320.594 184.858 312.067 217.117C303.54 249.375 283.242 277.271 255.172 295.309C227.102 313.348 193.295 320.221 160.41 314.575L171.048 252.614C188.447 255.601 206.334 251.964 221.185 242.421C236.036 232.877 246.775 218.118 251.287 201.05C255.798 183.983 253.755 165.845 245.559 150.209C237.364 134.574 223.61 122.574 207.008 116.573C190.406 110.573 172.158 111.007 155.86 117.79C139.562 124.573 126.394 137.214 118.952 153.221C111.509 169.229 110.331 187.444 115.649 204.277C120.967 221.111 132.395 235.343 147.684 244.169L116.25 298.614Z" fill="#FF7A7A" stroke="#222222" stroke-opacity="0.7"/>
<path d="M116.25 298.614C89.1381 282.961 68.3896 258.278 57.6309 228.879C46.8722 199.479 46.7877 167.234 57.3921 137.779C67.9965 108.324 88.6153 83.532 115.645 67.737C142.674 51.9421 174.395 46.1486 205.262 51.3692C236.13 56.5898 264.181 72.4923 284.513 96.2974C304.845 120.102 316.164 150.296 316.493 181.6C316.821 212.904 306.137 243.328 286.309 267.555C266.481 291.781 238.769 308.268 208.018 314.135L196.236 252.381C212.506 249.277 227.168 240.554 237.659 227.736C248.149 214.919 253.802 198.822 253.628 182.259C253.455 165.697 247.466 149.722 236.709 137.127C225.951 124.532 211.11 116.119 194.778 113.357C178.447 110.594 161.664 113.66 147.363 122.017C133.063 130.373 122.154 143.49 116.543 159.074C110.933 174.659 110.977 191.719 116.67 207.273C122.362 222.828 133.339 235.888 147.684 244.169L116.25 298.614Z" fill="#FFCB6F" stroke="#222222" stroke-opacity="0.7"/>
<path d="M116.25 298.614C90.7992 283.92 70.9082 261.239 59.6619 234.088C48.4157 206.937 46.4426 176.834 54.0488 148.448C61.6549 120.061 78.4152 94.9774 101.73 77.0872C125.045 59.197 153.612 49.4999 183 49.4999C212.388 49.4999 240.955 59.197 264.27 77.0872C287.585 94.9774 304.345 120.061 311.951 148.448C319.557 176.834 317.584 206.937 306.338 234.088C295.092 261.239 275.201 283.92 249.75 298.614L218.316 244.169C231.781 236.395 242.305 224.395 248.256 210.03C254.206 195.665 255.25 179.738 251.225 164.719C247.201 149.7 238.334 136.429 225.998 126.964C213.663 117.498 198.548 112.368 183 112.368C167.451 112.368 152.337 117.498 140.002 126.963C127.666 136.429 118.799 149.7 114.774 164.719C110.75 179.738 111.794 195.665 117.744 210.03C123.694 224.395 134.218 236.395 147.684 244.169L116.25 298.614Z" fill="#AC7EFF" stroke="#222222" stroke-opacity="0.7"/>
<path d="M116.25 298.614C91.1365 284.115 71.4271 261.833 60.1019 235.138C48.7767 208.442 46.4517 178.785 53.4785 150.651C60.5052 122.517 76.5015 97.4355 99.0486 79.1999C121.596 60.9643 149.467 50.5661 178.449 49.5775C207.43 48.5889 235.946 57.0638 259.683 73.7206C283.42 90.3774 301.088 114.31 310.016 141.9C318.943 169.49 318.645 199.237 309.165 226.642C299.685 254.047 281.54 277.62 257.473 293.797L222.402 241.621C235.135 233.062 244.736 220.59 249.751 206.09C254.767 191.591 254.925 175.852 250.202 161.255C245.478 146.658 236.13 133.995 223.571 125.182C211.012 116.369 195.926 111.886 180.592 112.409C165.258 112.932 150.512 118.433 138.583 128.081C126.654 137.729 118.19 150.999 114.473 165.885C110.755 180.77 111.985 196.461 117.977 210.585C123.969 224.709 134.397 236.498 147.684 244.169L116.25 298.614Z" fill="#FD8787" stroke="#222222" stroke-opacity="0.7"/>
<path d="M116.25 298.614C93.3835 285.412 74.9455 265.726 63.2674 242.045C51.5893 218.365 47.1956 191.753 50.642 165.575C54.0884 139.397 65.22 114.829 82.6292 94.9772C100.038 75.1258 122.943 60.8826 148.448 54.0488C173.952 47.215 200.909 48.0975 225.912 56.5847C250.915 65.0719 272.839 80.7827 288.913 101.73C304.986 122.678 314.487 147.921 316.214 174.269C317.941 200.616 311.816 226.884 298.614 249.75L244.169 218.316C251.154 206.218 254.395 192.32 253.481 178.38C252.567 164.44 247.54 151.085 239.036 140.002C230.532 128.919 218.932 120.606 205.704 116.116C192.475 111.626 178.213 111.159 164.719 114.774C151.225 118.39 139.107 125.926 129.896 136.429C120.685 146.932 114.795 159.93 112.972 173.781C111.148 187.631 113.473 201.711 119.652 214.24C125.83 226.769 135.586 237.184 147.684 244.169L116.25 298.614Z" fill="#638FFF" stroke="#222222" stroke-opacity="0.7"/>
<path d="M116.25 298.614C95.6228 286.705 78.5574 269.495 66.8237 248.767C55.0899 228.04 49.1152 204.551 49.5191 180.736C49.9229 156.921 56.6908 133.648 69.1206 113.331C81.5505 93.0134 99.1896 76.3913 120.209 65.1885C141.228 53.9858 164.861 48.6104 188.658 49.6198C212.455 50.6293 235.548 57.9869 255.543 70.9295C275.538 83.872 291.706 101.928 302.37 123.225C313.035 144.523 317.807 168.285 316.193 192.049L253.47 187.787C254.324 175.215 251.799 162.642 246.156 151.374C240.514 140.106 231.96 130.553 221.381 123.706C210.802 116.858 198.584 112.965 185.993 112.431C173.403 111.897 160.899 114.741 149.778 120.668C138.657 126.595 129.325 135.39 122.749 146.139C116.172 156.889 112.591 169.202 112.378 181.802C112.164 194.402 115.325 206.83 121.533 217.796C127.741 228.763 136.77 237.868 147.684 244.169L116.25 298.614Z" fill="#FF957D" stroke="#222222" stroke-opacity="0.7"/>
<path d="M116.25 298.614C98.2087 288.198 82.8556 273.705 71.4185 256.293C59.9814 238.881 52.7779 219.034 50.3841 198.34C47.9904 177.646 50.4728 156.679 57.6328 137.116C64.7929 117.553 76.4318 99.9368 91.6186 85.6771C106.805 71.4175 125.119 60.9098 145.093 54.9946C165.068 49.0795 186.15 47.921 206.652 51.6119C227.155 55.3027 246.509 63.7405 263.167 76.2503C279.825 88.7601 293.324 104.995 302.584 123.655L246.27 151.602C241.37 141.729 234.228 133.139 225.415 126.521C216.601 119.902 206.361 115.438 195.514 113.485C184.666 111.532 173.512 112.145 162.944 115.275C152.376 118.404 142.687 123.964 134.652 131.508C126.617 139.053 120.459 148.373 116.671 158.723C112.882 169.074 111.569 180.167 112.835 191.116C114.102 202.065 117.913 212.565 123.964 221.778C130.015 230.99 138.138 238.658 147.684 244.169L116.25 298.614Z" fill="#FF8BF0" stroke="#222222" stroke-opacity="0.7"/>
<path d="M116.25 298.614C86.0053 281.153 63.8075 252.534 54.4167 218.897C45.026 185.26 49.1902 149.282 66.0163 118.68C82.8423 88.0769 110.99 65.2861 144.424 55.1947C177.858 45.1034 213.915 48.515 244.862 64.6981L215.73 120.409C199.356 111.847 180.279 110.041 162.59 115.381C144.901 120.72 130.008 132.778 121.106 148.969C112.204 165.161 110.001 184.196 114.969 201.993C119.937 219.789 131.682 234.931 147.684 244.169L116.25 298.614Z" fill="#469FFF" stroke="#222222" stroke-opacity="0.7"/>
<path d="M116.25 298.614C93.6918 285.59 75.4366 266.252 63.7333 242.981C52.0301 219.71 47.3902 193.524 50.3853 167.649C53.3804 141.774 63.8797 117.341 80.5895 97.359C97.2993 77.3772 119.49 62.7202 144.426 55.194L162.591 115.38C149.398 119.362 137.657 127.117 128.816 137.689C119.976 148.261 114.421 161.188 112.836 174.878C111.251 188.568 113.706 202.423 119.898 214.735C126.09 227.047 135.749 237.279 147.684 244.169L116.25 298.614Z" fill="#566FFF" stroke="#222222" stroke-opacity="0.7"/>
<circle cx="183.683" cy="182.817" r="96" transform="rotate(-150 183.683 182.817)" fill="#222222" fill-opacity="0.1"/>
</g>
<defs>
<radialGradient id="paint0_radial_18_2107" cx="0" cy="0" r="1" gradientUnits="userSpaceOnUse" gradientTransform="translate(183.25 182.567) rotate(-60) scale(133)">
<stop stop-color="#F4F5F7" stop-opacity="0"/>
<stop offset="1" stop-color="#F4F5F7"/>
</radialGradient>
</defs>
</svg>
